<?xml version="1.0" encoding="UTF-8"?>
<svg width="42px" height="37px" viewBox="0 0 42 37" version="1.1" xmlns="http://www.w3.org/2000/svg" xmlns:xlink="http://www.w3.org/1999/xlink">
    <!-- Generator: Sketch 57.1 (83088) - https://sketch.com -->
    <title>Group 4</title>
    <desc>Created with Sketch.</desc>
    <g id="Besucher" stroke="none" stroke-width="1" fill="none" fill-rule="evenodd">
        <g id="presentation---waiting-screen" transform="translate(-119.000000, -424.000000)" fill-rule="nonzero">
            <g id="Group-4" transform="translate(118.000000, 423.000000)">
                <path d="M39.8251275,18.2448194 L39.8251275,23.3073194 C39.8251275,23.4831004 39.807717,23.6413035 39.7728954,23.7819288 L38.1014668,30.9538038 C37.9970025,31.445991 37.7532522,31.8414988 37.3702168,32.1403272 C36.9871813,32.4391556 36.551913,32.5885694 36.0644132,32.5885694 L25.2001276,32.5885694 C24.5036993,32.5885694 23.9465562,32.3073197 23.528699,31.7448194 L16.8429848,22.4635694 C16.4947702,21.9713822 16.3641899,21.4352491 16.4512437,20.855171 C16.5382975,20.2750928 16.8168687,19.8180613 17.286958,19.4840772 C17.7570473,19.1500931 18.2793687,19.0270457 18.8539223,19.1149366 C19.4284758,19.2028275 19.872449,19.4752879 20.1858419,19.9323194 L21.8572704,22.2526319 L21.8572704,7.6979444 C21.8572704,7.10028841 22.0574934,6.59931185 22.4579401,6.19501471 C22.8583868,5.79071756 23.3545921,5.5885694 23.9465562,5.5885694 C24.5385202,5.5885694 25.0347255,5.79071756 25.4351722,6.19501471 C25.8356189,6.59931185 26.0358419,7.10028841 26.0358419,7.6979444 L26.0358419,18.2448194 L26.453699,18.2448194 L26.453699,16.1354444 C26.453699,15.5377884 26.6539219,15.0368119 27.0543686,14.6325147 C27.4548153,14.2282176 27.9510207,14.0260694 28.5429847,14.0260694 C29.1349487,14.0260694 29.6311541,14.2282176 30.0316008,14.6325147 C30.4320475,15.0368119 30.6322704,15.5377884 30.6322704,16.1354444 L30.6322704,18.2448194 L31.0501275,18.2448194 L31.0501275,16.9791944 C31.0501275,16.3815384 31.2503505,15.8805619 31.6507972,15.4762647 C32.0512439,15.0719676 32.5474492,14.8698194 33.1394132,14.8698194 C33.7313773,14.8698194 34.2275826,15.0719676 34.6280293,15.4762647 C35.028476,15.8805619 35.2286989,16.3815384 35.2286989,16.9791944 L35.2286989,18.2448194 L35.6465561,18.2448194 C35.6465561,17.6471634 35.846779,17.1461869 36.2472257,16.7418897 C36.6476724,16.3375926 37.1438778,16.1354444 37.7358418,16.1354444 C38.3278058,16.1354444 38.8240112,16.3375926 39.2244579,16.7418897 C39.6249045,17.1461869 39.8251275,17.6471634 39.8251275,18.2448194 Z" id="Path" fill="#7E3DDB" transform="translate(28.125127, 19.088569) rotate(-30.000000) translate(-28.125127, -19.088569) "></path>
                <g id="Group">
                    <path d="M23.0426576,1.01653018 C23.980155,1.01653018 24.7770288,1.34465476 25.4332769,2.00090283 C26.0895249,2.65715091 26.4176495,3.45402473 26.4176495,4.39152213 L26.4176495,33.6414524 C26.4176495,34.5789498 26.0895249,35.3758236 25.4332769,36.0320717 C24.7770288,36.6883198 23.980155,37.0164443 23.0426576,37.0164443 L4.59271656,37.0164443 C3.65521916,37.0164443 2.85834534,36.6883198 2.20209726,36.0320717 C1.54584918,35.3758236 1.21772461,34.5789498 1.21772461,33.6414524 L1.21772461,4.39152213 C1.21772461,3.45402473 1.54584918,2.65715091 2.20209726,2.00090283 C2.85834534,1.34465476 3.65521916,1.01653018 4.59271656,1.01653018 L23.0426576,1.01653018 Z M23.0426576,27.1727178 L23.0426576,5.23527012 C23.0426576,5.00089604 22.9606261,4.80167705 22.7965644,4.6376153 C22.6325026,4.47355355 22.4332836,4.39152213 22.1989096,4.39152213 L5.43646455,4.39152213 C5.20209047,4.39152213 5.00287148,4.47355355 4.83880973,4.6376153 C4.67474797,4.80167705 4.59271656,5.00089604 4.59271656,5.23527012 L4.59271656,27.1727178 C4.59271656,27.4070919 4.67474797,27.6063109 4.83880973,27.7703726 C5.00287148,27.9344344 5.20209047,28.0164658 5.43646455,28.0164658 L22.1989096,28.0164658 C22.4332836,28.0164658 22.6325026,27.9344344 22.7965644,27.7703726 C22.9606261,27.6063109 23.0426576,27.4070919 23.0426576,27.1727178 Z" id="t" fill="#5963D5"></path>
                    <path d="M14.2676924,34.7664497 C14.877061,34.7664497 15.4044035,34.5437936 15.8497145,34.0984826 C16.2950256,33.6531715 16.5176817,33.125829 16.5176817,32.5164604 C16.5176817,31.9070812 16.2950256,31.3797387 15.8497145,30.9344276 C15.4044035,30.4891165 14.877061,30.2664604 14.2676924,30.2664604 C13.6583132,30.2664604 13.1309707,30.4891165 12.6856596,30.9344276 C12.2403485,31.3797387 12.0176924,31.9070812 12.0176924,32.5164604 C12.0176924,33.125829 12.2403485,33.6531715 12.6856596,34.0984826 C13.1309707,34.5437936 13.6583132,34.7664497 14.2676924,34.7664497 Z" id="Path" fill="#FFFFFF"></path>
                </g>
            </g>
        </g>
    </g>
</svg>