<?xml version="1.0" encoding="UTF-8"?>
<svg width="53px" height="13px" viewBox="0 0 53 13" version="1.1" xmlns="http://www.w3.org/2000/svg" xmlns:xlink="http://www.w3.org/1999/xlink">
    <!-- Generator: Sketch 57.1 (83088) - https://sketch.com -->
    <title>Line</title>
    <desc>Created with Sketch.</desc>
    <g id="Besucher" stroke="none" stroke-width="1" fill="none" fill-rule="evenodd">
        <g id="presentation---waiting-screen" transform="translate(-591.000000, -418.000000)" fill="#7E3DDB" fill-rule="nonzero">
            <path id="Line" d="M637.993055,422.559002 C638.153389,422.309593 638.485551,422.237382 638.734961,422.397716 C638.805069,422.442785 638.863721,422.503558 638.906272,422.575223 L638.906272,422.575223 L643.430548,430.194999 C643.581923,430.449945 643.497962,430.779334 643.243016,430.930709 C643.143135,430.990014 643.026714,431.015323 642.911226,431.002838 L642.911226,431.002838 L634.100839,430.050393 C633.806057,430.018526 633.592923,429.753724 633.62479,429.458942 C633.633748,429.37608 633.661875,429.296442 633.706944,429.226334 L633.706944,429.226334 L635.564477,426.335298 C635.326566,426.199197 635.089308,426.06513 634.852704,425.933097 C634.611566,425.798533 634.525171,425.493967 634.659735,425.25283 C634.794298,425.011692 635.098864,424.925297 635.340002,425.059861 C635.742949,425.28472 636.147692,425.515358 636.554232,425.751773 L636.106,425.494 Z M594.280075,427.133889 C594.47288,426.936201 594.789438,426.932242 594.987127,427.125047 C595.184815,427.317852 595.188774,427.63441 594.995969,427.832099 C594.104719,428.745922 593.236601,429.73518 592.391664,430.799938 C592.220011,431.016248 591.905506,431.05245 591.689196,430.880798 C591.472886,430.709145 591.436684,430.394639 591.608336,430.178329 C592.474117,429.087305 593.36468,428.07247 594.280075,427.133889 Z M600.638641,422.073341 C600.876417,421.932922 601.183004,422.011845 601.323423,422.24962 C601.463842,422.487395 601.384919,422.793982 601.147144,422.934401 C600.041993,423.587053 598.965616,424.332991 597.917958,425.172389 C597.702455,425.345054 597.387783,425.310326 597.215119,425.094822 C597.042454,424.879319 597.077182,424.564647 597.292686,424.391983 C598.376911,423.523286 599.492249,422.750348 600.638641,422.073341 Z M627.53479,421.873468 C627.63856,421.617565 627.930133,421.494237 628.186036,421.598007 C629.395722,422.088543 630.623393,422.637289 631.869074,423.244219 C632.117319,423.36517 632.22051,423.664463 632.099559,423.912707 C631.978607,424.160952 631.679315,424.264143 631.43107,424.143192 C630.205508,423.546065 628.99856,423.006581 627.81025,422.524714 C627.554347,422.420944 627.43102,422.129371 627.53479,421.873468 Z M608.229931,419.088175 C608.499865,419.02995 608.765891,419.201574 608.824116,419.471509 C608.882341,419.741443 608.710716,420.007468 608.440782,420.065693 C607.158109,420.342366 605.907719,420.720555 604.689353,421.200331 C604.432414,421.301509 604.142103,421.175241 604.040924,420.918303 C603.939745,420.661364 604.066013,420.371052 604.322952,420.269874 C605.591831,419.770206 606.894244,419.376283 608.229931,419.088175 Z M620.308278,419.182384 L620.397937,419.192571 C621.681575,419.456158 622.988289,419.794936 624.318085,420.208825 C624.581751,420.29089 624.728969,420.57116 624.646904,420.834827 C624.56484,421.098493 624.28457,421.245711 624.020903,421.163646 C622.722215,420.759439 621.447509,420.42896 620.19679,420.172132 C619.926292,420.116587 619.752038,419.852276 619.807583,419.581778 C619.863128,419.31128 620.127439,419.137026 620.397937,419.192571 Z M612.260163,418.545633 C613.58737,418.469587 614.943885,418.488602 616.329578,418.602567 C616.604791,418.625201 616.809547,418.866655 616.786912,419.141868 C616.764278,419.417081 616.522824,419.621836 616.247611,419.599202 C614.90769,419.489002 613.597653,419.470638 612.317367,419.543996 C612.041677,419.559792 611.80538,419.349107 611.789584,419.073416 C611.773787,418.797726 611.984473,418.56143 612.260163,418.545633 Z"></path>
        </g>
    </g>
</svg>