<?xml version="1.0" encoding="UTF-8"?>
<svg width="46px" height="39px" viewBox="0 0 46 39" version="1.1" xmlns="http://www.w3.org/2000/svg" xmlns:xlink="http://www.w3.org/1999/xlink">
    <!-- Generator: Sketch 57.1 (83088) - https://sketch.com -->
    <title>Group 7</title>
    <desc>Created with Sketch.</desc>
    <g id="Besucher" stroke="none" stroke-width="1" fill="none" fill-rule="evenodd">
        <g id="presentation---waiting-screen" transform="translate(-669.000000, -425.000000)" fill-rule="nonzero">
            <g id="Group-7" transform="translate(669.000000, 425.000000)">
                <path d="M40.5086926,14.6249651 C40.5086926,17.2968338 39.6063514,19.7460463 37.8016678,21.9726039 C35.9969842,24.1991614 33.5360526,25.9686877 30.4188729,27.281185 C27.3016932,28.5936822 23.9149822,29.2499303 20.2587409,29.2499303 C16.9306242,29.2499303 13.7900063,28.6874316 10.8368883,27.5624343 C7.9775198,29.8124289 4.64940309,31.1249261 0.852537147,31.4999249 C0.665037237,31.4999249 0.489256406,31.4530497 0.325194655,31.3593002 C0.161132903,31.2655508 0.0556644048,31.1249261 0.00878915889,30.9374262 C-0.038086087,30.7499263 0.102538578,30.4921152 0.430663153,30.1639906 L0.993161812,29.6718043 C1.8369098,28.9218057 2.44628371,28.2421205 2.82128245,27.6327466 C3.43065636,26.5546245 3.87596744,25.171815 4.15721677,23.484319 C2.84471954,22.218697 1.82519072,20.8358875 1.09863031,19.3358914 C0.3720699,17.8358953 0.00878915889,16.2655859 0.00878915889,14.6249651 C0.00878915889,11.9530965 0.92284948,9.50388395 2.75097012,7.2773264 C4.57909076,5.05076885 7.0400224,3.28124253 10.133765,1.96874531 C13.2275076,0.656248078 16.6024996,1.77635684e-15 20.2587409,1.77635684e-15 C23.9149822,1.77635684e-15 27.2899741,0.656248078 30.3837167,1.96874531 C33.4774594,3.28124253 35.938391,5.05076885 37.7665116,7.2773264 C39.5946323,9.50388395 40.5086926,11.9530965 40.5086926,14.6249651 Z" id="c" fill="#3AA1D1"></path>
                <path d="M27.0625,23.25 C27.7196186,23.25 28.322824,23.4983787 28.7872227,23.9627773 C29.2516213,24.427176 29.5,25.0303814 29.5,25.6875 L29.5,35.0625 C29.5,35.7196186 29.2516213,36.322824 28.7872227,36.7872227 C28.322824,37.2516213 27.7196186,37.5 27.0625,37.5 L23.9375,37.5 C23.2803814,37.5 22.677176,37.2516213 22.2127773,36.7872227 C21.7483787,36.322824 21.5,35.7196186 21.5,35.0625 L21.5,25.6875 C21.5,25.0303814 21.7483787,24.427176 22.2127773,23.9627773 C22.677176,23.4983787 23.2803814,23.25 23.9375,23.25 L27.0625,23.25 Z M25.5,32.9375 C25.3637152,32.9375 25.2032173,33.0035874 25.1034023,33.1034023 C25.0035874,33.2032173 24.9375,33.3637152 24.9375,33.5 C24.9375,33.6362848 25.0035874,33.7967827 25.1034023,33.8965977 C25.2032173,33.9964126 25.3637152,34.0625 25.5,34.0625 C25.6362848,34.0625 25.7967827,33.9964126 25.8965977,33.8965977 C25.9964126,33.7967827 26.0625,33.6362848 26.0625,33.5 C26.0625,33.3637152 25.9964126,33.2032173 25.8965977,33.1034023 C25.7967827,33.0035874 25.6362848,32.9375 25.5,32.9375 Z M39.052475,21.375 L40.65625,21.375 C41.7039936,21.375 42.6392303,21.7600974 43.3770664,22.4979336 C44.1085337,23.2294009 44.5,24.1353659 44.5,25.140625 C44.5,25.7064265 44.3879074,26.2566994 44.166607,26.7797729 C44.0798029,26.984946 43.9827836,27.179735 43.875274,27.3636592 C43.9678135,27.8246457 43.9914821,28.3023616 43.9469649,28.7920531 C43.892607,29.3899915 43.7293158,29.95085 43.4599668,30.4634865 C43.5285813,30.9953816 43.4962185,31.5404289 43.3654594,32.0896178 C43.2436018,32.6014208 43.0585998,33.0698536 42.8089378,33.4890203 C42.8572587,34.2936729 42.6600792,35.0515982 42.2067108,35.7142135 C41.6064783,36.5914762 40.6236593,37.103361 39.3744187,37.3172578 C38.7147734,37.4429047 37.786974,37.5 36.5546875,37.5 L36.4375,37.5 C35.4427641,37.5 34.4282762,37.3309186 33.428353,37.0070519 C32.8337568,36.8286729 32.0687246,36.5268712 31.1157466,36.0987219 C30.3958317,35.775282 29.8965076,35.625 29.71875,35.625 C29.1918402,35.625 28.699311,35.4221938 28.3260586,35.0489414 C27.9528062,34.675689 27.75,34.1831598 27.75,33.65625 L27.75,25.296875 C27.75,24.7526949 27.9739441,24.2522585 28.3725215,23.8941899 C28.8227736,23.4112401 29.3983838,22.6669626 30.0832193,21.6751448 C30.7642709,20.6819449 31.3453835,19.9555539 31.8221523,19.5096523 C31.91319,19.4186147 32.0075914,19.2593123 32.1150977,18.9585384 C32.1759826,18.8063263 32.2609725,18.5112464 32.359375,18.0943029 L32.359375,18.0341303 L32.4079491,17.8479295 C32.5803082,17.1872201 32.742538,16.6710345 32.9235129,16.2386704 C33.4007356,15.1887809 34.1208246,14.5 35.1875,14.5 C36.1911885,14.5 37.0845726,14.7580887 37.8381536,15.3024765 C38.9689505,16.1401035 39.5,17.4775617 39.5,19.1640625 C39.5,19.7962557 39.3952172,20.4249523 39.1583398,21.1273991 C39.12718,21.2052986 39.0918401,21.2878876 39.052475,21.375 Z" id="t" stroke="#FFFFFF" stroke-width="3" fill="#7E3DDB" transform="translate(33.000000, 26.000000) scale(-1, 1) translate(-33.000000, -26.000000) "></path>
            </g>
        </g>
    </g>
</svg>