<svg xmlns="http://www.w3.org/2000/svg" id="Layer_1" viewBox="0 0 64 30.4"><path d="M48.8,0c-8.38,0-15.2,6.82-15.2,15.2s6.82,15.2,15.2,15.2,15.2-6.82,15.2-15.2S57.18,0,48.8,0ZM48.8,28.4c-7.28,0-13.2-5.92-13.2-13.2s5.92-13.2,13.2-13.2,13.2,5.92,13.2,13.2-5.92,13.2-13.2,13.2Z"/><path d="M15.2,0C6.82,0,0,6.82,0,15.2s6.82,15.2,15.2,15.2,15.2-6.82,15.2-15.2S23.58,0,15.2,0ZM15.2,28.4c-7.28,0-13.2-5.92-13.2-13.2S7.92,2,15.2,2s13.2,5.92,13.2,13.2-5.92,13.2-13.2,13.2Z"/><path d="M21.61,8.99c-.39-.39-1.02-.39-1.41,0l-4.89,4.89-4.89-4.89c-.39-.39-1.02-.39-1.41,0s-.39,1.02,0,1.41l4.89,4.89-4.89,4.89c-.39.39-.39,1.02,0,1.41.2.2.45.29.71.29s.51-.1.71-.29l4.89-4.89,4.89,4.89c.2.2.45.29.71.29s.51-.1.71-.29c.39-.39.39-1.02,0-1.41l-4.89-4.89,4.89-4.89c.39-.39.39-1.02,0-1.41Z"/></svg>