<svg xmlns="http://www.w3.org/2000/svg" id="Layer_1" viewBox="0 0 53.6 58.89"><path d="M36.02,13.26c-2.39-1.92-5.41-3.07-8.7-3.07-.03,0-.06,0-.09,0h-.08c-5.93,0-10.98,3.73-12.99,8.95L0,17.01v38.38l17.79,3.49v-.18s4.61-2.01,4.61-2.01l-.07-.16c1.19,1.05,2.76,1.7,4.47,1.7,3.12,0,5.74-2.12,6.53-4.99l3.43-1.04,16.84,3.18V16.33l-17.58-3.08ZM15.22,24.11c0-6.57,5.35-11.92,11.93-11.92h.16c6.57,0,11.92,5.35,11.92,11.92,0,.17,0,.36-.02.52v.31c-.09,2.61-.51,4.96-2.33,8-3.3,5.49-3.97,7.75-3.97,9.46v.18c0,2.57-.25,3.32-.4,3.47h-1.62s0,0,0,0h-8.2l-.03.02h-.7c-.21-.18-.47-.93-.46-3.49v-.18c0-1.71-.68-3.97-3.97-9.46-1.92-3.2-2.32-5.5-2.32-7.97v-.86ZM35.7,50.43l-2.15.65c-.06-1.08-.37-2.12-.91-3.04.46-.03.89-.21,1.23-.55.97-.97,1.05-2.96,1.04-4.91v-.18c0-.65.14-1.5.78-3.01v11.04ZM2,53.75V19.34l11.57,1.74c-.22.98-.34,1.99-.34,3.03v.86c0,3.31.75,5.92,2.6,9,.03.04.05.08.07.12l-.09,22.37-13.81-2.71ZM17.88,37.62c1.38,2.68,1.63,3.91,1.63,4.78v.18c0,1.95.07,3.93,1.04,4.91.16.16.33.27.52.36-.67,1.07-1.05,2.31-1.05,3.6s.39,2.58,1.06,3.63l-3.28,1.44.08-18.9ZM26.8,56.23c-2.63,0-4.77-2.14-4.77-4.77,0-1.28.52-2.51,1.43-3.4h6.69c.91.9,1.43,2.12,1.43,3.4,0,2.63-2.14,4.77-4.77,4.77ZM51.6,52.97l-13.9-2.62v-14.84c.28-.48.57-.99.9-1.54,2.05-3.41,2.52-6.05,2.6-8.97v-.26c.02-.2.03-.42.03-.62,0-3.16-1.07-6.07-2.85-8.4l13.21,2.31v34.95Z"/><path d="M19.91,25.19c.55,0,1-.45,1-1,0-3.48,2.83-6.32,6.32-6.32.55,0,1-.45,1-1s-.45-1-1-1c-4.59,0-8.32,3.73-8.32,8.32,0,.55.45,1,1,1Z"/><path d="M26.98,7.27c.55,0,1-.45,1-1V1c0-.55-.45-1-1-1s-1,.45-1,1v5.27c0,.55.45,1,1,1Z"/><path d="M31.43,7.27c.24,0,.49-.09.68-.27l2.56-2.38c.4-.38.43-1.01.05-1.41-.38-.41-1.01-.43-1.41-.05l-2.56,2.38c-.4.38-.43,1.01-.05,1.41.2.21.46.32.73.32Z"/><path d="M21.48,6.98c.19.18.44.27.68.27.27,0,.54-.11.73-.32.38-.4.35-1.04-.05-1.41l-2.56-2.38c-.4-.38-1.04-.35-1.41.05-.38.4-.35,1.04.05,1.41l2.56,2.38Z"/></svg>