<svg width="301" height="400" viewBox="0 0 301 400" fill="none" xmlns="http://www.w3.org/2000/svg">
<path d="M300.998 333.37C300.998 373 270.177 400.14 232.511 400C195.083 399.859 164.533 373 164.533 333.37V236.824C164.533 233.051 163.053 229.433 160.418 226.766C157.784 224.098 154.211 222.599 150.486 222.599C146.761 222.599 143.188 224.098 140.553 226.766C137.919 229.433 136.439 233.051 136.439 236.824V357.396C136.439 378 123.996 394.261 100.034 394.261H36.409C12.9961 394.261 0 379.5 0 357.393V36.8654C0 14 13.9961 0 36.405 0L101.496 0C124.457 0 136.44 14.5 136.44 36.8654V162.474C136.44 166.762 138.122 170.874 141.117 173.907C144.111 176.939 148.172 178.642 152.407 178.642C155.796 178.651 159.1 177.563 161.836 175.538C164.573 173.512 166.598 170.655 167.619 167.382C172.483 151.611 182.766 138.128 196.604 129.375C210.442 120.622 226.918 117.179 243.047 119.67C259.176 122.161 273.89 130.421 284.522 142.953C295.154 155.485 301 171.46 301.001 187.981L300.998 333.37Z" fill="#262424"/>
</svg>
