<?xml version="1.0" encoding="UTF-8"?>
<svg width="77px" height="43px" viewBox="0 0 77 43" version="1.1" xmlns="http://www.w3.org/2000/svg" xmlns:xlink="http://www.w3.org/1999/xlink">
    <!-- Generator: Sketch 56.3 (81716) - https://sketch.com -->
    <title>icon bürgerrat</title>
    <desc>Created with Sketch.</desc>
    <g id="Produktseite" stroke="none" stroke-width="1" fill="none" fill-rule="evenodd">
        <g id="icon-bürgerrat" transform="translate(1.000000, 1.000000)" stroke="#2A3CD4" stroke-width="1.5">
            <path d="M4.73046875,15.0717773 L4.73046875,25.9536133 L2.5,25.9536133 C1.11928813,25.9536133 1.69088438e-16,24.8343252 0,23.4536133 L0,17.5717773 C-1.69088438e-16,16.1910655 1.11928813,15.0717773 2.5,15.0717773 L4.73046875,15.0717773 Z" id="Path-9"></path>
            <polyline id="Path" points="60.4487305 40.4985352 4.73046875 25.9536133 4.73046875 15.0717773 4.73046875 15.0717773 60.4487305 0"></polyline>
            <path d="M8.79882812,27.1850586 L8.51995916,28.0040391 C7.62986039,30.6180753 9.02738781,33.458738 11.641424,34.3488368 C11.6510422,34.3521118 11.6606704,34.3553576 11.6703084,34.358574 L19.546253,36.9869209 C22.1434191,37.8536428 24.9546326,36.4703134 25.8525257,33.8837584 L26.5693359,31.8188477" id="Path-11"></path>
            <path d="M12.0439453,28.1220703 L11.8703214,28.6909596 C11.4719162,29.9963583 12.1941004,31.380036 13.4928393,31.7996428 L19.7731341,33.82873 C21.0719283,34.2483547 22.4672325,33.5487173 22.9078712,32.2569012 L23.3217773,31.043457" id="Path-12"></path>
            <path d="M18.5400391,16.1894531 L27.8911133,13.7568359" id="Path-13"></path>
            <path d="M38.1484375,10.8364258 L53.7724609,6.54101562" id="Path-14"></path>
            <path d="M66.7734375,5.38427734 L74.3608398,3.85839844" id="Path-15"></path>
            <path d="M67.6455078,19.5332031 L75.7563477,19.5332031" id="Path-16"></path>
            <path d="M66.7734375,32.8679199 L74.3608398,34.5849609" id="Path-17"></path>
            <ellipse id="Oval" cx="60.5234375" cy="20.3237305" rx="4.25" ry="20.25"></ellipse>
        </g>
    </g>
</svg>