<?xml version="1.0" encoding="UTF-8"?>
<svg width="60px" height="49px" viewBox="0 0 60 49" version="1.1" xmlns="http://www.w3.org/2000/svg" xmlns:xlink="http://www.w3.org/1999/xlink">
    <!-- Generator: Sketch 56.3 (81716) - https://sketch.com -->
    <title>icon ngo</title>
    <desc>Created with Sketch.</desc>
    <defs>
        <polygon id="path-1" points="1.90331173e-05 0 59.3262402 0 59.3262402 49.012446 1.90331173e-05 49.012446"></polygon>
    </defs>
    <g id="Produktseite" stroke="none" stroke-width="1" fill="none" fill-rule="evenodd">
        <g id="icon-ngo">
            <mask id="mask-2" fill="white">
                <use xlink:href="#path-1"></use>
            </mask>
            <g id="Clip-2"></g>
            <path d="M27.307275,6.067275 C27.905775,6.174525 28.715775,6.239775 29.717775,6.262275 C31.409775,6.312525 32.327025,6.337275 32.475525,6.337275 C32.686275,6.337275 32.886525,6.425775 33.029025,6.581775 C33.170775,6.737025 33.241275,6.944775 33.222525,7.154775 L33.091275,8.596275 L39.110025,7.184025 L37.232025,1.700025 C36.452775,1.854525 34.937775,2.123775 31.892025,2.651025 L31.891275,2.651025 C31.890525,2.651025 31.889775,2.651775 31.889025,2.651775 C31.889025,2.651775 31.893525,2.654775 31.886775,2.651775 C31.885275,2.651775 31.884525,2.652525 31.883025,2.652525 C30.474525,2.879775 28.146525,3.332775 24.955275,3.999525 C25.412025,4.853025 26.188275,5.534775 27.307275,6.067275 L27.307275,6.067275 Z M12.956775,11.123025 L23.612775,14.885775 C24.540525,14.288775 25.109025,13.651275 25.306275,12.986025 C25.522275,12.267525 25.354275,11.519775 24.794025,10.703025 L18.474525,8.197275 L18.472275,8.195775 C18.468525,8.195025 18.464775,8.193525 18.461025,8.192025 L16.925775,7.555275 L15.072525,6.827025 C14.130525,7.111275 13.489275,7.604025 13.118025,8.329275 C12.727275,9.055275 12.674775,9.990525 12.956775,11.123025 L12.956775,11.123025 Z M12.053025,16.820025 C15.577275,18.310275 19.307775,19.468275 23.147775,20.265525 C23.973525,19.484025 24.568275,18.331275 23.223525,16.339275 L12.543525,12.567525 C10.754775,14.537025 11.344275,15.915525 12.053025,16.820025 L12.053025,16.820025 Z M12.027525,23.079525 C14.014275,23.975025 15.374775,24.551025 16.070775,24.791025 C17.369025,25.223775 18.923775,25.508775 20.690025,25.637025 C21.594525,25.147275 22.253775,24.577275 22.651275,23.939775 C23.102025,23.213775 23.166525,22.505025 22.847025,21.734775 C18.992025,20.935275 15.244275,19.779525 11.695275,18.296775 C10.790025,19.093275 10.520775,20.412525 10.875525,22.310025 L12.027525,23.079525 Z M11.540775,28.505775 C13.988775,29.336025 16.565025,29.527275 19.197525,29.073525 C20.137275,28.208025 20.289525,27.537525 20.255775,27.107775 C18.497775,26.959275 16.930275,26.658525 15.588525,26.211525 C14.869275,25.963275 13.598775,25.429275 11.705775,24.579525 C10.805775,25.154025 10.103775,26.144025 11.236275,28.372275 C11.285775,28.399275 11.378025,28.444275 11.540775,28.505775 L11.540775,28.505775 Z M49.387275,49.012446 C49.270275,49.012446 49.151775,48.985275 49.041525,48.926775 L29.866275,38.916525 L12.449025,48.912525 C12.089025,49.119525 11.631525,48.994275 11.425275,48.635025 C11.219025,48.275775 11.343525,47.817525 11.702025,47.612025 L29.466525,37.418025 C29.492025,37.403025 29.518275,37.388775 29.545275,37.376775 L46.046775,28.994775 C47.053275,27.676275 47.300025,26.873775 47.327025,26.429025 C47.357025,26.034525 47.291775,25.472775 46.479525,24.864525 L44.057025,26.060025 C43.683525,26.242275 43.235775,26.090025 43.052775,25.718775 C42.869025,25.347525 43.022025,24.897525 43.393275,24.714525 L45.940275,23.458275 C46.976775,20.604525 46.079775,19.553025 45.140775,19.051275 L41.370525,20.746275 C40.991775,20.915025 40.548525,20.747775 40.379025,20.369775 C40.208775,19.991775 40.377525,19.548525 40.755525,19.378275 L44.533275,17.680275 C45.206775,15.331275 44.447775,14.442525 43.670775,14.009775 L37.442025,16.122525 C37.049775,16.254525 36.623775,16.045275 36.490275,15.653025 C36.357525,15.260775 36.568275,14.834775 36.959775,14.702025 L43.434525,12.506025 C43.884525,12.275775 44.248275,12.005025 44.516775,11.699775 C44.876025,10.942275 44.955525,10.310025 44.762025,9.769275 C44.535525,9.134025 43.901025,8.572275 42.877275,8.098275 C42.506775,8.016525 41.763525,8.019525 40.303275,8.443275 C40.293525,8.445525 40.284525,8.448525 40.274775,8.450775 C40.268025,8.453025 40.260525,8.454525 40.254525,8.456025 L32.438775,10.288275 C32.402775,10.298025 32.365275,10.304775 32.327025,10.308525 L29.938275,10.714275 C29.522775,10.784775 29.142525,10.507275 29.072775,10.100025 C29.004525,9.691275 29.279775,9.304275 29.687775,9.235275 L31.556025,8.919525 L31.655775,7.817775 C31.190025,7.805775 30.530775,7.787025 29.678775,7.761525 C28.532025,7.736025 27.632775,7.658025 26.934525,7.523775 C26.874525,7.512525 26.816775,7.493775 26.760525,7.468275 C24.887775,6.601275 23.692275,5.320275 23.205525,3.660525 C23.147025,3.459525 23.174775,3.243525 23.282025,3.065025 C23.389275,2.885025 23.567025,2.759025 23.771025,2.715525 C24.887775,2.480025 25.910775,2.268525 26.836275,2.080275 L22.455525,1.558275 L19.776525,7.100025 L25.551525,9.389775 C25.681275,9.441525 25.793775,9.527775 25.877775,9.639525 C26.822775,10.910775 27.114525,12.181275 26.744025,13.415025 C26.468775,14.341275 25.796025,15.186525 24.740775,15.933525 C26.178525,18.375525 25.403775,20.123775 24.272025,21.260775 C24.724275,22.440525 24.608025,23.630025 23.925525,24.731775 C23.438775,25.511775 22.698525,26.197275 21.721275,26.776275 C21.867525,27.733275 21.588525,28.991775 20.028525,30.341775 C19.927275,30.428775 19.805025,30.488025 19.673775,30.512025 C16.823775,31.037025 14.031525,30.873525 11.367525,30.027525 L1.118025,35.790525 C0.757275,35.994525 0.299025,35.865525 0.096525,35.504775 C-0.106725,35.144025 0.021525,34.686525 0.383025,34.483275 L9.931275,29.114025 C8.501775,26.348025 9.292275,24.692775 10.334025,23.752275 L9.785025,23.386275 C9.622275,23.277525 9.508275,23.110275 9.467775,22.919025 C8.928525,20.395275 9.295275,18.509775 10.559025,17.301525 C9.646275,15.872025 9.299025,13.857525 11.501775,11.485275 C11.126775,9.978525 11.223525,8.684025 11.790525,7.631775 C12.383025,6.474525 13.441275,5.689275 14.927775,5.310525 C15.079275,5.272275 15.239775,5.282025 15.386775,5.339025 L18.383775,6.536025 L21.338025,0.423525 C21.477525,0.135525 21.780525,-0.031725 22.102275,0.005025 L31.743525,1.154775 C36.218025,0.380025 37.260525,0.173775 37.464525,0.121275 C37.623525,0.062025 37.799775,0.057525 37.964775,0.113775 C38.185275,0.188025 38.359275,0.361275 38.435025,0.581775 L40.571025,6.819525 C41.748525,6.534525 42.651525,6.483525 43.320525,6.662775 C43.358775,6.673275 43.397775,6.687525 43.434525,6.704025 C44.879025,7.358025 45.800775,8.219025 46.174275,9.263775 C46.514025,10.213275 46.396275,11.284275 45.822525,12.444525 C45.797025,12.496275 45.765525,12.545025 45.728775,12.589275 C45.549525,12.807525 45.342525,13.012275 45.109275,13.202025 C46.041525,14.032275 46.661025,15.443775 46.043025,17.840775 C47.447025,18.683025 48.568275,20.363775 47.440275,23.712525 C48.673275,24.670275 48.883275,25.753275 48.823275,26.531775 C48.774525,27.331275 48.395775,28.247775 47.669775,29.311275 L58.909275,34.877775 C59.279775,35.061525 59.432025,35.511525 59.248275,35.882775 C59.064525,36.253275 58.616775,36.406275 58.242525,36.221775 L46.541775,30.426525 L31.488525,38.071275 L49.735275,47.597775 C50.102775,47.789025 50.244525,48.242025 50.053275,48.609525 C49.919025,48.865275 49.658025,49.012446 49.387275,49.012446 L49.387275,49.012446 Z" id="Fill-1" fill="#2A3CD4" mask="url(#mask-2)"></path>
        </g>
    </g>
</svg>