<?xml version="1.0" encoding="utf-8"?>
<!-- Generator: Adobe Illustrator 23.0.4, SVG Export Plug-In . SVG Version: 6.00 Build 0)  -->
<svg version="1.1" id="Ebene_1" xmlns="http://www.w3.org/2000/svg" xmlns:xlink="http://www.w3.org/1999/xlink" x="0px" y="0px"
	 viewBox="0 0 80 80" style="enable-background:new 0 0 80 80;" xml:space="preserve">
<style type="text/css">
	.st0{fill:none;stroke:#2A3CD4;stroke-width:1.5;}
	.st1{fill:none;stroke:#2A3CD4;stroke-width:1.5;stroke-linecap:round;}
</style>
<title>icon verein</title>
<desc>Created with Sketch.</desc>
<g id="Produktseite">
	<g id="icon-verein" transform="translate(1.000000, 1.000000)">
		<path id="Path-26" class="st0" d="M12.5,50.3l12.8-4.5c0.6-0.2,1.3-0.3,2-0.2L47,48.5c2.4,0.3,4.2,2.1,4.7,4.5l0,0l-19.3,0.5"/>
		<path id="Path-27" class="st0" d="M11.6,62.9l7-2.5c0.9-0.3,1.8-0.3,2.7-0.1l18.6,5.9c1.3,0.4,2.7,0.2,3.9-0.5
			c8.9-5.6,16.3-11.1,22-16.2c1.5-1.5,0-4.7-3-3.2c-3.4,2-8.6,5.2-15.6,9.6c-2.1,1.3-4.7,1.3-6.8-0.1l-2.4-1.6"/>
		<path id="Path-28" class="st0" d="M47.7,48.6l6.9-3c1.5-0.7,3.2-0.4,4.5,0.7l1.5,1.3"/>
		<path id="Path" class="st0" d="M54.8,17c-0.7-2.1-2.2-3.7-4-4.6c-1.3-0.6-2.7-0.9-4.1-0.9c-3.1,0-6,1.5-7.4,3.8l-0.1,0.3L39,15.4
			c-1.4-2.3-4.3-3.8-7.4-3.8c-1.4,0-2.8,0.3-4.1,0.9c-1.8,0.9-3.3,2.5-4,4.6c-0.9,2.4-0.7,5.2,0.4,7.5c2.5,5.3,14.3,15.7,14.8,16.1
			c0.1,0.1,0.2,0.1,0.4,0.1c0,0,0.1,0,0.1,0c0.1,0,0.3-0.1,0.4-0.2c0.7-0.6,12.3-10.9,14.8-16.1C55.5,22.2,55.7,19.4,54.8,17"/>
		<path class="st1" d="M32,15.3c-2.7,0-5,2.2-5,5l0,0c0,0.8,0.2,1.6,0.6,2.3"/>
	</g>
</g>
</svg>
