<?xml version="1.0" encoding="UTF-8"?>
<svg width="57px" height="57px" viewBox="0 0 57 57" version="1.1" xmlns="http://www.w3.org/2000/svg" xmlns:xlink="http://www.w3.org/1999/xlink">
    <!-- Generator: Sketch 56.3 (81716) - https://sketch.com -->
    <title>icon verein</title>
    <desc>Created with Sketch.</desc>
    <g id="Produktseite" stroke="none" stroke-width="1" fill="none" fill-rule="evenodd">
        <g id="icon-verein" transform="translate(1.000000, 1.000000)" stroke="#2A3CD4" stroke-width="1.5">
            <path d="M0.885117188,38.8011649 L13.690564,34.321242 C14.3242051,34.0995658 15.0017515,34.0330034 15.6664174,34.1271336 L35.4289997,36.9259163 C37.7897637,37.2602484 39.6703183,39.0702626 40.0946191,41.4165263 L40.0946191,41.4165263 L20.7481641,41.9072782" id="Path-26"></path>
            <path d="M1.13686838e-13,51.3888602 L6.96446745,48.8485746 C7.83542277,48.5308941 8.78701459,48.5103094 9.67089281,48.7900296 L28.3154291,54.6904496 C29.6131347,55.10114 31.0259063,54.918675 32.1766883,54.1917584 C41.1140439,48.5462826 48.4525827,43.1308894 54.1923047,37.945579 C55.7368452,36.4197736 54.1923047,33.2632352 51.21375,34.724622 C47.8479855,36.7504691 42.6593095,39.9438518 35.6477221,44.30477 C33.5684745,45.597972 30.9282624,45.5692667 28.8776253,44.2311601 L26.4665625,42.6578641" id="Path-27"></path>
            <path d="M36.0633984,37.0731766 L42.9493843,34.0735371 C44.4515163,33.4191857 46.1970413,33.698103 47.4204646,34.7879708 L48.9152344,36.1195634" id="Path-28"></path>
            <path d="M43.18836,5.4672 C42.44496,3.393 41.02116,1.773 39.18096,0.9066 C37.92456,0.3138 36.51456,1.27897692e-13 35.10276,1.27897692e-13 C31.96956,1.27897692e-13 29.06736,1.5096 27.71076,3.843 L27.56376,4.0932 L27.44316,3.8886 C26.08656,1.5504 23.18436,0.039 20.04996,0.039 C18.63876,0.039 17.22876,0.3522 15.97356,0.9444 C14.13216,1.8108 12.70836,3.4296 11.96436,5.5026 C11.10036,7.9098 11.23476,10.7214 12.32376,13.0236 C14.82636,18.3126 26.66376,28.7088 27.16656,29.1486 C27.27156,29.2404 27.41496,29.2782 27.55596,29.2782 C27.58356,29.2782 27.61056,29.277 27.63756,29.274 C27.77076,29.2608 27.90516,29.19 28.00476,29.0934 C28.70856,28.476 40.34856,18.2214 42.82836,12.9792 C43.91676,10.6812 44.05116,7.8732 43.18836,5.4672" id="Path"></path>
            <path d="M20.4204,3.76008 C17.6706,3.76008 15.4338,5.99748 15.4338,8.74668 L15.4338,8.74668 C15.4338,9.55608 15.6324,10.36008 16.008,11.07108" id="Path" stroke-linecap="round"></path>
        </g>
    </g>
</svg>