<?xml version="1.0" encoding="utf-8"?>
<!-- Generator: Adobe Illustrator 23.0.6, SVG Export Plug-In . SVG Version: 6.00 Build 0)  -->
<svg version="1.1" id="Ebene_1" xmlns="http://www.w3.org/2000/svg" xmlns:xlink="http://www.w3.org/1999/xlink" x="0px" y="0px"
	 viewBox="0 0 80 80" style="enable-background:new 0 0 80 80;" xml:space="preserve">
<style type="text/css">
	.st0{fill:none;stroke:#FFFFFF;stroke-width:1.5;}
	.st1{fill:none;stroke:#FFFFFF;stroke-width:1.5;stroke-linecap:round;}
</style>
<title>icon kommune</title>
<desc>Created with Sketch.</desc>
<g id="Produktseite">
	<g id="icon-kommune" transform="translate(1.000000, 1.000000)">
		<g id="Group-3" transform="translate(0.000000, 0.033187)">
			<path id="Path" class="st0" d="M47.9,51.9c0.7-2.9,3.2-6.6,4.2-7.8l0,0c0-0.1,0.1-0.2,0.2-0.3l0.1-0.1c3.6-4.4,5.7-10,5.7-15.2
				c0-10.3-8.6-18.7-19.1-18.7s-19.1,8.4-19.1,18.7l0,0c0,5.3,2.2,11,5.9,15.4l0.1,0.2c1.4,1.8,3.6,5.2,4.2,7.8"/>
		</g>
		<path id="Path-10" class="st1" d="M30.6,56.1h16.8"/>
		<path class="st1" d="M30.6,60.1h16.8"/>
		<path class="st1" d="M30.6,64.1h16.8"/>
		<path id="Path-18" class="st1" d="M33.8,68.2h9.7"/>
		<polyline id="Path-19" class="st0" points="34,51.7 34,18.7 45.6,23.4 45.6,30.8 		"/>
		<polyline id="Path-20" class="st0" points="26.9,45.7 26.9,36.8 34,33.3 		"/>
		<polyline id="Path-21" class="st0" points="42,51.7 42,32.7 51.1,32.7 51.1,45.7 		"/>
		<path id="Path-22" class="st0" d="M45.6,37.4h2"/>
		<path class="st0" d="M45.6,41.1h2"/>
		<path class="st0" d="M45.6,44.9h2"/>
		<path class="st0" d="M30.6,39.6h2"/>
		<path class="st0" d="M30.6,44.1h2"/>
	</g>
</g>
</svg>
