<?xml version="1.0" encoding="UTF-8"?>
<svg width="40px" height="61px" viewBox="0 0 40 61" version="1.1" xmlns="http://www.w3.org/2000/svg" xmlns:xlink="http://www.w3.org/1999/xlink">
    <!-- Generator: Sketch 56.3 (81716) - https://sketch.com -->
    <title>icon kommune</title>
    <desc>Created with Sketch.</desc>
    <g id="Produktseite" stroke="none" stroke-width="1" fill="none" fill-rule="evenodd">
        <g id="icon-kommune" transform="translate(1.000000, 1.000000)" stroke="#2A3CD4" stroke-width="1.5">
            <g id="Group-3" transform="translate(0.000000, 0.033187)">
                <path d="M27.9416437,42.2044125 C28.6125812,39.271225 31.1831437,35.5936625 32.1699562,34.3789125 L32.1792062,34.36735 C32.2191437,34.3162875 32.3084562,34.1971625 32.3752687,34.0714125 L32.4472062,33.956225 C36.0365187,29.5777875 38.1781437,23.9066 38.1781437,18.7751 C38.1781437,8.4391 29.6149562,0.0297875 19.0886437,0.02935 C8.56308125,0.02935 1.875e-05,8.4384125 1.875e-05,18.7746 L1.875e-05,18.7746 C1.875e-05,24.030475 2.21158125,29.7865375 5.91664375,34.175975 L6.06201875,34.365475 C7.45964375,36.1450375 9.68333125,39.5211 10.2985187,42.2044125" id="Path"></path>
            </g>
            <path d="M10.7109375,46.4118652 L27.4665527,46.4118652" id="Path-10" stroke-linecap="round"></path>
            <path d="M10.7109375,50.4118652 L27.4665527,50.4118652" id="Path-10" stroke-linecap="round"></path>
            <path d="M10.7109375,54.4118652 L27.4665527,54.4118652" id="Path-10" stroke-linecap="round"></path>
            <path d="M13.916748,58.5507812 L23.6379395,58.5507812" id="Path-18" stroke-linecap="round"></path>
            <polyline id="Path-19" points="14.1010742 41.9711914 14.1010742 9 25.6894531 13.6606445 25.6894531 21.0961914"></polyline>
            <polyline id="Path-20" points="7 35.9711914 7 27.1171875 14.1010742 23.6552734"></polyline>
            <polyline id="Path-21" points="22.109375 41.9711914 22.109375 23.0058594 31.159668 23.0058594 31.159668 35.9711914"></polyline>
            <path d="M25.6894531,27.6953125 L27.7109375,27.6953125" id="Path-22"></path>
            <path d="M25.6894531,31.4453125 L27.7109375,31.4453125" id="Path-22"></path>
            <path d="M25.6894531,35.1953125 L27.7109375,35.1953125" id="Path-22"></path>
            <path d="M10.6894531,29.9453125 L12.7109375,29.9453125" id="Path-22"></path>
            <path d="M10.6894531,34.4453125 L12.7109375,34.4453125" id="Path-22"></path>
        </g>
    </g>
</svg>