<?xml version="1.0" encoding="utf-8"?>
<!-- Generator: Adobe Illustrator 23.0.4, SVG Export Plug-In . SVG Version: 6.00 Build 0)  -->
<svg version="1.1" id="Ebene_1" xmlns="http://www.w3.org/2000/svg" xmlns:xlink="http://www.w3.org/1999/xlink" x="0px" y="0px"
	 viewBox="0 0 80 80" style="enable-background:new 0 0 80 80;" xml:space="preserve">
<style type="text/css">
	.st0{filter:url(#Adobe_OpacityMaskFilter);}
	.st1{fill-rule:evenodd;clip-rule:evenodd;fill:#FFFFFF;}
	.st2{mask:url(#mask-2_1_);fill-rule:evenodd;clip-rule:evenodd;fill:#2A3CD4;}
</style>
<title>icon ngo</title>
<desc>Created with Sketch.</desc>
<g id="Produktseite">
	<g id="icon-ngo">
		<g id="Clip-2">
		</g>
		<defs>
			<filter id="Adobe_OpacityMaskFilter" filterUnits="userSpaceOnUse" x="10.3" y="15.5" width="59.3" height="49">
				<feColorMatrix  type="matrix" values="1 0 0 0 0  0 1 0 0 0  0 0 1 0 0  0 0 0 1 0"/>
			</filter>
		</defs>
		<mask maskUnits="userSpaceOnUse" x="10.3" y="15.5" width="59.3" height="49" id="mask-2_1_">
			<g class="st0">
				<polygon id="path-1_1_" class="st1" points="10.3,15.5 69.7,15.5 69.7,64.5 10.3,64.5 				"/>
			</g>
		</mask>
		<path id="Fill-1" class="st2" d="M37.6,21.6c0.6,0.1,1.4,0.2,2.4,0.2c1.7,0.1,2.6,0.1,2.8,0.1c0.2,0,0.4,0.1,0.6,0.2
			c0.1,0.2,0.2,0.4,0.2,0.6l-0.1,1.4l6-1.4l-1.9-5.5c-0.8,0.2-2.3,0.4-5.3,1h0c0,0,0,0,0,0c0,0,0,0,0,0c0,0,0,0,0,0
			c-1.4,0.2-3.7,0.7-6.9,1.3C35.7,20.3,36.5,21,37.6,21.6L37.6,21.6z M23.3,26.6l10.7,3.8c0.9-0.6,1.5-1.2,1.7-1.9
			c0.2-0.7,0-1.5-0.5-2.3l-6.3-2.5l0,0c0,0,0,0,0,0L27.3,23l-1.9-0.7c-0.9,0.3-1.6,0.8-2,1.5C23.1,24.5,23,25.5,23.3,26.6L23.3,26.6
			z M22.4,32.3c3.5,1.5,7.3,2.6,11.1,3.4c0.8-0.8,1.4-1.9,0.1-3.9l-10.7-3.8C21.1,30,21.7,31.4,22.4,32.3L22.4,32.3z M22.4,38.6
			c2,0.9,3.3,1.5,4,1.7c1.3,0.4,2.9,0.7,4.6,0.8c0.9-0.5,1.6-1.1,2-1.7c0.5-0.7,0.5-1.4,0.2-2.2c-3.9-0.8-7.6-2-11.2-3.4
			c-0.9,0.8-1.2,2.1-0.8,4L22.4,38.6z M21.9,44c2.4,0.8,5,1,7.7,0.6c0.9-0.9,1.1-1.5,1.1-2c-1.8-0.1-3.3-0.4-4.7-0.9
			c-0.7-0.2-2-0.8-3.9-1.6c-0.9,0.6-1.6,1.6-0.5,3.8C21.6,43.9,21.7,43.9,21.9,44L21.9,44z M59.7,64.5c-0.1,0-0.2,0-0.3-0.1
			l-19.2-10l-17.4,10c-0.4,0.2-0.8,0.1-1-0.3c-0.2-0.4-0.1-0.8,0.3-1l17.8-10.2c0,0,0.1,0,0.1,0l16.5-8.4c1-1.3,1.3-2.1,1.3-2.6
			c0-0.4,0-1-0.8-1.6l-2.4,1.2c-0.4,0.2-0.8,0-1-0.3c-0.2-0.4,0-0.8,0.3-1l2.5-1.3c1-2.9,0.1-3.9-0.8-4.4l-3.8,1.7
			c-0.4,0.2-0.8,0-1-0.4c-0.2-0.4,0-0.8,0.4-1l3.8-1.7c0.7-2.3-0.1-3.2-0.9-3.7l-6.2,2.1c-0.4,0.1-0.8-0.1-1-0.5
			c-0.1-0.4,0.1-0.8,0.5-1l6.5-2.2c0.5-0.2,0.8-0.5,1.1-0.8c0.4-0.8,0.4-1.4,0.2-1.9c-0.2-0.6-0.9-1.2-1.9-1.7
			c-0.4-0.1-1.1-0.1-2.6,0.3c0,0,0,0,0,0c0,0,0,0,0,0l-7.8,1.8c0,0-0.1,0-0.1,0l-2.4,0.4c-0.4,0.1-0.8-0.2-0.9-0.6
			c-0.1-0.4,0.2-0.8,0.6-0.9l1.9-0.3l0.1-1.1c-0.5,0-1.1,0-2-0.1c-1.1,0-2-0.1-2.7-0.2c-0.1,0-0.1,0-0.2-0.1
			c-1.9-0.9-3.1-2.1-3.6-3.8c-0.1-0.2,0-0.4,0.1-0.6c0.1-0.2,0.3-0.3,0.5-0.3c1.1-0.2,2.1-0.4,3.1-0.6l-4.4-0.5l-2.7,5.5l5.8,2.3
			c0.1,0.1,0.2,0.1,0.3,0.2c0.9,1.3,1.2,2.5,0.9,3.8c-0.3,0.9-0.9,1.8-2,2.5c1.4,2.4,0.7,4.2-0.5,5.3c0.5,1.2,0.3,2.4-0.3,3.5
			c-0.5,0.8-1.2,1.5-2.2,2c0.1,1-0.1,2.2-1.7,3.6C30.3,45.9,30.1,46,30,46c-2.9,0.5-5.6,0.4-8.3-0.5l-10.2,5.8
			c-0.4,0.2-0.8,0.1-1-0.3c-0.2-0.4-0.1-0.8,0.3-1l9.5-5.4c-1.4-2.8-0.6-4.4,0.4-5.4l-0.5-0.4c-0.2-0.1-0.3-0.3-0.3-0.5
			c-0.5-2.5-0.2-4.4,1.1-5.6c-0.9-1.4-1.3-3.4,0.9-5.8c-0.4-1.5-0.3-2.8,0.3-3.9c0.6-1.2,1.7-1.9,3.1-2.3c0.2,0,0.3,0,0.5,0l3,1.2
			l3-6.1c0.1-0.3,0.4-0.5,0.8-0.4l9.6,1.1c4.5-0.8,5.5-1,5.7-1c0.2-0.1,0.3-0.1,0.5,0c0.2,0.1,0.4,0.2,0.5,0.5l2.1,6.2
			c1.2-0.3,2.1-0.3,2.7-0.2c0,0,0.1,0,0.1,0c1.4,0.7,2.4,1.5,2.7,2.6c0.3,0.9,0.2,2-0.4,3.2c0,0.1-0.1,0.1-0.1,0.1
			c-0.2,0.2-0.4,0.4-0.6,0.6c0.9,0.8,1.6,2.2,0.9,4.6c1.4,0.8,2.5,2.5,1.4,5.9c1.2,1,1.4,2,1.4,2.8c0,0.8-0.4,1.7-1.2,2.8l11.2,5.6
			c0.4,0.2,0.5,0.6,0.3,1c-0.2,0.4-0.6,0.5-1,0.3l-11.7-5.8l-15.1,7.6l18.2,9.5c0.4,0.2,0.5,0.6,0.3,1C60.3,64.4,60,64.5,59.7,64.5
			L59.7,64.5z"/>
	</g>
</g>
</svg>
