<?xml version="1.0" encoding="UTF-8"?>
<svg width="58px" height="47px" viewBox="0 0 58 47" version="1.1" xmlns="http://www.w3.org/2000/svg" xmlns:xlink="http://www.w3.org/1999/xlink">
    <!-- Generator: Sketch 56.3 (81716) - https://sketch.com -->
    <title>icon politiker</title>
    <desc>Created with Sketch.</desc>
    <g id="Produktseite" stroke="none" stroke-width="1" fill="none" fill-rule="evenodd">
        <g id="icon-politiker" transform="translate(-4.000000, 1.000000)" stroke="#2A3CD4" stroke-width="1.5">
            <g id="Group-12" transform="translate(0.000000, 17.912354)">
                <path d="M59.2735361,14.474944 C57.5679231,19.6591423 55.4808576,22.7810689 53.0123397,23.840724 C52.1472358,24.2120852 49.3990244,25.369873 46.5318536,24.1754992 C36.6872391,21.2914086 29.8689616,7.47597453 20.0077286,4.6313012 C16.4381021,3.55908203 13.7121976,4.62407108 12.5597937,5.09110752 C1.9461282,9.39252329 3.23889768,24.90773 16.4381021,26.7854004 C16.4381021,26.7854004 21.8179697,27.553744 25.1636728,23.0876465" id="Path-23"></path>
            </g>
            <polyline id="Shape" points="38.6700205 12.9220475 22.1861338 36.4815725 29.5079111 42.2724609 49.3990244 22.0307617"></polyline>
            <circle id="Oval" cx="49.3926767" cy="11" r="11"></circle>
            <path d="M43.9012867,1.63220491 C43.3214057,2.97111476 43,4.44802322 43,6 C43,12.0751322 47.9248678,17 54,17 L54,17 C55.999734,17 57.8748358,16.4663855 59.4906817,15.5337801" id="Path"></path>
        </g>
    </g>
</svg>