<?xml version="1.0" encoding="utf-8"?>
<!-- Generator: Adobe Illustrator 23.0.4, SVG Export Plug-In . SVG Version: 6.00 Build 0)  -->
<svg version="1.1" id="Ebene_1" xmlns="http://www.w3.org/2000/svg" xmlns:xlink="http://www.w3.org/1999/xlink" x="0px" y="0px"
	 viewBox="0 0 80 80" style="enable-background:new 0 0 80 80;" xml:space="preserve">
<style type="text/css">
	.st0{fill:none;stroke:#2A3CD4;stroke-width:1.5;}
</style>
<title>icon bürgerrat</title>
<desc>Created with Sketch.</desc>
<g id="Produktseite">
	<g id="icon-bürgerrat" transform="translate(1.000000, 1.000000)">
		<path id="Path-9" class="st0" d="M5.9,33.8v10.9H3.6c-1.4,0-2.5-1.1-2.5-2.5v-5.9c0-1.4,1.1-2.5,2.5-2.5H5.9z"/>
		<polyline id="Path" class="st0" points="61.6,59.2 5.9,44.7 5.9,33.8 5.9,33.8 61.6,18.7 		"/>
		<path id="Path-11" class="st0" d="M9.9,45.9l-0.3,0.8c-0.9,2.6,0.5,5.5,3.1,6.3c0,0,0,0,0,0l7.9,2.6c2.6,0.9,5.4-0.5,6.3-3.1
			l0.7-2.1"/>
		<path id="Path-12" class="st0" d="M13.2,46.8L13,47.4c-0.4,1.3,0.3,2.7,1.6,3.1l6.3,2c1.3,0.4,2.7-0.3,3.1-1.6l0.4-1.2"/>
		<path id="Path-13" class="st0" d="M19.7,34.9l9.4-2.4"/>
		<path id="Path-14" class="st0" d="M39.3,29.5l15.6-4.3"/>
		<path id="Path-15" class="st0" d="M67.9,24.1l7.6-1.5"/>
		<path id="Path-16" class="st0" d="M68.8,38.2h8.1"/>
		<path id="Path-17" class="st0" d="M67.9,51.6l7.6,1.7"/>
		<ellipse id="Oval" class="st0" cx="61.6" cy="39" rx="4.2" ry="20.2"/>
	</g>
</g>
</svg>
