<svg width="56" height="56" viewBox="0 0 56 56" fill="none" xmlns="http://www.w3.org/2000/svg">
  <path d="M4.82973 24.3601V31.9901H3.21973C2.23973 31.9901 1.46973 31.2201 1.46973 30.2401V26.1101C1.46973 25.1301 2.23973 24.3601 3.21973 24.3601H4.82973Z" stroke="white" stroke-width="1.05"/>
  <path d="M43.8201 42.14L4.83008 31.99V24.36L43.8201 13.79" stroke="white" stroke-width="1.05"/>
  <path d="M7.62962 32.8301L7.41962 33.3901C6.78962 35.2101 7.76962 37.2401 9.58962 37.8001L15.1196 39.6201C16.9396 40.2501 18.8996 39.2701 19.5296 37.4501L20.0196 35.9801" stroke="white" stroke-width="1.05"/>
  <path d="M9.93931 33.46L9.79931 33.88C9.51931 34.79 10.0093 35.77 10.9193 36.05L15.3293 37.45C16.2393 37.73 17.2193 37.24 17.4993 36.33L17.7793 35.49" stroke="white" stroke-width="1.05"/>
  <path d="M14.4902 25.13L21.0702 23.45" stroke="white" stroke-width="1.05"/>
  <path d="M28.21 21.3501L39.13 18.3401" stroke="white" stroke-width="1.05"/>
  <path d="M48.2295 17.57L53.5495 16.52" stroke="white" stroke-width="1.05"/>
  <path d="M48.8594 27.4399H54.5294" stroke="white" stroke-width="1.05"/>
  <path d="M48.2295 36.8201L53.5495 38.0101" stroke="white" stroke-width="1.05"/>
  <path d="M43.8199 42.1401C45.4436 42.1401 46.7599 35.8094 46.7599 28.0001C46.7599 20.1908 45.4436 13.8601 43.8199 13.8601C42.1962 13.8601 40.8799 20.1908 40.8799 28.0001C40.8799 35.8094 42.1962 42.1401 43.8199 42.1401Z" stroke="white" stroke-width="1.05"/>
</svg>
