<?xml version="1.0" encoding="utf-8"?>
<!-- Generator: Adobe Illustrator 23.0.4, SVG Export Plug-In . SVG Version: 6.00 Build 0)  -->
<svg version="1.1" id="Ebene_1" xmlns="http://www.w3.org/2000/svg" xmlns:xlink="http://www.w3.org/1999/xlink" x="0px" y="0px"
	 viewBox="0 0 80 80" style="enable-background:new 0 0 80 80;" xml:space="preserve">
<style type="text/css">
	.st0{display:none;}
	.st1{display:inline;fill:none;stroke:#2A3CD4;stroke-width:1.5;}
	.st2{fill:none;stroke:#2A3CD4;stroke-width:1.5;}
</style>
<g id="Produktseite">
	<g id="icon-politiker" transform="translate(-4.000000, 1.000000)">
		<g id="Group-12" transform="translate(0.000000, 17.912354)" class="st0">
			<path id="Path-23" class="st1" d="M70.3,31.1c-1.7,5.2-3.8,8.3-6.3,9.4c-0.9,0.4-3.6,1.5-6.5,0.3c-9.8-2.9-16.7-16.7-26.5-19.5
				c-3.6-1.1-6.3,0-7.4,0.5C13,26,14.3,41.5,27.5,43.4c0,0,5.4,0.8,8.7-3.7"/>
		</g>
		<path id="Path-23_3_" class="st2" d="M70.3,49c-1.7,5.2-3.8,8.3-6.3,9.4c-0.9,0.4-3.6,1.5-6.5,0.3c-3.7-1.1-6.9-3.7-10.1-6.7"/>
		<path id="Path-23_2_" class="st2" d="M39.6,44.4c-2.7-2.4-5.4-4.3-8.5-5.2c-3.6-1.1-6.3,0-7.4,0.5c-10.6,4.3-9.3,19.8,3.9,21.7
			c0,0,5.4,0.8,8.7-3.7"/>
		<polyline id="Shape" class="st2" points="49.7,29.5 33.3,53.1 40.6,58.9 60.5,38.7 		"/>
		<circle id="Oval" class="st2" cx="60.5" cy="27.6" r="11"/>
		<path id="Path" class="st2" d="M55,18.3c-0.6,1.3-0.9,2.8-0.9,4.4c0,6.1,4.9,11,11,11l0,0c2,0,3.9-0.5,5.5-1.5"/>
	</g>
</g>
</svg>
