<?xml version="1.0" encoding="UTF-8"?>
<svg width="40px" height="40px" viewBox="0 0 40 40" version="1.1" xmlns="http://www.w3.org/2000/svg" xmlns:xlink="http://www.w3.org/1999/xlink">
    <!-- Generator: Sketch 63 (92445) - https://sketch.com -->
    <title>avatar1-40px</title>
    <desc>Created with Sketch.</desc>
    <defs>
        <circle id="path-1" cx="20" cy="20" r="20"></circle>
    </defs>
    <g id="Deutscher-Bundestag---Wireframe" stroke="none" stroke-width="1" fill="none" fill-rule="evenodd">
        <g id="New-Use-Icons" transform="translate(-98.000000, -245.000000)">
            <g id="avatar1-40px" transform="translate(98.000000, 245.000000)">
                <g id="Group-5">
                    <mask id="mask-2" fill="white">
                        <use xlink:href="#path-1"></use>
                    </mask>
                    <use id="Mask" fill="#D6FCF9" xlink:href="#path-1"></use>
                    <circle id="Oval" stroke="#2A3CD4" mask="url(#mask-2)" cx="20" cy="12" r="5.5"></circle>
                    <path d="M20,20.5 C17.3760651,20.5 15.0003154,21.5524925 13.2806954,23.2548295 C11.5629126,24.9553477 10.5,27.3044691 10.5,29.8994949 C10.5,30.3853302 10.7083204,30.8117739 11.0594004,31.1868705 C11.4966242,31.6540038 12.1443287,32.0414076 12.9283814,32.3629088 C14.7879753,33.1254362 17.3949371,33.5 20,33.5 C22.6050629,33.5 25.2120247,33.1254362 27.0716186,32.3629088 C27.8556713,32.0414076 28.5033758,31.6540038 28.9405996,31.1868705 C29.2916796,30.8117739 29.5,30.3853302 29.5,29.8994949 C29.5,27.3044691 28.4370874,24.9553477 26.7193046,23.2548295 C24.9996846,21.5524925 22.6239349,20.5 20,20.5 Z" id="Oval-Copy-36" stroke="#2A3CD4" mask="url(#mask-2)"></path>
                </g>
            </g>
        </g>
    </g>
</svg>