<?xml version="1.0" encoding="utf-8"?>
<!-- Generator: Adobe Illustrator 25.2.1, SVG Export Plug-In . SVG Version: 6.00 Build 0)  -->
<svg version="1.1" id="Layer_1" xmlns="http://www.w3.org/2000/svg" xmlns:xlink="http://www.w3.org/1999/xlink" x="0px" y="0px"
	 viewBox="0 0 40 40" style="enable-background:new 0 0 40 40;" xml:space="preserve">
<style type="text/css">
	.st0{fill-rule:evenodd;clip-rule:evenodd;fill:none;stroke:#D9042B;}
	.st1{fill:none;stroke:#D9042B;}
</style>
<desc>Created with Sketch.</desc>
<circle id="path-1_1_" class="st0" cx="20" cy="20" r="20"/>
<circle id="Oval" class="st1" cx="20" cy="12" r="5.5"/>
<path id="Oval-Copy-36" class="st1" d="M20,20.5c-2.6,0-5,1.1-6.7,2.8c-1.7,1.7-2.8,4-2.8,6.6c0,0.5,0.2,0.9,0.6,1.3
	c0.4,0.5,1.1,0.9,1.9,1.2c1.9,0.8,4.5,1.1,7.1,1.1s5.2-0.4,7.1-1.1c0.8-0.3,1.4-0.7,1.9-1.2c0.4-0.4,0.6-0.8,0.6-1.3
	c0-2.6-1.1-4.9-2.8-6.6C25,21.6,22.6,20.5,20,20.5z"/>
</svg>
