<?xml version="1.0" encoding="UTF-8"?>
<svg width="40px" height="40px" viewBox="0 0 40 40" version="1.1" xmlns="http://www.w3.org/2000/svg" xmlns:xlink="http://www.w3.org/1999/xlink">
    <!-- Generator: Sketch 62 (91390) - https://sketch.com -->
    <title>avatar2-40px</title>
    <desc>Created with Sketch.</desc>
    <defs>
        <circle id="path-1" cx="20" cy="20" r="20"></circle>
    </defs>
    <g id="Deutscher-Bundestag---Wireframe" stroke="none" stroke-width="1" fill="none" fill-rule="evenodd">
        <g id="New-Use-Icons" transform="translate(-146.000000, -245.000000)">
            <g id="avatar2-40px" transform="translate(146.000000, 245.000000)">
                <mask id="mask-2" fill="white">
                    <use xlink:href="#path-1"></use>
                </mask>
                <use id="Mask" fill="#A3EF90" opacity="0.2523484" xlink:href="#path-1"></use>
                <circle id="Oval" stroke="#2A3CD4" mask="url(#mask-2)" cx="20" cy="12" r="5.5"></circle>
                <path d="M13.2806954,23.2548295 C15.0003154,21.5524925 17.3760651,20.5 20,20.5 C22.6239349,20.5 24.9996846,21.5524925 26.7193046,23.2548295 C28.4370874,24.9553477 29.5,27.3044691 29.5,29.8994949 C29.5,30.3853302 29.2916796,30.8117739 28.9405996,31.1868705 C28.5033758,31.6540038 27.8556713,32.0414076 27.0716186,32.3629088 C25.2120247,33.1254362 22.6050629,33.5 20,33.5 C17.3949371,33.5 14.7879753,33.1254362 12.9283814,32.3629088 C12.1443287,32.0414076 11.4966242,31.6540038 11.0594004,31.1868705 C10.7083204,30.8117739 10.5,30.3853302 10.5,29.8994949 C10.5,27.3044691 11.5629126,24.9553477 13.2806954,23.2548295 Z" id="Oval-Copy-36" stroke="#2A3CD4" mask="url(#mask-2)"></path>
            </g>
        </g>
    </g>
</svg>