<svg xmlns="http://www.w3.org/2000/svg" id="Layer_1" viewBox="0 0 64 60.64"><path d="M32.18,7.29c.55,0,1-.45,1-1V1c0-.55-.45-1-1-1s-1,.45-1,1v5.29c0,.55.45,1,1,1Z"/><path d="M36.86,7.29c.24,0,.48-.09.67-.26l2.58-2.34c.41-.37.44-1,.07-1.41-.37-.41-1-.44-1.41-.07l-2.58,2.34c-.41.37-.44,1-.07,1.41.2.22.47.33.74.33Z"/><path d="M26.79,6.61c.2.21.46.31.73.31.25,0,.5-.09.69-.27.4-.38.42-1.01.04-1.41l-2.34-2.46c-.38-.4-1.01-.41-1.41-.04-.4.38-.42,1.01-.04,1.41l2.34,2.46Z"/><path d="M32.43,15.98c-4.55,0-8.25,3.7-8.25,8.25,0,.55.45,1,1,1s1-.45,1-1c0-3.45,2.81-6.25,6.25-6.25.55,0,1-.45,1-1s-.45-1-1-1Z"/><path d="M63.5,37.94l-.02-.02c-2.22-3.13-4.61-7.09-4.61-8.03,0-1.85-1.11-8.87-2.45-11.41-1.36-2.58-4-5.04-7.06-6.57-4.14-2.13-8.68-3.25-17.36-1.75-8.68-1.49-13.23-.38-17.35,1.75-3.07,1.54-5.72,3.99-7.08,6.58-1.34,2.54-2.45,9.56-2.45,11.41,0,.94-2.39,4.9-4.63,8.05-.16.24-.66,1.08-.44,1.92.12.44.41.79.83,1,.58.29,1.49.43,2.37.57.17.03.35.05.51.08-.06.05-.12.09-.17.13-.67.52-1.3,1-1.3,1.76,0,.84.78,1.26,1.52,1.61-.48.53-.93,1.12-.75,1.83.21.86,1.31,1.36,2.09,1.59.03.37.01.96-.2,1.48-.23.59-.22,1.18.05,1.72.42.85,1.46,1.51,3.07,1.95,1.48.4,6.31.62,7.85.65.14.19.34.55.47.86l.06.12s1.24,2.11,1.86,3.1c.92,1.47,2.26,2.31,3.68,2.31.07,0,7.02-.1,10.02-2.19,3,2.09,9.95,2.19,10.02,2.19,1.42,0,2.76-.84,3.67-2.31.62-.99,1.86-3.1,1.86-3.1l.06-.12c.13-.31.33-.67.47-.86,1.54-.03,6.37-.24,7.85-.65,1.61-.44,2.64-1.1,3.07-1.95.27-.54.29-1.14.05-1.72-.21-.53-.23-1.12-.2-1.48.77-.23,1.87-.73,2.08-1.59.18-.71-.28-1.3-.75-1.83.74-.35,1.52-.76,1.52-1.61,0-.76-.63-1.25-1.3-1.76-.05-.04-.11-.08-.17-.13.17-.03.34-.05.51-.08.88-.14,1.79-.28,2.37-.57.42-.21.71-.56.83-1,.22-.84-.28-1.69-.44-1.92ZM32.06,56.3c-2.63,0-4.78-2.14-4.78-4.78,0-1.22.54-2.45,1.49-3.43h6.6c.1.08.19.16.28.23.81.66,1.18.96,1.18,3.2,0,2.63-2.14,4.78-4.78,4.78ZM36.49,46.1h-8.11c-.83,0-1.34-.1-1.34-2.07,0-2.14-.31-5.07-2.75-8.78-2.14-3.26-3.65-5.87-3.65-9.78v-1.23c0-5.87,3.64-11.79,11.79-11.79s11.79,5.92,11.79,11.79v1.23c0,3.91-1.51,6.52-3.65,9.78-2.43,3.71-2.75,6.64-2.75,8.78,0,1.97-.51,2.07-1.34,2.07ZM20,57.27c-.55-.88-1.6-2.65-1.8-2.99-.57-1.34-1.24-2.03-2-2.03-1.5,0-6.45-.26-7.6-.58-1.32-.36-1.79-.81-1.79-1,.53-1.32.42-2.94,0-3.57-.22-.32-.56-.5-.83-.5-.14-.02-.43-.12-.67-.23.06-.07.12-.13.17-.18.43-.46.8-.87.8-1.42,0-.81-.74-1.15-1.45-1.49-.01,0-.02,0-.03-.02.01-.01.03-.02.04-.03.45-.35.92-.71,1.18-1.15.47-.78.22-1.39.09-1.62-.27-.48-.75-.7-1.14-.75-.39-.1-.87-.18-1.38-.26-.47-.07-1.08-.17-1.48-.28.02-.04.04-.08.06-.11,1.17-1.65,4.98-7.18,4.98-9.18,0-1.7,1.08-8.31,2.22-10.48,1.17-2.22,3.49-4.36,6.21-5.72,2.99-1.54,6.09-2.46,11.07-2.17-4.93,1.99-7.98,6.6-7.98,12.71v1.23c0,4.45,1.72,7.44,3.97,10.87,2.13,3.25,2.42,5.71,2.42,7.69,0,.77,0,2.76,1.52,3.64-.82,1.16-1.27,2.51-1.27,3.86,0,2.67,1.56,4.98,3.81,6.08-2.39.76-5.83,1.03-7.11,1.03-1.01,0-1.72-.96-1.98-1.37ZM60.44,39.46c-.51.08-1,.16-1.38.26-.39.05-.87.26-1.14.75-.13.23-.38.84.09,1.62.26.44.73.8,1.18,1.15l.04.03s-.02.01-.03.02c-.72.33-1.46.68-1.46,1.49,0,.55.37.95.8,1.42.05.05.11.12.17.18-.24.11-.49.21-.58.23-.37,0-.7.18-.92.51-.43.63-.54,2.25.01,3.64-.02.12-.49.57-1.81.93-1.16.32-6.1.58-7.6.58-.76,0-1.43.68-2,2.03-.2.34-1.25,2.11-1.8,2.99-.26.41-.97,1.37-1.98,1.37-1.27,0-4.64-.27-7.04-1.01,2.28-1.09,3.86-3.42,3.86-6.11,0-1.94-.31-2.95-.86-3.69,1.84-.77,1.85-2.98,1.85-3.8,0-1.98.29-4.44,2.42-7.69,2.25-3.44,3.97-6.42,3.97-10.87v-1.23c0-6.14-3.08-10.78-8.06-12.75,4.53-.16,7.46.75,10.3,2.21,2.71,1.36,5.03,3.49,6.2,5.72,1.14,2.17,2.22,8.77,2.22,10.48,0,2,3.78,7.5,4.96,9.17.02.04.05.08.07.13-.4.11-1,.2-1.47.28Z"/></svg>