<?xml version="1.0" encoding="UTF-8"?>
<svg xmlns="http://www.w3.org/2000/svg" version="1.1" viewBox="0 0 800 628">
  <!-- Generator: Adobe Illustrator 30.2.1, SVG Export Plug-In . SVG Version: 2.1.1 Build 1)  -->
  <defs>
    <style>
      .st0 {
        fill: none;
      }

      .st0, .st1 {
        stroke: #878b8c;
        stroke-miterlimit: 10;
        stroke-width: .2px;
      }

      .st2 {
        fill: #1a64cb;
      }

      .st1 {
        fill: #e5e5e5;
      }
    </style>
  </defs>
  <g id="Map">
    <polygon class="st1" points="238 24.9 235.2 28.6 238.2 33 240.3 30 239.4 24.9 239.1 23.8 238 24.9"/>
    <polygon class="st1" points="240.5 24.2 240.4 24.5 244.7 27.5 248.5 27.5 249.1 24.5 249 22.8 246.5 22 241.9 22 240.5 24.2"/>
    <polygon class="st1" points="253.3 38.9 252.4 44.8 247 42.9 247 40.3 253.3 38.9"/>
    <polygon class="st1" points="214.8 65.1 218.5 63.3 220.8 65.5 219.7 71.8 214.8 65.1"/>
    <polygon class="st1" points="243.1 79.3 239.2 85.6 242.7 87.4 245.8 80.6 243.1 79.3"/>
    <polygon class="st1" points="172.5 103.7 174.2 102.2 177.6 103.3 176.5 110.3 173.8 107.7 172.5 103.7"/>
    <polygon class="st1" points="170 106.8 171.7 113.5 166 112.3 165.1 109.9 170 106.8"/>
    <polygon class="st1" points="353.9 41.7 352.4 43.4 352.4 47.6 356.8 50.5 362.9 50.3 360.3 43.4 353.9 41.7"/>
    <path class="st1" d="M256.1,28l3.7,9.3,1,11.2-7.9,8.3,6.4,4.3-.8,7.4,5.4,6.8-5.2,3.4,8.4,10.4h7.3l3.1.9-10.9,2.4-9.5-.2-4.6-3.9-6.5,7.4-.7,13.5,1.5,5.5-11.3-5.3-1.9,4,2.3,6.5-4.4,3.3-5.8-7,4.1-2.1-2.7-7.4-4.1-4.6-7.9-.3-11.1,2.3-11.9-1.9-6.8,8.5-4.9,16.1,2,1.6,9.4.8-2.4,5.9.3,3-.6,6.1-.2,9.6-4.6,10.2-3.6,14-12.6.8-.6,9.9,13.3,3.4,2.4,13.8-12.9,8.6-1.2,4.7,2,7.9-16,7.5-10.2-5.1-6.9,4.9-2.3,5.7,10.3,15.8,1.3,10.5-6.6,8.4,4.3,4-12.6,10.4,8.8,8.1-2.8,10.7,8,8.1-.8,4.4v3.2c.1,0,5.4,1.5,5.4,1.5l3.9,11.7-1.8.5-7.7,6.1-2.1,6.2,1.8,11.1,8,7.4,4.7,2,.4,6.6-5.1,11.9v5.2s8.3,2.7,8.3,2.7l7,13.1,2.6,3.9,6-3.6,7.5,3.9,6.2,2.4,5.2-2.8,4.8.3,6.6,6.8,11.8.6,6.8,2.9,7.1,2.1-11.8,16.2-5.8,7-6.1,22.6-4.5,8.7,1.1,9.8-2.3,14.3-1.2,4.9,3,4.9-1.5,1.5-1.8,4-5.6,4.5h-6.7c0,.1-3.9-4.6-3.9-4.6l-8.2,4.4v3.7c0,0,3.6,2.7,3.6,2.7l-7,10.4-16.9,14.5v5.3c0,0-2.2,6-2.2,6l-11.7,12.2-3.2,8.7,3.5,2.7-.7,3.4-7.4,11.5,12-4.1-.6-7.1,12-8.6,13.7,1.4-.3,16.7,9.8,14.4,4.6,3.6,18.3-6.5,12,3.3,11.6-14.6-1.2-6.8,11.8-11.7,3.1,2.1.2,10.3,10.7,9.6,5,2,3.5,14.3,5.4-2.4-.4-9.2,5.6-9.2,3.7-3.9.6-13.6,2.3-2.7,5.1,1,5.4,10.8,14.8-4,7.8,7.9,2.6-1.9-1-7.9-3.4-4.1,2.4-7.1,4.8-2.5,10,5.6.8-4.2-3.1-5,3.1-10.9,8.4-.6,14.1,5.8,7.2-12.2,19.9-3,6.2,1.9,10.9-4.2,4.5-1.9,4.5.8-4.3,4.3.9,5.1,13.4,14.7,9.1,1.4,1.6,1.5,33.1,4.2,9,2.7,30.7,4.9,5.6,4.3,4.6-4.8,4-3.3,5.5-6.5,7.1-2.7h14.4c0,0,4.1,1.4,4.1,1.4l6.5-4.7h5.8c0-.1,9.8,2.2,9.8,2.2l-.9-10.2,5.1-2.1,7.9-7.9,6-1.4,1.9-5.8-2.1-15.4,9-5.9.9-9.6-10.5-4.2,7.6-4.9,8.7,3.4,9.9-1.4,5.5-18.7-4.1-7.3-4-3.3-5.2-17.1,4.3-6.2-.4-5.3-2.5-6-13.9-6.2-11.4,4.7-23.5-7.9-8.5-3.4-22.1-6.2-3.6,13.7-7.4,5.2-3.2,8.2-8.7-3.1-6.2,4.3-9.8-2-11.6-11.4-12.5-12.8-5.9-.8-1.9-5.7-8.5-7-7.8-9.7-8.2-2.2-6.9-7.8.2-2.8-2-1.9-8.1-13.9,6.4-9.7-12.4-10.1-6.7-17.3,9.4,7.4,11.1-13.4,9.9-2.9,5.7,3.2,4.6-6.6,19.2-8.9,6.3-6.5h7.6c0,0,22.7-11.7,22.7-11.7l-3.5-6.5,1.5-3.8,7.4.9,3.9,4.2,1.7,8.3,6.3,2.7,2.5-3.5,7.3-18.1,1.1-9.4-2.1-6.1-1.8-6.9-7-3.6-1.6-4.3.5-5.7-5.3-11.1,5.9-16.9-2.4-11.1-4.1-3-2.9-8.6,4.1-8.9-2.7-7.2-5.6-3.9-12-11.2v-4.5l-.5-4.2,8.5-7.2,1.5-10.2,2.4-4.4-6.9-31-12.7-5.7-2.8-4.7,6.8-2.2,6.4.5.6-4.5-5.5-4.9-6,.3-6-12.2-14.5,3.5-6.8-6,2.8-6.5,11.9-5-4.2-7.8,3.3-7.5-3.9-.7-4,5.4-5.7-11.5-4.8,7.8-1.2,11.6-9.3-2.9-8.4,4.3-9.9-5.6-3.5,9.4-7.2,3.1-12.3,7.2-14.9,3.2-3.8,7.5-10,5.9-7.4-4.5-10.8,3.8-2.5-2.5-2.5-5.4,12.1-9.2.4-9-5.8-4.1-9.8,4.9-17.1-9.7-6.9,6.5-.2-7-8.2-6.1,2.6-11-1.4-4c-2.2-4.1-3-7.4-3-7.4l-21.3-4.5-5,1.6-7.5-5.1-15-2.4-5.1-.7.9,8.3,4.5,11.3Z"/>
    <polyline class="st0" points="205.7 514.2 207.7 516 211.1 517.4 218.8 514.3 241.4 515.5 249.2 509.2 244.5 510.5 241.3 509.3 245.1 502.3 249.4 500.8 252.8 504.5 251.5 508.1 257.2 508.7 259.2 507.1 260.5 509.2 273.7 509.9 281.4 511.6 287.1 516.5 289.9 517.2 307.3 516.8 308.6 520.9 313.5 528 317.1 528.2 316.2 534.3 327.2 526.3 328 516.3 346.5 517.4 350.9 526.3 352.2 526.4 369.3 523.3 368.7 520.1 375.2 518.4 378.3 513.9 396.6 512.4 401.2 512.2 401.8 508.9 402.5 506.7 408.4 507.3 413.3 509.2 415.3 511.5 418.5 511.4 419.6 509.2 423.6 508.3 433.4 519.6 438.6 518.5 440 509.2 433.6 505 435.9 496.8 431.3 490.4 430.6 488.3 426 480.9 434.2 474.8 453.5 464.1 455.4 452.9 458.5 450.2 467.7 455.3 471.2 448.8 470.6 442.2 472.5 438.5"/>
    <polyline class="st0" points="289.9 517.2 294.1 525.9 288.5 534.3 286.3 548 291.8 547.4 302 550.4 304.8 555.6 314.8 560.5 325.5 552.3 328.8 555.3 328.6 560.3"/>
    <polyline class="st0" points="291.8 547.4 292.5 541.7 288.5 534.3"/>
    <polygon class="st1" points="239.9 12.9 239.9 4.8 238 2.6 235.4 12.3 239.9 12.9"/>
  </g>
  <g id="Dots_bigger">
    <circle class="st2" cx="281.7" cy="42.8" r="1.7"/>
    <circle class="st2" cx="298.7" cy="51" r="1.7"/>
    <circle class="st2" cx="305.1" cy="52.7" r="1.7"/>
    <circle class="st2" cx="308.2" cy="49.8" r="1.7"/>
    <circle class="st2" cx="311.6" cy="60.7" r="1.7"/>
    <circle class="st2" cx="317" cy="55.2" r="1.7"/>
    <circle class="st2" cx="320" cy="52.5" r="1.7"/>
    <circle class="st2" cx="323.3" cy="50.2" r="1.7"/>
    <circle class="st2" cx="324.6" cy="58.5" r="1.7"/>
    <circle class="st2" cx="354" cy="64" r="1.7"/>
    <circle class="st2" cx="357.7" cy="46.9" r="1.7"/>
    <circle class="st2" cx="340.9" cy="79.5" r="1.7"/>
    <circle class="st2" cx="315.8" cy="90.1" r="1.7"/>
    <circle class="st2" cx="309.3" cy="92.8" r="1.7"/>
    <circle class="st2" cx="292.5" cy="81" r="1.7"/>
    <circle class="st2" cx="305.5" cy="97.8" r="1.7"/>
    <circle class="st2" cx="319.3" cy="108.3" r="1.7"/>
    <circle class="st2" cx="297.3" cy="132.4" r="1.7"/>
    <circle class="st2" cx="283.6" cy="144.2" r="1.7"/>
    <circle class="st2" cx="295.5" cy="161.8" r="1.7"/>
    <circle class="st2" cx="332.9" cy="154.4" r="1.7"/>
    <circle class="st2" cx="371.5" cy="145.4" r="1.7"/>
    <circle class="st2" cx="374.4" cy="135.6" r="1.7"/>
    <circle class="st2" cx="404.9" cy="130.8" r="1.7"/>
    <circle class="st2" cx="447.2" cy="113.6" r="1.7"/>
    <circle class="st2" cx="467.6" cy="131.1" r="1.7"/>
    <circle class="st2" cx="478.1" cy="149.2" r="1.7"/>
    <circle class="st2" cx="468.8" cy="154" r="1.7"/>
    <circle class="st2" cx="468.9" cy="163.1" r="1.7"/>
    <circle class="st2" cx="457.4" cy="169.5" r="1.7"/>
    <circle class="st2" cx="459.3" cy="177.5" r="1.7"/>
    <circle class="st2" cx="459.7" cy="185.6" r="1.7"/>
    <circle class="st2" cx="464.6" cy="186.1" r="1.7"/>
    <circle class="st2" cx="448.3" cy="195.5" r="1.7"/>
    <circle class="st2" cx="437.9" cy="192.7" r="1.7"/>
    <circle class="st2" cx="431.7" cy="195.6" r="1.7"/>
    <circle class="st2" cx="417.4" cy="193.7" r="1.7"/>
    <circle class="st2" cx="387.8" cy="202.5" r="1.7"/>
    <circle class="st2" cx="400.2" cy="164.9" r="1.7"/>
    <circle class="st2" cx="434" cy="199.7" r="1.7"/>
    <circle class="st2" cx="421.2" cy="228.7" r="1.7"/>
    <circle class="st2" cx="420.2" cy="246" r="1.7"/>
    <circle class="st2" cx="461.2" cy="253.9" r="1.7"/>
    <circle class="st2" cx="414.5" cy="309.3" r="1.7"/>
    <circle class="st2" cx="493.6" cy="239.1" r="1.7"/>
    <circle class="st2" cx="510.5" cy="285.8" r="1.7"/>
    <circle class="st2" cx="403" cy="252.7" r="1.7"/>
    <circle class="st2" cx="389.7" cy="271.2" r="1.7"/>
    <circle class="st2" cx="440.1" cy="182.3" r="1.7"/>
    <circle class="st2" cx="275.9" cy="172.7" r="1.7"/>
    <circle class="st2" cx="277.3" cy="132.6" r="1.7"/>
    <circle class="st2" cx="359.3" cy="90.4" r="1.7"/>
    <circle class="st2" cx="398.9" cy="74" r="1.7"/>
    <circle class="st2" cx="294.4" cy="58.7" r="1.7"/>
    <circle class="st2" cx="269.9" cy="53" r="1.7"/>
    <circle class="st2" cx="238" cy="28.9" r="1.7"/>
    <circle class="st2" cx="347.7" cy="312.1" r="1.7"/>
    <circle class="st2" cx="389.6" cy="337.3" r="1.7"/>
    <circle class="st2" cx="343.7" cy="358.3" r="1.7"/>
    <circle class="st2" cx="353.6" cy="383.9" r="1.7"/>
    <circle class="st2" cx="399.2" cy="403.1" r="1.7"/>
    <circle class="st2" cx="398.3" cy="411.7" r="1.7"/>
    <circle class="st2" cx="374.3" cy="409.8" r="1.7"/>
    <circle class="st2" cx="370.9" cy="405.5" r="1.7"/>
    <circle class="st2" cx="388.6" cy="429.1" r="1.7"/>
    <circle class="st2" cx="359.6" cy="430.9" r="1.7"/>
    <circle class="st2" cx="405.2" cy="427" r="1.7"/>
    <circle class="st2" cx="400.8" cy="453.2" r="1.7"/>
    <circle class="st2" cx="453.7" cy="448" r="1.7"/>
    <circle class="st2" cx="499.2" cy="464.6" r="1.7"/>
    <circle class="st2" cx="598.1" cy="486.2" r="1.7"/>
    <circle class="st2" cx="369.6" cy="481.5" r="1.7"/>
    <circle class="st2" cx="366.1" cy="477.8" r="1.7"/>
    <circle class="st2" cx="322" cy="505.5" r="1.7"/>
    <circle class="st2" cx="315.6" cy="489.5" r="1.7"/>
    <circle class="st2" cx="310.3" cy="507.6" r="1.7"/>
    <circle class="st2" cx="288.9" cy="492.5" r="1.7"/>
    <circle class="st2" cx="297.8" cy="519.7" r="1.7"/>
    <circle class="st2" cx="280.6" cy="545.5" r="1.7"/>
    <circle class="st2" cx="274.6" cy="565.4" r="1.7"/>
    <circle class="st2" cx="259.3" cy="505.2" r="1.7"/>
    <circle class="st2" cx="252" cy="499.7" r="1.7"/>
    <circle class="st2" cx="218.5" cy="498" r="1.7"/>
    <circle class="st2" cx="217.8" cy="458.4" r="1.7"/>
    <circle class="st2" cx="219.4" cy="461.4" r="1.7"/>
    <circle class="st2" cx="224.4" cy="459.4" r="1.7"/>
    <circle class="st2" cx="240.8" cy="458.4" r="1.7"/>
    <circle class="st2" cx="256.6" cy="469.1" r="1.7"/>
    <circle class="st2" cx="274" cy="456.4" r="1.7"/>
    <circle class="st2" cx="272.7" cy="419.9" r="1.7"/>
    <circle class="st2" cx="275.1" cy="414.5" r="1.7"/>
    <circle class="st2" cx="314.1" cy="426.2" r="1.7"/>
    <circle class="st2" cx="312.8" cy="434.4" r="1.7"/>
    <circle class="st2" cx="312.9" cy="456.8" r="1.7"/>
    <circle class="st2" cx="272.2" cy="360.4" r="1.7"/>
    <circle class="st2" cx="255.9" cy="351.3" r="1.7"/>
    <circle class="st2" cx="259.3" cy="344.2" r="1.7"/>
    <circle class="st2" cx="273.9" cy="344.9" r="1.7"/>
    <circle class="st2" cx="251.6" cy="365.8" r="1.7"/>
    <circle class="st2" cx="215" cy="365.9" r="1.7"/>
    <circle class="st2" cx="200.8" cy="381" r="1.7"/>
    <circle class="st2" cx="142.2" cy="306.3" r="1.7"/>
    <circle class="st2" cx="188.7" cy="306.3" r="1.7"/>
    <circle class="st2" cx="204.7" cy="289.2" r="1.7"/>
    <circle class="st2" cx="207.7" cy="275.9" r="1.7"/>
    <circle class="st2" cx="209.2" cy="264.6" r="1.7"/>
    <circle class="st2" cx="188.6" cy="263.6" r="1.7"/>
    <circle class="st2" cx="183.4" cy="279.8" r="1.7"/>
    <circle class="st2" cx="224.2" cy="262.4" r="1.7"/>
    <circle class="st2" cx="223.5" cy="268.7" r="1.7"/>
    <circle class="st2" cx="138.7" cy="237" r="1.7"/>
    <circle class="st2" cx="187.1" cy="228.1" r="1.7"/>
    <circle class="st2" cx="181.1" cy="216.8" r="1.7"/>
    <circle class="st2" cx="223" cy="248.8" r="1.7"/>
    <circle class="st2" cx="210.8" cy="203" r="1.7"/>
    <circle class="st2" cx="252.1" cy="276.7" r="1.7"/>
    <circle class="st2" cx="263.3" cy="265.7" r="1.7"/>
    <circle class="st2" cx="303.8" cy="234.6" r="1.7"/>
    <circle class="st2" cx="305.7" cy="253.8" r="1.7"/>
    <circle class="st2" cx="323.2" cy="246.1" r="1.7"/>
    <circle class="st2" cx="328.9" cy="227.3" r="1.7"/>
    <circle class="st2" cx="281.7" cy="214.9" r="1.7"/>
    <circle class="st2" cx="342.1" cy="193.8" r="1.7"/>
    <circle class="st2" cx="297.4" cy="196.2" r="1.7"/>
    <circle class="st2" cx="195.5" cy="124" r="1.7"/>
    <circle class="st2" cx="215.2" cy="102.3" r="1.7"/>
    <circle class="st2" cx="227.8" cy="114.4" r="1.7"/>
    <circle class="st2" cx="193.5" cy="129.4" r="1.7"/>
    <circle class="st2" cx="184.7" cy="121.4" r="1.7"/>
    <circle class="st2" cx="455.7" cy="73" r="1.7"/>
    <circle class="st2" cx="210.3" cy="97.6" r="1.7"/>
  </g>
</svg>