<svg width="40" height="40" viewBox="0 0 40 40" fill="none" xmlns="http://www.w3.org/2000/svg">
<g clip-path="url(#clip0_3410_16366)">
<g clip-path="url(#clip1_3410_16366)">
<path d="M5.0361 12.2266V12.9447C5.0361 13.3406 4.71386 13.6628 4.31797 13.6628H3.59984C3.20395 13.6628 2.88172 13.3406 2.88172 12.9447V12.2266C2.88172 11.8307 3.20395 11.5085 3.59984 11.5085H4.31797C4.71386 11.5085 5.0361 11.8307 5.0361 12.2266ZM4.31337 23.0169H3.59524C3.19935 23.0169 2.87711 23.3391 2.87711 23.735V24.4532C2.87711 24.8491 3.19935 25.1713 3.59524 25.1713H4.31337C4.70926 25.1713 5.0315 24.8491 5.0315 24.4532V23.735C5.0315 23.3391 4.70926 23.0169 4.31337 23.0169ZM4.31337 33.0891H3.59524C3.19935 33.0891 2.87711 33.4114 2.87711 33.8072V34.5254C2.87711 34.9213 3.19935 35.2435 3.59524 35.2435H4.31337C4.70926 35.2435 5.0315 34.9213 5.0315 34.5254V33.8072C5.0315 33.4114 4.70926 33.0891 4.31337 33.0891ZM31.6667 15.2464V24.3933C31.6667 26.8653 30.4376 29.1624 28.3799 30.5296L24.4578 33.1444V35.2435C24.4578 38.5165 18.1557 40.2796 12.2312 40.2796C6.30663 40.2796 0 38.5165 0 35.2435V5.05451C0 5.05451 0 5.0407 0 5.0361C0 1.7631 6.30203 0 12.2266 0C18.1511 0 24.4532 1.7631 24.4532 5.0361V12.5258C25.2127 13.1381 26.0505 13.626 26.962 13.9713C28.2003 14.4408 29.5583 14.6295 30.8933 14.5329C31.0912 14.5191 31.2892 14.5881 31.4365 14.7216C31.5838 14.8597 31.6667 15.0485 31.6667 15.2464ZM23.0169 7.4897C20.8211 9.17454 16.4341 10.0722 12.2266 10.0722C8.01909 10.0722 3.63667 9.17914 1.44086 7.49431V15.1083C1.44086 16.8069 6.05345 18.7035 12.2312 18.7035C13.405 18.7035 14.5651 18.6207 15.7021 18.4826V15.251C15.7021 15.0531 15.785 14.8597 15.9323 14.7262C16.0796 14.5881 16.2776 14.5191 16.4755 14.5375C17.8059 14.6342 19.1639 14.4454 20.4068 13.9759C21.3597 13.6168 22.2343 13.0966 23.0215 12.4475V7.49891L23.0169 7.4897ZM15.7021 24.3933V19.9234C14.5605 20.0569 13.4004 20.1398 12.2312 20.1398C8.02369 20.1398 3.63667 19.2467 1.44086 17.5573V27.3303C1.44086 29.0289 6.05345 30.9255 12.2312 30.9255C14.5237 30.9255 16.7057 30.6677 18.547 30.189C16.7609 28.7988 15.7067 26.672 15.7067 24.3887L15.7021 24.3933ZM1.43626 5.0361V5.04991C1.46388 6.74396 6.06726 8.63134 12.222 8.63134C18.3767 8.63134 23.0123 6.73475 23.0123 5.0361C23.0123 3.33745 18.3997 1.44086 12.222 1.44086C6.04424 1.44086 1.43626 3.33745 1.43626 5.0361ZM23.0169 35.2435V33.218L20.0569 31.2432C17.8841 31.9659 15.1267 32.3664 12.2266 32.3664C8.01909 32.3664 3.63207 31.4733 1.43626 29.7839V35.2389C1.43626 36.9375 6.04884 38.8341 12.2266 38.8341C18.4043 38.8341 23.0169 36.9375 23.0169 35.2389V35.2435ZM30.2258 15.9922C28.9507 15.9922 27.6479 15.762 26.4556 15.3108C25.4567 14.9334 24.5268 14.4132 23.6844 13.7549C22.842 14.4132 21.9121 14.9334 20.9132 15.3108C19.7255 15.7574 18.4411 15.9922 17.1568 15.9922H17.1384V24.3933C17.1384 26.382 18.1281 28.2325 19.7807 29.3328L23.6798 31.9337L27.5789 29.3328C29.2361 28.2279 30.2258 26.382 30.2258 24.3933V15.9922ZM20.5633 21.9996C20.2825 21.7188 19.8268 21.7188 19.546 21.9996C19.2652 22.2804 19.2652 22.7361 19.546 23.0169L21.9673 25.4383C22.1054 25.5764 22.2896 25.65 22.4783 25.65C22.6671 25.65 22.8466 25.581 22.9893 25.4383L27.832 20.5955C28.1129 20.3147 28.1129 19.859 27.832 19.5782C27.5512 19.2974 27.0955 19.2974 26.8147 19.5782L22.4829 23.91L20.5679 21.995L20.5633 21.9996Z" fill="white"/>
</g>
</g>
<defs>
<clipPath id="clip0_3410_16366">
<rect width="40" height="40" fill="white"/>
</clipPath>
<clipPath id="clip1_3410_16366">
<rect width="31.6667" height="40.2796" fill="white"/>
</clipPath>
</defs>
</svg>
