<svg width="48" height="33" viewBox="0 0 48 33" fill="none" xmlns="http://www.w3.org/2000/svg">
<g clip-path="url(#clip0_3410_16356)">
<path d="M47.9893 10.944C47.8773 5.984 43.7707 2.08533 40.8533 1.17333L40.4907 1.06133L40.16 1.23733C39.0293 1.84533 33.0613 4.69333 32.0373 4.848C31.4507 4.848 28.88 3.70133 27.648 3.14667C26.4213 2.59733 25.7067 2.28267 25.3227 2.18667C25.216 2.16 25.0987 2.14933 24.9653 2.14933C24.0373 2.14933 19.6907 3.344 16.592 4.608L10.4533 0L10.1067 0.0373333C6.96533 0.352 1.35467 5.28533 0.133333 9.71733L0 10.1973L4.29867 14.832C4.64533 15.9947 4.992 16.8587 5.35467 17.488L4.31467 18.528C3.54133 19.3013 3.28 20.4053 3.61067 21.4773C3.89867 22.4053 4.592 23.1413 5.48267 23.4933C5.84 24.6773 6.80533 25.968 8.608 26.48C9.06133 27.5413 9.872 28.6667 11.712 29.1573C12.352 30.4853 13.6587 31.7013 15.184 31.7013C15.984 31.7013 16.7467 31.36 17.392 30.7147L17.824 30.2827L19.056 31.5147C20.1067 32.5653 21.1147 32.8373 21.8773 32.8373C22.0267 32.8373 22.16 32.8267 22.288 32.8107C23.3973 32.6667 24.4853 31.9253 25.3387 30.7467C26.208 31.008 27.136 30.9973 28.032 30.7093C28.976 30.4053 29.8187 29.8133 30.4053 29.0613C31.552 29.3707 32.752 29.1467 33.7813 28.4053C34.6347 27.792 35.2427 26.9173 35.456 26.08C36.9227 25.76 38.1867 24.7947 38.7947 23.4827C39.2853 22.4267 39.296 21.28 38.8533 20.2133C40.272 19.3387 41.6693 17.4613 43.0027 15.5467C43.2907 15.136 43.5627 14.7413 43.7227 14.5493C44.272 14.1493 47.1787 12.0427 47.648 11.6747L48 11.3973L47.9893 10.9493V10.944ZM17.0933 28.48L16.1227 29.4507C15.8133 29.76 15.5093 29.9093 15.184 29.9093C14.4533 29.9093 13.5627 29.088 13.2053 28.0853L13.0347 27.6L12.528 27.504C11.0347 27.2213 10.5173 26.528 10.1227 25.4187L9.952 24.9333L9.44533 24.8373C7.44533 24.4587 7.16267 22.848 7.136 22.6613L7.04533 22.0213L6.41067 21.904C5.888 21.808 5.48267 21.4507 5.328 20.9493C5.264 20.7467 5.16267 20.2187 5.584 19.7973L6.976 18.4053C7.03467 18.3467 7.12533 18.2827 7.312 18.2827C8.08533 18.2827 9.17333 19.248 9.33333 19.904L9.49333 20.5813L10.192 20.592C11.8827 20.6187 12.4747 22.2773 12.576 22.608L12.72 23.0827L13.2 23.2107C14.1973 23.4773 15.152 24.4587 15.2427 25.312L15.3067 25.8987L15.872 26.0747C16.48 26.2667 17.0187 26.8213 17.216 27.4613C17.3013 27.744 17.3493 28.144 17.104 28.4747L17.0933 28.48ZM37.168 22.7307C36.7787 23.5733 35.9307 24.1813 34.9547 24.352L28.496 17.8933L27.2267 19.1627L33.7067 25.6427C33.6213 25.984 33.3173 26.528 32.7307 26.9547C32.2453 27.3013 31.4773 27.616 30.5547 27.216L24.9173 21.5787L23.648 22.848L28.8853 28.0853C28.5227 28.496 28.0267 28.832 27.488 29.008C27.008 29.1627 26.2827 29.2533 25.504 28.8853L21.6853 25.0667L20.416 26.336L23.84 29.76C23.2907 30.4907 22.656 30.9547 22.0587 31.0347C21.504 31.1093 20.9227 30.8427 20.3307 30.2507L18.9013 28.8213C19.104 28.2453 19.1253 27.5947 18.928 26.944C18.6187 25.9253 17.856 25.04 16.9227 24.576C16.5653 23.3173 15.472 22.16 14.1333 21.6373C13.6213 20.4053 12.5387 19.136 10.848 18.8587C10.208 17.5893 8.64533 16.4907 7.32267 16.4907C7.17333 16.4907 7.024 16.5067 6.88 16.5333C6.65067 16.1173 6.34133 15.3973 5.97333 14.1333L5.91467 13.9307L2.02133 9.73333C3.27467 6.19733 7.69067 2.416 9.97333 1.88267L14.7413 5.46667C14.096 5.81333 13.632 6.144 13.4507 6.432C13.248 6.76267 12.9867 7.472 13.552 8.48533C14.384 9.97333 16.7307 11.5093 19.0187 11.216C19.8187 11.1147 20.7253 10.9173 21.6053 10.7307C22.8587 10.464 24.1547 10.1867 25.0827 10.1867C25.76 10.1867 25.9413 10.336 25.9733 10.3627C26.4587 10.848 27.1893 11.6 28.048 12.48C30.5227 15.0133 33.9093 18.4853 35.8133 20.1707C36.1867 20.5013 36.6293 20.6827 37.0987 20.72C37.44 21.3867 37.4773 22.0853 37.1787 22.736L37.168 22.7307ZM42.5813 13.1573L42.4427 13.28C42.2187 13.5253 41.9307 13.9413 41.5253 14.5227C40.688 15.728 38.4533 18.9387 37.2693 18.9387C37.1947 18.9387 37.1093 18.9227 36.992 18.8213C35.136 17.184 31.776 13.7387 29.3227 11.2267C28.4587 10.336 27.7173 9.584 27.232 9.09333C26.7573 8.61867 26.0533 8.38933 25.0773 8.38933C23.9573 8.38933 22.5653 8.688 21.2267 8.976C20.3467 9.16267 19.5147 9.344 18.7947 9.43467C17.5307 9.6 16.2133 8.85867 15.5147 8.12267C15.1627 7.75467 15.0453 7.47733 15.0187 7.36C16.144 6.43733 23.68 3.95733 24.9013 3.94133C25.152 4.00533 26.096 4.42667 26.928 4.79467C29.6 5.98933 31.488 6.75733 32.288 6.63467C33.68 6.42133 39.1627 3.75467 40.6613 3.008C42.896 3.89333 45.8773 6.86933 46.1867 10.5387C45.376 11.1413 43.5893 12.4427 42.5973 13.1573H42.5813Z" fill="white"/>
</g>
<defs>
<clipPath id="clip0_3410_16356">
<rect width="48" height="32.8373" fill="white"/>
</clipPath>
</defs>
</svg>
