<svg width="43" height="41" viewBox="0 0 43 41" fill="none" xmlns="http://www.w3.org/2000/svg">
<path d="M21.4023 0.199799C27.0648 0.199799 32.391 2.39711 36.3945 6.38339L36.4531 6.44199V6.44785C40.419 10.4273 42.6005 15.7049 42.6006 21.3111C42.6006 25.4393 41.4039 29.4447 39.1348 32.8824C36.9283 36.2353 33.8273 38.8792 30.1709 40.5357L30.1699 40.5348C30.0731 40.5793 29.9699 40.5972 29.877 40.5973C29.6291 40.5973 29.3882 40.4711 29.2578 40.2428V40.2418L24.376 31.815V31.8141C24.2707 31.634 24.2528 31.4095 24.3262 31.2144C24.3984 31.0226 24.5513 30.8605 24.7588 30.7916C28.793 29.3797 31.5009 25.5647 31.501 21.3072C31.501 15.7628 26.9729 11.2535 21.4023 11.2535C15.8321 11.2536 11.3049 15.7669 11.3047 21.3111C11.3047 25.5694 14.013 29.3818 18.0488 30.7975H18.0479C18.2474 30.8658 18.4054 31.0244 18.4785 31.2184C18.5527 31.4154 18.5335 31.6356 18.4297 31.818V31.8189L13.542 40.2437C13.3587 40.5598 12.9617 40.6891 12.6289 40.5357V40.5348C8.97739 38.8782 5.87665 36.2349 3.66602 32.8824C1.39692 29.4447 0.200195 25.4438 0.200195 21.3111C0.200292 15.6725 2.40762 10.3696 6.41113 6.38339C10.4146 2.39722 15.74 0.199863 21.4023 0.199799ZM21.4023 1.62265C10.4998 1.62279 1.62695 10.4539 1.62695 21.3072C1.627 28.798 5.93228 35.6553 12.6426 38.9625L16.7803 31.8209C12.6202 30.0041 9.87797 25.8841 9.87793 21.3072C9.87793 14.9787 15.0486 9.83079 21.4023 9.83066C27.7562 9.83066 32.9277 14.9787 32.9277 21.3072C32.9277 25.8886 30.1844 30.0084 26.0195 31.8209L30.1621 38.9625C36.8727 35.6553 41.1777 28.7977 41.1777 21.3111C41.1775 10.4535 32.3049 1.62265 21.4023 1.62265ZM22.7715 17.5211C22.9436 17.2219 23.298 17.0976 23.6123 17.2008L23.7441 17.2594L23.7471 17.2603C24.087 17.4599 24.2047 17.892 24.0088 18.234L24.0078 18.235L20.0293 25.0973L20.0273 25.0992C19.8937 25.323 19.6563 25.4516 19.4111 25.4518C19.2896 25.4518 19.1641 25.4211 19.0508 25.3521V25.3512C18.7118 25.1541 18.5975 24.7235 18.792 24.3844L18.793 24.3834L22.7715 17.5211ZM15.8281 17.7828C16.1045 17.5077 16.5567 17.5077 16.833 17.7828C17.1097 18.0584 17.1098 18.5102 16.833 18.7857L14.2998 21.3072L16.833 23.8287C17.1098 24.1043 17.1098 24.556 16.833 24.8316C16.6926 24.9715 16.5129 25.0396 16.3301 25.0396C16.1475 25.0395 15.9685 24.9714 15.8281 24.8316L12.792 21.8082C12.6576 21.6743 12.583 21.4965 12.583 21.3072C12.583 21.1178 12.6575 20.9392 12.792 20.8053L15.8281 17.7828ZM25.9727 17.7828C26.249 17.5077 26.7012 17.5077 26.9775 17.7828L30.0137 20.8053C30.1482 20.9392 30.2217 21.1178 30.2217 21.3072C30.2217 21.4964 30.1479 21.6743 30.0137 21.8082L26.9775 24.8316C26.8371 24.9715 26.6574 25.0396 26.4746 25.0396C26.2919 25.0396 26.1131 24.9713 25.9727 24.8316C25.6951 24.5552 25.697 24.1094 25.9707 23.8307L25.9727 23.8287L28.5049 21.3072L25.9727 18.7857C25.6958 18.5101 25.6958 18.0584 25.9727 17.7828Z" fill="white" stroke="white" stroke-width="0.4"/>
</svg>
