<svg width="48" height="48" viewBox="0 0 48 48" fill="none" xmlns="http://www.w3.org/2000/svg">
<g clip-path="url(#clip0_3410_16364)">
<path d="M28.6124 0C28.1433 0 27.7993 0.375244 27.7993 0.813029V6.19153C27.3303 6.00391 26.83 5.9101 26.3296 5.9101C24.0469 5.9101 22.1707 7.78632 22.1707 10.0691C22.1707 12.3518 24.0469 14.228 26.3296 14.228C26.83 14.228 27.3303 14.1342 27.7993 13.9466V19.3251C27.7993 19.7941 28.1746 20.1381 28.6124 20.1381H35.7107C36.1798 20.1381 36.5238 19.7629 36.5238 19.3251C36.5238 19.0749 36.43 18.856 36.2423 18.6997C35.6795 18.2306 35.3668 17.5427 35.3668 16.7922C35.3668 15.385 36.4925 14.2906 37.8684 14.2906C39.2443 14.2906 40.37 15.4163 40.37 16.7922C40.37 17.5114 40.0573 18.2306 39.4945 18.6997C39.1505 19.0124 39.1192 19.5127 39.4007 19.8567C39.557 20.0443 39.7759 20.1381 40.0261 20.1381H47.1244C47.5935 20.1381 47.9375 19.7629 47.9375 19.3251V0.8443C47.9375 0.375244 47.5622 0.0312704 47.1244 0.0312704H28.5811L28.6124 0ZM29.4567 1.65733H46.3427V18.5433H41.7147C41.9648 18.0117 42.0899 17.4176 42.0899 16.8235C42.0899 14.5407 40.2137 12.6645 37.9309 12.6645C35.6482 12.6645 33.772 14.5407 33.772 16.8235C33.772 17.4176 33.8971 18.0117 34.1472 18.5433H29.5192V12.5081C29.5192 12.0391 29.144 11.6951 28.7062 11.6951C28.4873 11.6951 28.2997 11.7889 28.1433 11.914C27.6743 12.3518 27.0489 12.602 26.3922 12.602C24.985 12.602 23.8906 11.4762 23.8906 10.1003C23.8906 8.72443 25.0163 7.5987 26.3922 7.5987C27.0489 7.5987 27.6743 7.84886 28.1433 8.28664C28.4873 8.59935 28.9876 8.59935 29.3003 8.28664C29.4567 8.13029 29.5192 7.94267 29.5192 7.72378V1.65733H29.4567ZM0.813029 9.25603C0.343974 9.25603 0 9.63127 0 10.0691V47.1244C0 47.5935 0.375244 47.9375 0.813029 47.9375H37.8684C38.3375 47.9375 38.6814 47.5622 38.6814 47.1244V28.5811C38.6814 28.1121 38.3062 27.7681 37.8684 27.7681H32.4899C32.6775 27.299 32.7713 26.7987 32.7713 26.2984C32.7713 24.0156 30.8951 22.1394 28.6124 22.1394C26.3296 22.1394 24.4534 24.0156 24.4534 26.2984C24.4534 26.7987 24.5472 27.299 24.7349 27.7681H20.2006V21.514C20.2006 21.045 19.8254 20.701 19.3876 20.701C19.1375 20.701 18.9186 20.7948 18.7622 20.9824C18.2932 21.5453 17.6052 21.858 16.8547 21.858C15.4476 21.858 14.3531 20.7322 14.3531 19.3563C14.3531 17.9805 15.4788 16.8547 16.8547 16.8547C17.5739 16.8547 18.2932 17.1674 18.7622 17.7303C19.0749 18.0743 19.5752 18.1055 19.9192 17.8241C20.1068 17.6678 20.2006 17.4489 20.2006 17.1987V10.1003C20.2006 9.63127 19.8254 9.2873 19.3876 9.2873H0.813029V9.25603ZM1.65733 10.9134H18.5433V15.5414C18.0117 15.2912 17.4176 15.1661 16.8235 15.1661C14.5407 15.1661 12.6645 17.0423 12.6645 19.3251C12.6645 21.6078 14.5407 23.484 16.8235 23.484C17.4176 23.484 18.0117 23.359 18.5433 23.1088V27.7368H12.5081C12.0391 27.7368 11.6951 28.1121 11.6951 28.5498C11.6951 28.7687 11.7889 28.9564 11.914 29.1127C12.3518 29.5818 12.602 30.2072 12.602 30.8638C12.602 32.0834 11.7577 33.084 10.6007 33.3342C10.5068 33.3655 10.4443 33.3655 10.3505 33.3655H10.1003C8.69316 33.3655 7.5987 32.2397 7.5987 30.8638C7.5987 30.2072 7.84886 29.5818 8.28664 29.144C8.59935 28.8 8.59935 28.2997 8.28664 27.987C8.13029 27.8306 7.94267 27.7681 7.72378 27.7681H1.65733V10.9134ZM28.6124 23.7967C30.0195 23.7967 31.114 24.9225 31.114 26.2984C31.114 26.955 30.8638 27.5492 30.4261 28.0182C30.1134 28.3622 30.1134 28.8625 30.4261 29.1752C30.5824 29.3316 30.77 29.3941 30.9889 29.3941H37.0241V46.2801H20.1381V41.7459C20.4821 41.871 20.8573 41.9648 21.2326 41.9961H21.6078C21.8892 41.9961 22.1707 41.9648 22.4521 41.9023C24.3596 41.527 25.798 39.8384 25.798 37.8059C25.798 35.7733 24.2658 33.9909 22.2645 33.6782C22.202 33.6782 22.1394 33.6469 22.0456 33.6469C22.0456 33.6469 21.8892 33.6469 21.8267 33.6156H21.6078C21.1075 33.6156 20.6072 33.7094 20.1381 33.8971V29.3629H26.1733C26.6423 29.3629 26.9863 28.9876 26.9863 28.5498C26.9863 28.3309 26.8925 28.1433 26.7674 27.987C26.3296 27.5179 26.0795 26.8925 26.0795 26.2671C26.0795 24.8599 27.2052 23.7655 28.5811 23.7655L28.6124 23.7967ZM1.65733 29.4567H6.19153C6.00391 29.9257 5.9101 30.4261 5.9101 30.9264C5.9101 33.2091 7.78632 35.0853 10.0691 35.0853C12.3518 35.0853 14.228 33.2091 14.228 30.9264C14.228 30.4261 14.1342 29.9257 13.9466 29.4567H18.4808V35.4919C18.4808 35.9609 18.856 36.3049 19.2938 36.3049C19.5127 36.3049 19.7003 36.2111 19.8567 36.086C20.3257 35.6482 20.9511 35.398 21.5765 35.398C22.9837 35.398 24.0782 36.5238 24.0782 37.8997C24.0782 39.3068 22.9524 40.4013 21.5765 40.4013C20.9199 40.4013 20.2945 40.1511 19.8567 39.7134C19.5127 39.4007 19.0124 39.4007 18.6997 39.7134C18.5433 39.8697 18.4808 40.0573 18.4808 40.2762V46.3114H1.65733V29.4254V29.4567Z" fill="white"/>
</g>
<defs>
<clipPath id="clip0_3410_16364">
<rect width="48" height="48" fill="white"/>
</clipPath>
</defs>
</svg>
