<?xml version="1.0" encoding="utf-8"?>
<!-- Generator: Adobe Illustrator 24.0.0, SVG Export Plug-In . SVG Version: 6.00 Build 0)  -->
<svg version="1.1" id="Ebene_1" xmlns="http://www.w3.org/2000/svg" xmlns:xlink="http://www.w3.org/1999/xlink" x="0px" y="0px"
	 viewBox="0 0 270 150" style="enable-background:new 0 0 270 150;" xml:space="preserve">
<style type="text/css">
	.st0{fill-rule:evenodd;clip-rule:evenodd;fill:#2A3CD4;}
	.st1{fill-rule:evenodd;clip-rule:evenodd;fill:#FFFFFF;}
</style>
<title>icon_agendaSetting</title>
<desc>Created with Sketch.</desc>
<g id="Concepts">
	<rect id="icon_agendaSetting" class="st0" width="270" height="150"/>
	<path id="Combined-Shape" class="st1" d="M151.2,28.2h21.4c0.9,0,1.7,0.8,1.7,1.7v98.4c0,0.9-0.8,1.7-1.7,1.7H97.7
		c-0.9,0-1.7-0.8-1.7-1.7V29.9c0-0.9,0.8-1.7,1.7-1.7h21.4l1.5-6.9c0.2-0.8,0.9-1.3,1.7-1.3h25.9c0.8,0,1.5,0.6,1.7,1.3L151.2,28.2z
		 M170.9,126.6v-95h-19l1.3,6.2c0.1,0.5,0,1-0.3,1.4s-0.8,0.6-1.3,0.6h-32.8c-0.5,0-1-0.2-1.3-0.6c-0.3-0.4-0.4-0.9-0.3-1.4l1.3-6.2
		h-19v95.1L170.9,126.6L170.9,126.6z M121.8,31.6l0.7-3.4l1-4.8h23.1l1,4.8l0.7,3.4l1,4.8h-28.6L121.8,31.6z M130.4,58.2
		c0-1.4,1.1-2.5,2.5-2.5h27.9c1.4,0,2.5,1.1,2.5,2.5s-1.1,2.5-2.5,2.5h-27.9C131.5,60.7,130.4,59.6,130.4,58.2z M122,50.5
		c0.9-1.1,2.5-1.2,3.6-0.3s1.2,2.5,0.3,3.6l-10.5,12.1c-0.5,0.6-1.2,0.9-1.9,0.9c-0.1,0-0.1,0-0.2,0c-0.8-0.1-1.5-0.5-1.9-1.1
		l-3.9-6.1c-0.8-1.2-0.4-2.7,0.7-3.5c1.2-0.8,2.7-0.4,3.5,0.7l0.2,0.4l1.8,2.9l4.9-5.7L122,50.5z M160.8,80c1.4,0,2.5,1.1,2.5,2.5
		s-1.1,2.5-2.5,2.5h-27.9c-1.4,0-2.5-1.1-2.5-2.5s1.1-2.5,2.5-2.5H160.8z M122,74.9c0.9-1.1,2.5-1.2,3.6-0.3
		c1.1,0.9,1.2,2.5,0.3,3.6l-10.5,12.1c-0.5,0.6-1.2,0.9-1.9,0.9c-0.1,0-0.1,0-0.2,0c-0.8-0.1-1.5-0.5-1.9-1.1l-3.9-6.1
		c-0.8-1.2-0.4-2.7,0.7-3.5c1.2-0.8,2.7-0.4,3.5,0.7l0.2,0.4l1.8,2.9l4.9-5.7L122,74.9z M160.8,104.4c1.4,0,2.5,1.1,2.5,2.5
		s-1.1,2.5-2.5,2.5h-27.9c-1.4,0-2.5-1.1-2.5-2.5s1.1-2.5,2.5-2.5H160.8z M124.5,99.1c1,1,1,2.6,0,3.6l-4.3,4.3l4.3,4.3
		c1,1,1,2.6,0,3.6c-0.5,0.5-1.1,0.7-1.8,0.7c-0.6,0-1.3-0.2-1.8-0.7l-4.3-4.3l-4.3,4.3c-0.5,0.5-1.1,0.7-1.8,0.7
		c-0.6,0-1.3-0.2-1.8-0.7c-1-1-1-2.6,0-3.6l4.3-4.3l-4.3-4.3c-1-1-1-2.6,0-3.6s2.6-1,3.6,0l4.3,4.3l4.3-4.3
		C121.9,98.1,123.5,98.1,124.5,99.1z"/>
</g>
</svg>
