<?xml version="1.0" encoding="utf-8"?>
<!-- Generator: Adobe Illustrator 24.0.0, SVG Export Plug-In . SVG Version: 6.00 Build 0)  -->
<svg version="1.1" id="Ebene_1" xmlns="http://www.w3.org/2000/svg" xmlns:xlink="http://www.w3.org/1999/xlink" x="0px" y="0px"
	 viewBox="0 0 270 150" style="enable-background:new 0 0 270 150;" xml:space="preserve">
<style type="text/css">
	.st0{fill-rule:evenodd;clip-rule:evenodd;fill:#2A3CD4;}
	.st1{fill-rule:evenodd;clip-rule:evenodd;fill:#FFFFFF;}
</style>
<title>icon_brainstorming</title>
<desc>Created with Sketch.</desc>
<g id="Concepts">
	<rect id="icon_brainstorming" class="st0" width="270" height="150"/>
	<path id="Combined-Shape" class="st1" d="M197.4,92.1c0,3.5-4.1,3.9-6.6,4.1c-0.2,0-0.4,0-0.6,0.1c0.1,0.1,0.1,0.1,0.2,0.2
		c1,1.1,2.5,2.5,2.1,4.5c-0.3,1.3-1.1,2.1-2.1,2.6c0.7,1,1.2,2.2,0.8,3.5c-0.7,2.2-2.8,2.7-4,3v0.1c0.7,2.3,2.3,7.2-1.3,9.9
		c-3.2,2.3-10.3,2.5-19.3,2.4c-0.4,0-0.8,0-1.3,0c-1.3,3.1-5.5,11.8-12.7,12.7c-0.7,0.1-1.4,0.1-2.2,0.1c-4.3,0-10.1-1.3-15.3-3.7
		c-5.3,2.4-11,3.7-15.3,3.7c-0.8,0-1.5,0-2.2-0.1c-7.2-1-11.4-9.6-12.7-12.7c-0.4,0-0.8,0-1.3,0c-9,0.1-16.1-0.1-19.3-2.4
		c-3.6-2.6-2-7.5-1.3-9.9v-0.1c-1.2-0.3-3.3-0.8-4-3c-0.4-1.3,0.1-2.5,0.8-3.5c-0.9-0.5-1.8-1.4-2.1-2.6c-0.4-2,1-3.5,2.1-4.5
		c0.1-0.1,0.1-0.1,0.2-0.2c-0.2,0-0.4,0-0.6-0.1C77.1,96,73,95.7,73,92.1c0-2.1,2.1-5.5,5.4-10.9c1.7-2.7,4.3-6.9,4.4-7.9
		c0-21.1,9.8-35.6,26.2-38.8c10.5-2.1,24.2-0.4,26.2-0.1c2-0.3,15.7-1.9,26.2,0.1c16.4,3.2,26.2,17.8,26.2,38.8
		c0.1,1.1,2.7,5.2,4.4,7.9C195.3,86.6,197.4,90,197.4,92.1z M186.1,95.5c0-2.2,2.5-2.4,4.4-2.6c1-0.1,3.2-0.3,3.5-0.7
		c0-1.3-3.1-6.1-4.9-9.1c-3.1-5-4.9-7.9-4.9-9.7c0-27.9-16.4-34.1-23.5-35.5c-4.3-0.9-9.4-1-13.8-0.9c11.7,5.6,15.8,19.1,15.8,26.4
		c0,9.5-3.6,15.9-7,22.1c-3.2,5.7-6.2,11.2-6.2,18.8c0,3.4-1.1,5.3-2.3,6.3c0.8,1.3,1.6,3.2,1.6,5.7c0,3.6-1.8,7.1-5.3,10.2
		c-1.3,1.2-2.8,2.2-4.4,3.2c4.9,1.9,10,2.7,13.2,2.3c5.5-0.8,9.5-8.7,10.5-11.6c0.2-0.7,0.9-1.1,1.6-1.1c0.8,0,1.6,0,2.4,0
		c5.9,0,14.7,0.1,17.3-1.8c1.5-1.1,0.8-3.7,0.1-6.1c-0.3-0.9-0.4-1.4-0.4-2c0-1.8,1.9-2.3,2.7-2.5s1.4-0.4,1.6-0.7
		c-0.1-0.4-0.9-1.3-1.7-1.9c-0.6-0.4-0.8-1.1-0.7-1.8c0.2-0.7,0.8-1.2,1.5-1.2c0.9-0.1,2-0.5,2.1-0.9c0-0.3-0.8-1.1-1.2-1.5
		C187.1,97.9,186.1,96.9,186.1,95.5z M118.1,131.9c3.2,0.4,8.3-0.5,13.2-2.3c-1.6-1-3.1-2-4.4-3.2c-3.5-3.1-5.3-6.6-5.3-10.2
		c0-2.5,0.8-4.4,1.6-5.7c-1.1-1-2.3-2.9-2.3-6.3c0-7.6-3-13.1-6.2-18.8c-3.5-6.2-7-12.6-7-22.1c0-7.4,4.1-20.9,15.8-26.4
		c-4.4-0.1-9.4,0.1-13.8,0.9c-7.1,1.4-23.5,7.6-23.5,35.5c0,1.8-1.8,4.7-4.9,9.7c-1.8,2.9-4.9,7.8-4.9,9.1c0.3,0.5,2.6,0.7,3.5,0.7
		c2,0.2,4.4,0.4,4.4,2.6c0,1.4-1,2.5-1.9,3.4c-0.4,0.4-1.1,1.2-1.2,1.5c0.1,0.3,1.2,0.8,2.1,0.8c0.7,0.1,1.3,0.6,1.5,1.2
		c0.2,0.7-0.1,1.4-0.7,1.8c-0.8,0.6-1.6,1.5-1.7,1.9c0.2,0.3,0.8,0.5,1.6,0.7c0.9,0.2,2.7,0.6,2.7,2.5c0,0.5-0.2,1.1-0.4,2
		c-0.7,2.4-1.4,5,0.1,6.1c2.6,1.9,11.4,1.8,17.3,1.8c0.8,0,1.6,0,2.4,0c0.7,0,1.3,0.5,1.6,1.1C107.7,120.4,111.4,131,118.1,131.9z
		 M144.6,108.3c0.3-0.1,1.7-0.8,1.7-4.1c0-8.5,3.4-14.6,6.7-20.5c3.4-6.1,6.6-11.8,6.6-20.4c0-8.3-5.9-25.6-24.3-25.6
		S110.9,55,110.9,63.3c0,8.6,3.2,14.4,6.6,20.4c3.3,5.9,6.7,11.9,6.7,20.5c0,3.3,1.3,4,1.7,4.1h9.3
		C135.2,108.3,144.6,108.3,144.6,108.3z M135.2,111.7h-8.8c-0.5,0.7-1.5,2.2-1.5,4.5c0,2.6,1.4,5.1,4.2,7.6c1.7,1.5,3.8,2.9,6.1,4
		c2.3-1.1,4.4-2.5,6.1-4c2.8-2.5,4.2-5,4.2-7.6c0-2.3-0.9-3.8-1.5-4.5H135.2z M134.6,29.6c-0.9,0-1.7-0.8-1.7-1.7V16.7
		c0-0.9,0.7-1.7,1.7-1.7c0.9,0,1.7,0.8,1.7,1.7v11.2C136.3,28.8,135.5,29.6,134.6,29.6z M118,28l-4.1-7.6c-0.4-0.8-0.1-1.8,0.7-2.3
		c0.8-0.4,1.8-0.1,2.3,0.7l4.1,7.6c0.4,0.8,0.1,1.8-0.7,2.3c-0.3,0.1-0.5,0.2-0.8,0.2C118.8,28.9,118.3,28.6,118,28z M149,28.7
		c-0.8-0.4-1.1-1.5-0.7-2.3l4.1-7.6c0.4-0.8,1.4-1.1,2.3-0.7c0.8,0.4,1.1,1.5,0.7,2.3l-4.1,7.6c-0.3,0.6-0.9,0.9-1.5,0.9
		C149.6,28.9,149.3,28.8,149,28.7z M129.5,44.7c0.9-0.4,1.8,0.1,2.2,0.9c0.3,0.9-0.1,1.9-0.9,2.2c-1.8,0.7-3.3,1.7-4.7,3
		c-0.3,0.3-0.7,0.4-1.1,0.4c-0.5,0-0.9-0.2-1.2-0.6c-0.6-0.7-0.5-1.8,0.1-2.4C125.5,46.7,127.4,45.5,129.5,44.7z M121.1,54.1
		c0.8,0.4,1.2,1.4,0.8,2.3c-2.3,4.8-2.3,9.5-2.3,9.6c0,0.9-0.7,1.7-1.7,1.7l0,0c-0.9,0-1.7-0.7-1.7-1.7c0-0.2,0-5.5,2.6-11.1
		C119.3,54.1,120.3,53.7,121.1,54.1z"/>
</g>
</svg>
