<?xml version="1.0" encoding="utf-8"?>
<!-- Generator: Adobe Illustrator 24.0.3, SVG Export Plug-In . SVG Version: 6.00 Build 0)  -->
<svg version="1.1" id="Ebene_1" xmlns="http://www.w3.org/2000/svg" xmlns:xlink="http://www.w3.org/1999/xlink" x="0px" y="0px"
	 viewBox="0 0 270 150" style="enable-background:new 0 0 270 150;" xml:space="preserve">
<style type="text/css">
	.st0{fill-rule:evenodd;clip-rule:evenodd;fill:#2A3CD4;}
	.st1{fill:none;stroke:#FFFFFF;stroke-width:3.5;stroke-linecap:round;stroke-linejoin:round;stroke-miterlimit:10;}
	.st2{fill:#FFFFFF;}
</style>
<title>icon_brainstorming</title>
<desc>Created with Sketch.</desc>
<rect id="icon_brainstorming" class="st0" width="270" height="150"/>
<g>
	<g>
		<path class="st1" d="M122.4,49.8V30.5c0-4.5,3.7-8.3,8.3-8.3h66.1c4.5,0,8.3,3.7,8.3,8.3v52.3c0,4.5-3.7,8.3-8.3,8.3h-15.8
			l-11,9.2v-9.2h-22.3"/>
	</g>
	<path class="st1" d="M89.1,118.6l11,9.2v-9.2h39.3c4.5,0,8.3-3.7,8.3-8.3V58c0-4.5-3.7-8.3-8.3-8.3H73.3c-4.5,0-8.3,3.7-8.3,8.3
		v52.3c0,4.5,3.7,8.3,8.3,8.3H89.1z"/>
	<g>
		<circle class="st2" cx="124.4" cy="84.2" r="3"/>
		<circle class="st2" cx="106.3" cy="84.2" r="3"/>
		<circle class="st2" cx="88.2" cy="84.2" r="3"/>
	</g>
</g>
</svg>
