<?xml version="1.0" encoding="utf-8"?>
<!-- Generator: Adobe Illustrator 24.0.0, SVG Export Plug-In . SVG Version: 6.00 Build 0)  -->
<svg version="1.1" id="Ebene_1" xmlns="http://www.w3.org/2000/svg" xmlns:xlink="http://www.w3.org/1999/xlink" x="0px" y="0px"
	 viewBox="0 0 270 150" style="enable-background:new 0 0 270 150;" xml:space="preserve">
<style type="text/css">
	.st0{fill-rule:evenodd;clip-rule:evenodd;fill:#2A3CD4;}
	.st1{fill-rule:evenodd;clip-rule:evenodd;fill:#FFFFFF;}
</style>
<title>icons_spatialChallenge</title>
<desc>Created with Sketch.</desc>
<g id="Concepts">
	<rect id="icons_spatialChallenge" class="st0" width="270" height="150"/>
	<path id="Fill-1" class="st1" d="M193.6,31.6L162.3,25l0,0c-0.1,0-0.2,0-0.4,0h-5.3H107c-1,0-1.8,0.8-1.8,1.8V38l-29.1-5.2
		c-0.5-0.1-1.1,0-1.5,0.4c-0.4,0.3-0.7,0.9-0.7,1.4v82.1c0,0.9,0.6,1.6,1.5,1.8L112,125c0.1,0,0.2,0,0.3,0h44.3c1,0,1.8-0.8,1.8-1.8
		V111l34.4,6.2c0.5,0.1,1.1,0,1.5-0.4s0.7-0.9,0.7-1.4V33.3C195,32.5,194.4,31.8,193.6,31.6L193.6,31.6z M191.4,113.2l-32.9-5.9
		V77.5c1.5-2.2,2.7-4.5,3.6-6.9c0.2,0,0.4,0,0.6,0c8.8,0,18.7-8.8,18.7-20.6c0-5-1.3-8.6-3.9-10.7c-3.8-3-9.1-1.9-12.3-1.1
		c-0.5,0.1-1.1,0.2-1.5,0.3V29l27.6,5.8L191.4,113.2L191.4,113.2z M77.6,36.8l14,2.5l-0.1,0.1c-2.6,2.1-3.9,5.7-3.9,10.7
		c0,11.8,9.8,20.6,18.7,20.6c0.2,0,0.5,0,0.7,0c0.9,2.3,2.1,4.6,3.6,6.7V109v12l-32.9-5.9L77.6,36.8L77.6,36.8z M163.7,61.9V42.1
		c0.6,0,1.3-0.2,2.3-0.4c2.7-0.6,6.8-1.5,9.2,0.4c1.7,1.3,2.5,4,2.5,7.9c0,9.4-7.8,16.6-14.6,16.9C163.5,65.3,163.7,63.6,163.7,61.9
		L163.7,61.9z M154.8,106.9c-4-0.6-13-3.5-13.3-16.9c5-1.5,9.6-4.4,13.3-8.1V106.9z M127.4,90c-0.3,13.4-9.3,16.3-13.3,16.9V81.7
		C117.9,85.5,122.5,88.5,127.4,90L127.4,90z M93.8,42.2c2.4-2,6.5-1,9.2-0.4c1,0.2,1.7,0.4,2.3,0.4V62c0,1.7,0.2,3.4,0.6,5.1
		c-6.9-0.3-14.6-7.6-14.6-16.9C91.2,46.2,92.1,43.5,93.8,42.2L93.8,42.2z M123.1,107.1c4-2.8,7.7-7.8,7.9-16.6h6.9
		c0.3,8.9,3.9,13.8,7.9,16.6H123.1z M108.9,38.7v-10h40.2h5.7h3.6h1.6v0.6V62c0,2.7-0.6,5.4-1.6,7.9c-0.9,2.2-2.1,4.4-3.6,6.4
		c-3.8,5-9.3,9-15.3,10.5h-10c-6-1.5-11.5-5.5-15.3-10.5c-1.5-2-2.7-4.2-3.6-6.4c-1-2.6-1.6-5.3-1.6-7.9V42.4L108.9,38.7L108.9,38.7
		z M154.8,111.4v10h-31h-9.7v-0.7v-10h31h9.7V111.4z M130.1,67.8h3.5V43.1h-3.5c-1,0-1.8-0.8-1.8-1.8s0.8-1.8,1.8-1.8h5.3
		c1,0,1.8,0.8,1.8,1.8v26.6h3.5c1,0,1.8,0.8,1.8,1.8s-0.8,1.8-1.8,1.8h-5.3h-5.3c-1,0-1.8-0.8-1.8-1.8
		C128.3,68.6,129.1,67.8,130.1,67.8z"/>
</g>
</svg>
