<?xml version="1.0" encoding="utf-8"?>
<!-- Generator: Adobe Illustrator 24.0.0, SVG Export Plug-In . SVG Version: 6.00 Build 0)  -->
<svg version="1.1" id="Ebene_1" xmlns="http://www.w3.org/2000/svg" xmlns:xlink="http://www.w3.org/1999/xlink" x="0px" y="0px"
	 viewBox="0 0 270 150" style="enable-background:new 0 0 270 150;" xml:space="preserve">
<style type="text/css">
	.st0{fill-rule:evenodd;clip-rule:evenodd;fill:#2A3CD4;}
	.st1{fill-rule:evenodd;clip-rule:evenodd;fill:#FFFFFF;}
</style>
<title>icon_spatialIdeaCollection</title>
<desc>Created with Sketch.</desc>
<g id="Concepts">
	<rect id="icon_spatialBrainstroming" class="st0" width="270" height="150"/>
	<path id="bulbmap-copy" class="st1" d="M155.4,41.3l33.2,6c0.8,0.1,1.4,0.8,1.4,1.6v74.8c0,0.5-0.2,1-0.6,1.3
		c-0.4,0.3-0.9,0.4-1.4,0.4l-32.8-5.9l-8.2,2.6c-1.9,5.9-7,10.4-12.7,10.4c-3.1,0-6-1.3-8.4-3.5l-10.7,3.5c-0.1,0-0.3,0.1-0.8,0
		l-33.2-6c-0.8-0.1-1.4-0.8-1.4-1.6V50c0-0.5,0.2-1,0.6-1.3s0.9-0.4,1.4-0.4l27.9,5c3.4-8.6,11-17.5,25.1-17.5
		c7.5,0,13.2,2.5,17.4,6.2c0,0,2.3-0.7,2.4-0.8c0.1,0,0.2,0,0.4-0.1C155.1,41.3,155.1,41.3,155.4,41.3z M143,123.4
		c0.6-1.2,1.1-2.5,1.4-3.9c0.1-0.8,0.2-1.6,0.2-2.5c0-2.4-1-4.5-1.6-5.5h-8h-9.2c-0.6,1-1.6,3.1-1.6,5.5c0,3.2,1.1,6,2.8,8.1
		c0.8,1,1.8,1.9,2.8,2.6c1.5,0.9,3.1,1.5,4.6,1.5C137.6,129.2,141,127,143,123.4z M113.2,54c-0.4,1.1-0.8,2.1-1.1,3.2
		c-0.8,2.6-1.1,5.1-1.1,7.1c0,4.5,0.9,8.2,2.3,11.6c0.9,2.3,2.1,4.5,3.3,6.7c0.3,0.6,0.6,1.1,1,1.7c3.2,5.7,6.6,11.7,6.6,20
		c0,3.2,1.3,3.9,1.7,4h9.3h9.3c0.3-0.1,1.6-0.8,1.6-4c0-8.3,3.4-14.3,6.6-20c0.3-0.6,0.6-1.1,1-1.7c1.2-2.2,2.4-4.3,3.3-6.7
		c1.4-3.4,2.3-7.1,2.3-11.6c0-2.8-0.7-6.5-2.3-10.3c-0.8-2-1.9-3.9-3.3-5.7c-0.6-0.8-1.3-1.6-2-2.3c-0.9-0.9-1.9-1.8-2.9-2.5
		c-3.5-2.5-7.9-4.1-13.6-4.1C122.9,39.2,116.3,46.6,113.2,54z M113.2,128.8V83.4c-2.9-5.3-5.6-11.1-5.6-19.1c0-2.1,0.4-4.8,1.2-7.7
		L83.3,52v71.5L113.2,128.8z M116.5,128.6l7.2-2.3c-1.8-2.6-2.8-5.8-2.8-9.2c0-2.9,1.1-5.4,1.9-6.9c-1.1-1-2-2.8-2-6
		c0-5.9-1.9-10.5-4.3-14.9C116.5,89.3,116.5,128.6,116.5,128.6z M147.9,118.4l5.6-1.8V89.3c-2.4,4.4-4.3,9-4.3,14.9
		c0,4-1.6,5.8-2.9,6.6c0.7,1.5,1.6,3.7,1.6,6.2C147.9,117.5,147.9,117.9,147.9,118.4z M186.7,121.8V50.3l-29.9-5.4v2.2
		c4,5.8,5.6,12.6,5.6,17.1c0,8-2.7,13.8-5.6,19.1v33L186.7,121.8z M134.4,31.2c-0.9,0-1.7-0.7-1.7-1.7V18.7c0-0.9,0.7-1.7,1.7-1.7
		s1.7,0.7,1.7,1.7v10.9C136.1,30.5,135.3,31.2,134.4,31.2z M117.9,29.7l-4-7.4c-0.4-0.8-0.1-1.8,0.7-2.2c0.8-0.4,1.8-0.1,2.2,0.7
		l4,7.4c0.4,0.8,0.1,1.8-0.7,2.2c-0.3,0.1-0.5,0.2-0.8,0.2C118.8,30.6,118.2,30.3,117.9,29.7z M148.7,30.4c-0.8-0.4-1.1-1.4-0.7-2.2
		l4-7.4c0.4-0.8,1.4-1.1,2.2-0.7s1.1,1.4,0.7,2.2l-4,7.4c-0.3,0.5-0.9,0.9-1.5,0.9C149.3,30.6,149,30.5,148.7,30.4z M123.6,51.8
		c-0.1-0.1-0.2-0.2-0.2-0.3c-0.4-0.7-0.2-1.5,0.3-2c1.6-1.5,3.5-2.6,5.6-3.5c0.8-0.3,1.8,0.1,2.2,0.9c0.3,0.8-0.1,1.8-0.9,2.2
		c-0.3,0.1-0.6,0.2-0.8,0.4c-1.4,0.7-2.7,1.5-3.8,2.5c-0.3,0.3-0.7,0.4-1.1,0.4C124.3,52.4,123.9,52.2,123.6,51.8z M117.9,68.5
		c-0.6,0-1.1-0.3-1.4-0.8c-0.2-0.3-0.3-0.6-0.3-0.9c0-0.1,0-1.3,0.3-3.1c0.3-1.9,0.9-4.5,2.1-7.3c0.1-0.2,0.1-0.3,0.2-0.5
		c0.4-0.8,1.4-1.2,2.2-0.8c0.2,0.1,0.3,0.2,0.4,0.3c0.5,0.5,0.6,1.2,0.3,1.9c-2.2,4.7-2.3,9.3-2.3,9.4
		C119.5,67.7,118.8,68.5,117.9,68.5L117.9,68.5z"/>
</g>
</svg>
