<?xml version="1.0" encoding="utf-8"?>
<!-- Generator: Adobe Illustrator 24.0.0, SVG Export Plug-In . SVG Version: 6.00 Build 0)  -->
<svg version="1.1" id="Ebene_1" xmlns="http://www.w3.org/2000/svg" xmlns:xlink="http://www.w3.org/1999/xlink" x="0px" y="0px"
	 viewBox="0 0 270 150" style="enable-background:new 0 0 270 150;" xml:space="preserve">
<style type="text/css">
	.st0{fill-rule:evenodd;clip-rule:evenodd;fill:#2A3CD4;}
	.st1{fill-rule:evenodd;clip-rule:evenodd;fill:#FFFFFF;}
</style>
<title>icon_buergerhaushalt</title>
<desc>Created with Sketch.</desc>
<g id="Concepts">
	<rect id="icon_buergerhaushalt" class="st0" width="270" height="150"/>
	<path id="Fill-1" class="st1" d="M149,55.9v-8c0.1,0,0.2-0.1,0.3-0.1c5.5-4.3,9.2-11.5,9.2-17.9c0-4.2-1-7-3-8.6
		c-3.1-2.3-7.4-1.1-12,0.2c-2.9,0.8-5.8,1.6-8.5,1.6c-2.6,0-5.6-0.8-8.5-1.6c-4.6-1.3-9-2.5-12-0.2c-2,1.5-3,4.3-3,8.5
		c0,6.1,3.4,13,8.4,17.3v9.1C102.1,62.7,89,86.1,89,103.4c0,22,24.9,26.6,45.9,26.6s45.9-4.6,45.9-26.6
		C180.8,85.8,167.2,61.9,149,55.9L149,55.9z M134.9,126.2c-27.9,0-42.1-7.7-42.1-22.8c0-19.7,15.4-39.3,29.2-43.9h25.1h0.7
		C161.6,64,177,83.7,177,103.4C177,118.5,162.8,126.2,134.9,126.2L134.9,126.2z M115.2,29.9c0-2,0.3-4.6,1.5-5.5
		c0.5-0.4,1.2-0.5,2.1-0.5c1.8,0,4.3,0.7,6.6,1.3c3.1,0.9,6.3,1.8,9.5,1.8s6.4-0.9,9.5-1.8c3.5-1,7.1-2,8.7-0.8
		c1.3,0.9,1.5,3.5,1.5,5.6c0,5-2.9,10.9-7.2,14.5h-25C118.1,40.8,115.2,34.9,115.2,29.9L115.2,29.9z M123.6,55.7v-7.5h21.6v7.5
		H123.6z M136.5,107.6c3.9,0,7.6-1.5,10.4-4.3c0.7-0.7,1.9-0.7,2.7,0c0.7,0.7,0.7,1.9,0,2.7c-3.5,3.5-8.1,5.4-13.1,5.4
		c-7.9,0-14.6-5-17.2-11.9h-4.7c-1,0-1.9-0.8-1.9-1.9c0-1,0.8-1.9,1.9-1.9h3.7c-0.1-0.9-0.2-1.8-0.2-2.8s0.1-1.9,0.2-2.8h-3.7
		c-1,0-1.9-0.8-1.9-1.9c0-1,0.8-1.9,1.9-1.9h4.7c2.7-6.9,9.4-11.9,17.2-11.9c4.9,0,9.6,1.9,13.1,5.4c0.7,0.7,0.7,1.9,0,2.7
		c-0.7,0.7-1.9,0.7-2.7,0c-2.8-2.8-6.5-4.3-10.4-4.3c-5.7,0-10.7,3.3-13.1,8.1h10.8c1,0,1.9,0.8,1.9,1.9c0,1-0.8,1.9-1.9,1.9h-12.1
		c-0.2,0.9-0.3,1.8-0.3,2.8s0.1,1.9,0.3,2.8h12.1c1,0,1.9,0.8,1.9,1.9c0,1-0.8,1.9-1.9,1.9h-10.8
		C125.8,104.3,130.8,107.6,136.5,107.6z"/>
</g>
</svg>
