<?xml version="1.0" encoding="utf-8"?>
<!-- Generator: Adobe Illustrator 24.0.0, SVG Export Plug-In . SVG Version: 6.00 Build 0)  -->
<svg version="1.1" id="Ebene_1" xmlns="http://www.w3.org/2000/svg" xmlns:xlink="http://www.w3.org/1999/xlink" x="0px" y="0px"
	 viewBox="0 0 270 151" style="enable-background:new 0 0 270 151;" xml:space="preserve">
<style type="text/css">
	.st0{fill-rule:evenodd;clip-rule:evenodd;fill:#2A3CD4;}
	.st1{fill-rule:evenodd;clip-rule:evenodd;fill:#FFFFFF;}
</style>
<title>icons_spatialPrio_01</title>
<desc>Created with Sketch.</desc>
<g id="Concepts">
	<rect id="icons_spatialChallenge-Copy-8" class="st0" width="270" height="150.7"/>
	<g id="Page-1" transform="translate(72.000000, 20.000000)">
		<path id="Fill-1" class="st1" d="M113.9,13.6l11.5,2.1c0.9,0.2,1.5,0.9,1.5,1.8V101c0,0.5-0.2,1-0.6,1.4c-0.4,0.3-0.9,0.5-1.5,0.4
			l-36.4-6.5C58.8,105.8,44,110.5,44,110.5c-0.2,0-0.3,0.1-0.8,0.1L6.3,104c-0.9-0.2-1.5-0.9-1.5-1.8V42.6C2.1,37.4,0,31.4,0,25.4
			C0,16,7.6,8.3,16.9,8.3c8.1,0,14.8,5.7,16.5,13.4l9.9,1.8l38.2-12.5c2.5-6.4,8.6-11,15.8-11C105.5,0.1,112.3,5.9,113.9,13.6z
			 M123.3,98.8V19l-9-1.6c-0.1,15.7-15,31.8-15.6,32.5c-0.3,0.4-0.8,0.6-1.3,0.6s-1-0.2-1.3-0.6c-0.3-0.3-2.9-3.2-6-7.5V93
			L123.3,98.8z M45.3,106.3L86.4,93V36.5c-3.2-5.7-6-12.6-6-19.4c0-0.6,0-1.3,0.1-1.9L45.3,26.6v18c2-0.8,4.1-1.2,6.3-1.2
			c9.3,0,16.9,7.6,16.9,17c0,15.8-15,32-15.6,32.7c-0.3,0.4-0.8,0.6-1.3,0.6s-1-0.2-1.3-0.6c-0.2-0.2-2.4-2.6-5-6.1
			C45.3,86.9,45.3,106.3,45.3,106.3z M8.4,100.7l33.3,6V81.5c-3.6-6-7-13.6-7-21.1c0-5.6,2.8-10.7,7-13.8V26.8l-7.8-1.4
			c0,15.8-15,32-15.6,32.6c-0.3,0.4-0.8,0.6-1.3,0.6s-1-0.2-1.3-0.6c-0.3-0.3-3.7-3.9-7.2-9.3L8.4,100.7L8.4,100.7z M30.3,25.4
			c0-7.4-6-13.4-13.3-13.4s-13.3,6-13.3,13.4c0,11.8,9.7,24.4,13.3,28.6C20.5,49.7,30.3,37.1,30.3,25.4z M51.6,47
			c-7.4,0-13.3,6-13.3,13.4c0,11.8,9.7,24.4,13.3,28.6c3.6-4.3,13.3-17,13.3-28.6C64.9,53,59,47,51.6,47z M110.7,17.1
			c0-7.4-6-13.4-13.3-13.4S84,9.7,84,17.1c0,11.8,9.7,24.4,13.3,28.6C100.9,41.5,110.7,28.8,110.7,17.1z M55,72.4h-6
			c-1,0-1.8-0.8-1.8-1.8c0-1,0.8-1.8,1.8-1.8h1.2V56.4H49c-1,0-1.8-0.8-1.8-1.8c0-1,0.8-1.8,1.8-1.8h3c1,0,1.8,0.8,1.8,1.8v14.2H55
			c1,0,1.8,0.8,1.8,1.8S56,72.4,55,72.4z M21.6,26c1,1.1,1.6,2.6,1.6,4.1c0,3.5-2.8,6.3-6.3,6.3c-2.8,0-5.3-1.9-6-4.5
			c-0.3-1,0.3-2,1.2-2.2c1-0.3,2,0.3,2.2,1.2c0.3,1.1,1.4,1.9,2.6,1.9c1.5,0,2.7-1.2,2.7-2.7c0-0.9-0.4-1.7-1.1-2.2H17
			c-1,0-1.8-0.8-1.8-1.8c0-1,0.8-1.8,1.8-1.8h1.4c0.5-0.4,0.7-1,0.7-1.6c0-1.2-1-2.2-2.2-2.2c-1,0-1.8,0.6-2.1,1.6s-1.3,1.5-2.2,1.2
			c-1-0.3-1.5-1.3-1.2-2.2c0.7-2.4,3-4.1,5.5-4.1c3.2,0,5.8,2.6,5.8,5.8C22.6,23.9,22.2,25.1,21.6,26z M101.6,24.9
			c1,0,1.8,0.8,1.8,1.8c0,1-0.8,1.8-1.8,1.8h-8.5c-0.7,0-1.3-0.4-1.6-1c-0.3-0.6-0.2-1.3,0.2-1.9l7.3-9.7c0.2-0.3,0.3-0.7,0.3-1.1
			c0-1.2-1-2.2-2.2-2.2s-2.2,1-2.2,2.2c0,1-0.8,1.8-1.8,1.8s-1.8-0.8-1.8-1.8c0-3.2,2.6-5.8,5.8-5.8c3.2,0,5.8,2.6,5.8,5.8
			c0,1.1-0.3,2.2-1,3.2c0,0.1-0.1,0.1-0.1,0.2L96.7,25h4.9V24.9z"/>
	</g>
</g>
</svg>
