<?xml version="1.0" encoding="utf-8"?>
<!-- Generator: Adobe Illustrator 24.0.0, SVG Export Plug-In . SVG Version: 6.00 Build 0)  -->
<svg version="1.1" id="Ebene_1" xmlns="http://www.w3.org/2000/svg" xmlns:xlink="http://www.w3.org/1999/xlink" x="0px" y="0px"
	 viewBox="0 0 270 150" style="enable-background:new 0 0 270 150;" xml:space="preserve">
<style type="text/css">
	.st0{fill-rule:evenodd;clip-rule:evenodd;fill:#2A3CD4;}
	.st1{fill-rule:evenodd;clip-rule:evenodd;fill:#FFFFFF;}
</style>
<title>icon_poll</title>
<desc>Created with Sketch.</desc>
<g id="Concepts">
	<rect id="icon_poll" class="st0" width="270" height="150"/>
	<path id="Combined-Shape" class="st1" d="M105.9,50c13.7,0,24.9,11.3,24.9,25.3s-11.2,25.3-24.9,25.3S81,89.2,81,75.3
		S92.2,50,105.9,50z M105.9,97.1c11.9,0,21.5-9.8,21.5-21.9s-9.7-21.9-21.5-21.9c-11.9,0-21.5,9.8-21.5,21.9
		C84.3,87.3,94,97.1,105.9,97.1z M164.2,50c13.7,0,24.9,11.3,24.9,25.3s-11.2,25.3-24.9,25.3s-24.9-11.3-24.9-25.3
		S150.5,50,164.2,50z M164.2,97.1c11.9,0,21.5-9.8,21.5-21.9s-9.7-21.9-21.5-21.9s-21.5,9.8-21.5,21.9S152.4,97.1,164.2,97.1z
		 M118.1,62.8c1,1,1,2.6,0,3.6l-8.8,8.9l8.8,8.9c1,1,1,2.6,0,3.6c-0.5,0.5-1.1,0.7-1.8,0.7c-0.6,0-1.3-0.2-1.8-0.7l-8.8-8.9
		l-8.8,8.9c-0.5,0.5-1.1,0.7-1.8,0.7c-0.6,0-1.3-0.2-1.8-0.7c-1-1-1-2.6,0-3.6l8.8-8.9l-8.8-8.9c-1-1-1-2.6,0-3.6s2.6-1,3.5,0
		l8.8,8.9l8.8-8.9C115.6,61.8,117.2,61.8,118.1,62.8z"/>
</g>
</svg>
