<?xml version="1.0" encoding="utf-8"?>
<!-- Generator: Adobe Illustrator 24.0.0, SVG Export Plug-In . SVG Version: 6.00 Build 0)  -->
<svg version="1.1" id="Ebene_1" xmlns="http://www.w3.org/2000/svg" xmlns:xlink="http://www.w3.org/1999/xlink" x="0px" y="0px"
	 viewBox="0 0 270 150" style="enable-background:new 0 0 270 150;" xml:space="preserve">
<style type="text/css">
	.st0{fill-rule:evenodd;clip-rule:evenodd;fill:#2A3CD4;}
	.st1{fill-rule:evenodd;clip-rule:evenodd;fill:#FFFFFF;}
</style>
<title>icon_textCommenting</title>
<desc>Created with Sketch.</desc>
<g id="Concepts">
	<rect id="icon_textCommenting" class="st0" width="270" height="150"/>
	<path id="Combined-Shape" class="st1" d="M160.7,20c6.4,0,11.6,5.3,11.6,11.8v73.5c0,6.5-5.2,11.8-11.6,11.8h-19.2l-13.1,13.3
		c-0.3,0.3-0.7,0.5-1.2,0.5c-0.2,0-0.4,0-0.6-0.1c-0.6-0.3-1-0.9-1-1.6v-12.1h-16.9c-6.4,0-11.6-5.3-11.6-11.8V31.8
		c0-6.5,5.2-11.8,11.6-11.8H160.7z M169,105.4V31.8c0-4.7-3.7-8.4-8.3-8.4h-52c-4.6,0-8.3,3.8-8.3,8.4v73.5c0,4.7,3.7,8.4,8.3,8.4
		h18.6c0.9,0,1.7,0.8,1.7,1.7v9.7l10.7-10.9c0.3-0.3,0.7-0.5,1.2-0.5h19.9C165.3,113.8,169,110,169,105.4z M158.4,48.8
		c0,0.1,0,0.1,0.1,0.2c0,0.1,0,0.2,0,0.3v50.1c0,0.9-0.7,1.7-1.7,1.7h-41.5c-0.9,0-1.7-0.8-1.7-1.7V35.9c0-0.9,0.7-1.7,1.7-1.7h28.2
		c0.1,0,0.2,0,0.3,0s0.1,0,0.2,0.1h0.1c0.1,0,0.1,0.1,0.2,0.1c0,0,0,0,0.1,0c0.1,0.1,0.2,0.1,0.3,0.2L157.9,48
		c0.1,0.1,0.1,0.2,0.2,0.3c0,0,0,0,0,0.1C158.3,48.5,158.4,48.6,158.4,48.8C158.4,48.7,158.4,48.8,158.4,48.8z M117.1,97.7h38.1V51
		h-11.6c-0.9,0-1.7-0.8-1.7-1.7V37.6H117v60.1H117.1z M145.3,40v7.7h7.5L145.3,40z M150.2,64.9c0.9,0,1.7,0.8,1.7,1.7
		s-0.7,1.7-1.7,1.7H122c-0.9,0-1.7-0.8-1.7-1.7s0.7-1.7,1.7-1.7H150.2z M150.2,74.5c0.9,0,1.7,0.8,1.7,1.7s-0.7,1.7-1.7,1.7H122
		c-0.9,0-1.7-0.8-1.7-1.7s0.7-1.7,1.7-1.7H150.2z M150.2,84c0.9,0,1.7,0.8,1.7,1.7s-0.7,1.7-1.7,1.7H122c-0.9,0-1.7-0.8-1.7-1.7
		S121,84,122,84H150.2z"/>
</g>
</svg>
