<?xml version="1.0" encoding="utf-8"?>
<!-- Generator: Adobe Illustrator 27.0.1, SVG Export Plug-In . SVG Version: 6.00 Build 0)  -->
<svg version="1.1" id="Layer_1" xmlns="http://www.w3.org/2000/svg" xmlns:xlink="http://www.w3.org/1999/xlink" x="0px" y="0px"
	 viewBox="0 0 24 24" style="enable-background:new 0 0 24 24;" xml:space="preserve">
<style type="text/css">
	.st0{fill-rule:evenodd;clip-rule:evenodd;fill:#666666;}
	.st1{fill:#666666;}
</style>
<g>
	<path id="Combined-Shape_00000115496345645047639480000003095390051025516167_" class="st0" d="M17.2,0.9c1.3,0,2.3,1.1,2.3,2.4V18
		c0,1.3-1,2.4-2.3,2.4h-3.8L10.7,23c-0.1,0.1-0.1,0.1-0.2,0.1c0,0-0.1,0-0.1,0c-0.1-0.1-0.2-0.2-0.2-0.3v-2.4H6.8
		c-1.3,0-2.3-1.1-2.3-2.4V3.3c0-1.3,1-2.4,2.3-2.4H17.2z M18.9,18V3.3c0-0.9-0.7-1.7-1.7-1.7H6.8c-0.9,0-1.7,0.8-1.7,1.7V18
		c0,0.9,0.7,1.7,1.7,1.7h3.7c0.2,0,0.3,0.2,0.3,0.3v1.9l2.1-2.2c0.1-0.1,0.1-0.1,0.2-0.1h4C18.1,19.7,18.9,18.9,18.9,18z M16.7,6.7
		C16.7,6.7,16.7,6.7,16.7,6.7C16.8,6.7,16.8,6.7,16.7,6.7l0,10.1c0,0.2-0.1,0.3-0.3,0.3H8.1c-0.2,0-0.3-0.2-0.3-0.3V4.1
		c0-0.2,0.1-0.3,0.3-0.3h5.6c0,0,0,0,0.1,0s0,0,0,0h0c0,0,0,0,0,0c0,0,0,0,0,0c0,0,0,0,0.1,0l2.6,2.7c0,0,0,0,0,0.1
		C16.7,6.6,16.7,6.6,16.7,6.7C16.7,6.6,16.7,6.6,16.7,6.7C16.7,6.6,16.7,6.7,16.7,6.7z M8.5,16.4h7.6V7.1h-2.3
		c-0.2,0-0.3-0.2-0.3-0.3V4.4h-5L8.5,16.4L8.5,16.4z M14.1,4.9v1.5h1.5L14.1,4.9z M15.1,9.9c0.2,0,0.3,0.2,0.3,0.3
		c0,0.2-0.1,0.3-0.3,0.3H9.5c-0.2,0-0.3-0.2-0.3-0.3c0-0.2,0.1-0.3,0.3-0.3H15.1z M15.1,11.8c0.2,0,0.3,0.2,0.3,0.3
		c0,0.2-0.1,0.3-0.3,0.3H9.5c-0.2,0-0.3-0.2-0.3-0.3c0-0.2,0.1-0.3,0.3-0.3H15.1z M15.1,13.7c0.2,0,0.3,0.2,0.3,0.3
		c0,0.2-0.1,0.3-0.3,0.3H9.5c-0.2,0-0.3-0.2-0.3-0.3c0-0.2,0.1-0.3,0.3-0.3H15.1z"/>
</g>
</svg>
