<?xml version="1.0" encoding="utf-8"?>
<!-- Generator: Adobe Illustrator 27.0.1, SVG Export Plug-In . SVG Version: 6.00 Build 0)  -->
<svg version="1.1" id="Layer_1" xmlns="http://www.w3.org/2000/svg" xmlns:xlink="http://www.w3.org/1999/xlink" x="0px" y="0px"
	 viewBox="0 0 24 24" style="enable-background:new 0 0 24 24;" xml:space="preserve">
<style type="text/css">
	.st0{fill-rule:evenodd;clip-rule:evenodd;fill:#666666;}
	.st1{fill:#666666;}
</style>
<g>
	<g>
		<g>
			<path class="st1" d="M17.8,16.5c0,0-0.1,0-0.1,0c-0.1-0.1-0.2-0.2-0.2-0.3V15h-3.4c-0.2,0-0.3-0.1-0.3-0.3c0-0.2,0.1-0.3,0.3-0.3
				h3.7c0.2,0,0.3,0.1,0.3,0.3v0.8l1.3-1.1c0.1-0.1,0.1-0.1,0.2-0.1h2.6c0.6,0,1-0.5,1-1V4.6c0-0.6-0.5-1-1-1h-11c-0.6,0-1,0.5-1,1
				v3.2c0,0.2-0.1,0.3-0.3,0.3C9.7,8.1,9.6,8,9.6,7.8V4.6c0-0.9,0.8-1.7,1.7-1.7h11c0.9,0,1.7,0.8,1.7,1.7v8.7
				c0,0.9-0.8,1.7-1.7,1.7h-2.5L18,16.5C18,16.5,17.9,16.5,17.8,16.5z"/>
		</g>
	</g>
	<g>
		<path class="st1" d="M6.2,21.1c-0.1,0-0.2,0-0.2-0.1l-1.7-1.5H1.7c-0.9,0-1.7-0.8-1.7-1.7V9.2c0-0.9,0.8-1.7,1.7-1.7h11
			c0.9,0,1.7,0.8,1.7,1.7v8.7c0,0.9-0.8,1.7-1.7,1.7H6.5v1.2c0,0.1-0.1,0.2-0.2,0.3C6.3,21.1,6.2,21.1,6.2,21.1z M1.7,8.1
			c-0.6,0-1,0.5-1,1v8.7c0,0.6,0.5,1,1,1h2.6c0.1,0,0.2,0,0.2,0.1l1.3,1.1v-0.8c0-0.2,0.1-0.3,0.3-0.3h6.5c0.6,0,1-0.5,1-1V9.2
			c0-0.6-0.5-1-1-1H1.7z"/>
	</g>
	<g>
		<g>
			<circle class="st1" cx="10.9" cy="13.5" r="0.6"/>
		</g>
		<g>
			<circle class="st1" cx="7.2" cy="13.5" r="0.6"/>
		</g>
		<g>
			<circle class="st1" cx="3.5" cy="13.5" r="0.6"/>
		</g>
	</g>
</g>
</svg>
