<?xml version="1.0" encoding="utf-8"?>
<!-- Generator: Adobe Illustrator 27.0.1, SVG Export Plug-In . SVG Version: 6.00 Build 0)  -->
<svg version="1.1" id="Layer_1" xmlns="http://www.w3.org/2000/svg" xmlns:xlink="http://www.w3.org/1999/xlink" x="0px" y="0px"
	 viewBox="0 0 24 24" style="enable-background:new 0 0 24 24;" xml:space="preserve">
<style type="text/css">
	.st0{fill-rule:evenodd;clip-rule:evenodd;fill:#666666;}
	.st1{fill:#666666;}
</style>
<g>
	<path id="Combined-Shape_00000003816616934621489460000003471280199560089759_" class="st0" d="M6.2,6.9c2.7,0,5,2.3,5,5.1
		s-2.2,5.1-5,5.1s-5-2.3-5-5.1S3.4,6.9,6.2,6.9z M6.2,16.4c2.4,0,4.3-2,4.3-4.4S8.5,7.6,6.2,7.6c-2.4,0-4.3,2-4.3,4.4
		C1.9,14.4,3.8,16.4,6.2,16.4z M17.8,6.9c2.7,0,5,2.3,5,5.1s-2.2,5.1-5,5.1s-5-2.3-5-5.1S15.1,6.9,17.8,6.9z M17.8,16.4
		c2.4,0,4.3-2,4.3-4.4s-1.9-4.4-4.3-4.4s-4.3,2-4.3,4.4S15.5,16.4,17.8,16.4z M8.6,9.5c0.2,0.2,0.2,0.5,0,0.7L6.8,12l1.8,1.8
		c0.2,0.2,0.2,0.5,0,0.7c-0.1,0.1-0.2,0.1-0.4,0.1c-0.1,0-0.3,0-0.4-0.1l-1.8-1.8l-1.8,1.8c-0.1,0.1-0.2,0.1-0.4,0.1
		c-0.1,0-0.3,0-0.4-0.1c-0.2-0.2-0.2-0.5,0-0.7L5.4,12l-1.8-1.8c-0.2-0.2-0.2-0.5,0-0.7s0.5-0.2,0.7,0l1.8,1.8l1.8-1.8
		C8.1,9.3,8.4,9.3,8.6,9.5z"/>
</g>
</svg>
