<?xml version="1.0" encoding="utf-8"?>
<!-- Generator: Adobe Illustrator 27.0.1, SVG Export Plug-In . SVG Version: 6.00 Build 0)  -->
<svg version="1.1" id="Layer_1" xmlns="http://www.w3.org/2000/svg" xmlns:xlink="http://www.w3.org/1999/xlink" x="0px" y="0px"
	 viewBox="0 0 24 24" style="enable-background:new 0 0 24 24;" xml:space="preserve">
<style type="text/css">
	.st0{fill-rule:evenodd;clip-rule:evenodd;fill:#666666;}
	.st1{fill:#666666;}
</style>
<g>
	<path id="Fill-1_00000143591655087715944290000015375237313596897727_" class="st0" d="M14.8,8.2V6.6c0,0,0,0,0.1,0
		c1.1-0.9,1.8-2.3,1.8-3.5c0-0.8-0.2-1.4-0.6-1.7c-0.6-0.5-1.5-0.2-2.4,0c-0.6,0.2-1.1,0.3-1.7,0.3c-0.5,0-1.1-0.2-1.7-0.3
		C9.4,1.1,8.6,0.9,8,1.4C7.6,1.7,7.4,2.2,7.4,3C7.4,4.3,8,5.6,9,6.5v1.8c-3.5,1.3-6.1,5.9-6.1,9.4c0,4.4,4.9,5.3,9.1,5.3
		s9.1-0.9,9.1-5.3C21.1,14.1,18.4,9.4,14.8,8.2L14.8,8.2z M12,22.1c-5.5,0-8.3-1.5-8.3-4.5c0-3.9,3.1-7.8,5.8-8.7h5h0.1
		c2.7,0.9,5.8,4.8,5.8,8.7C20.3,20.6,17.5,22.1,12,22.1L12,22.1z M8.1,3.1c0-0.4,0.1-0.9,0.3-1.1c0.1-0.1,0.2-0.1,0.4-0.1
		c0.4,0,0.9,0.1,1.3,0.3c0.6,0.2,1.2,0.4,1.9,0.4s1.3-0.2,1.9-0.4c0.7-0.2,1.4-0.4,1.7-0.2c0.3,0.2,0.3,0.7,0.3,1.1
		c0,1-0.6,2.2-1.4,2.9h-5C8.7,5.2,8.1,4.1,8.1,3.1L8.1,3.1z M9.8,8.2V6.7H14v1.5H9.8z M12.3,18.5c0.8,0,1.5-0.3,2.1-0.9
		c0.1-0.1,0.4-0.1,0.5,0c0.1,0.1,0.1,0.4,0,0.5c-0.7,0.7-1.6,1.1-2.6,1.1c-1.6,0-2.9-1-3.4-2.4H8c-0.2,0-0.4-0.2-0.4-0.4
		c0-0.2,0.2-0.4,0.4-0.4h0.7c0-0.2,0-0.4,0-0.6s0-0.4,0-0.6H8c-0.2,0-0.4-0.2-0.4-0.4c0-0.2,0.2-0.4,0.4-0.4h0.9
		c0.5-1.4,1.9-2.4,3.4-2.4c1,0,1.9,0.4,2.6,1.1c0.1,0.1,0.1,0.4,0,0.5c-0.1,0.1-0.4,0.1-0.5,0c-0.6-0.6-1.3-0.9-2.1-0.9
		c-1.1,0-2.1,0.7-2.6,1.6h2.1c0.2,0,0.4,0.2,0.4,0.4c0,0.2-0.2,0.4-0.4,0.4H9.5c0,0.2-0.1,0.4-0.1,0.6c0,0.2,0,0.4,0.1,0.6h2.4
		c0.2,0,0.4,0.2,0.4,0.4c0,0.2-0.2,0.4-0.4,0.4H9.7C10.2,17.8,11.2,18.5,12.3,18.5z"/>
</g>
</svg>
