<?xml version="1.0" encoding="utf-8"?>
<!-- Generator: Adobe Illustrator 27.0.1, SVG Export Plug-In . SVG Version: 6.00 Build 0)  -->
<svg version="1.1" id="Layer_1" xmlns="http://www.w3.org/2000/svg" xmlns:xlink="http://www.w3.org/1999/xlink" x="0px" y="0px"
	 viewBox="0 0 24 24" style="enable-background:new 0 0 24 24;" xml:space="preserve">
<style type="text/css">
	.st0{fill-rule:evenodd;clip-rule:evenodd;fill:#666666;}
	.st1{fill:#666666;}
</style>
<g>
	<g>
		<path class="st1" d="M13.9,18.6c0,0-0.1,0-0.1,0c-0.1,0-0.2-0.2-0.2-0.3v-2.1h-2.9c-1.1,0-2-0.9-2-2.1V8.6c0-1.1,0.9-2.1,2-2.1h9
			c1.1,0,2,0.9,2,2.1v5.5c0,1.1-0.9,2.1-2,2.1h-3.3l-2.3,2.3C14,18.6,13.9,18.6,13.9,18.6z M10.7,7.1c-0.8,0-1.4,0.7-1.4,1.5v5.5
			c0,0.8,0.6,1.5,1.4,1.5h3.2c0.2,0,0.3,0.1,0.3,0.3v1.7l1.8-1.9c0.1-0.1,0.1-0.1,0.2-0.1h3.4c0.8,0,1.4-0.7,1.4-1.5V8.6
			c0-0.8-0.6-1.5-1.4-1.5H10.7z"/>
	</g>
	<g>
		<path class="st1" d="M13.9,23.2H2.6c-0.2,0-0.3-0.1-0.3-0.3V1.1c0-0.2,0.1-0.3,0.3-0.3h11.2c0.2,0,0.3,0.1,0.3,0.3v21.8
			C14.2,23.1,14,23.2,13.9,23.2z M2.9,22.6h10.6V1.4H2.9V22.6z"/>
	</g>
	<g>
		<path class="st1" d="M13.9,19.9H2.6c-0.2,0-0.3-0.1-0.3-0.3V4.4c0-0.2,0.1-0.3,0.3-0.3h11.2c0.2,0,0.3,0.1,0.3,0.3v15.1
			C14.2,19.7,14,19.9,13.9,19.9z M2.9,19.3h10.6V4.7H2.9V19.3z"/>
	</g>
	<g>
		<path class="st1" d="M8.3,22c-0.4,0-0.7-0.3-0.7-0.7c0-0.4,0.3-0.7,0.7-0.7S9,20.8,9,21.2C9,21.6,8.7,22,8.3,22z M8.3,21.1
			c-0.1,0-0.1,0.1-0.1,0.1s0.1,0.1,0.1,0.1s0.1-0.1,0.1-0.1S8.3,21.1,8.3,21.1z"/>
	</g>
	<g>
		<path class="st1" d="M9.9,3H6.6C6.5,3,6.3,2.9,6.3,2.7s0.1-0.3,0.3-0.3h3.2c0.2,0,0.3,0.1,0.3,0.3S10,3,9.9,3z"/>
	</g>
</g>
</svg>
