<?xml version="1.0" encoding="utf-8"?>
<!-- Generator: Adobe Illustrator 27.0.1, SVG Export Plug-In . SVG Version: 6.00 Build 0)  -->
<svg version="1.1" id="Layer_1" xmlns="http://www.w3.org/2000/svg" xmlns:xlink="http://www.w3.org/1999/xlink" x="0px" y="0px"
	 viewBox="0 0 24 24" style="enable-background:new 0 0 24 24;" xml:space="preserve">
<style type="text/css">
	.st0{fill-rule:evenodd;clip-rule:evenodd;fill:#666666;}
	.st1{fill:#666666;}
</style>
<g>
	<path id="Combined-Shape_00000028290789690567537500000000133472502561875611_" class="st0" d="M24,15.3c0,0.7-0.8,0.8-1.3,0.8
		c0,0-0.1,0-0.1,0c0,0,0,0,0,0c0.2,0.2,0.5,0.5,0.4,0.9c-0.1,0.3-0.2,0.4-0.4,0.5c0.1,0.2,0.2,0.4,0.2,0.7c-0.1,0.4-0.5,0.5-0.8,0.6
		c0,0,0,0,0,0c0.1,0.5,0.4,1.4-0.3,1.9c-0.6,0.5-2,0.5-3.7,0.5c-0.1,0-0.2,0-0.2,0c-0.3,0.6-1.1,2.3-2.5,2.5c-0.1,0-0.3,0-0.4,0
		c-0.8,0-1.9-0.3-3-0.7c-1,0.5-2.1,0.7-3,0.7c-0.2,0-0.3,0-0.4,0c-1.4-0.2-2.2-1.8-2.5-2.5c-0.1,0-0.2,0-0.2,0c-1.7,0-3.1,0-3.7-0.5
		c-0.7-0.5-0.4-1.4-0.3-1.9c0,0,0,0,0,0c-0.2-0.1-0.6-0.2-0.8-0.6c-0.1-0.2,0-0.5,0.2-0.7C1.2,17.4,1,17.2,1,17
		c-0.1-0.4,0.2-0.7,0.4-0.9c0,0,0,0,0,0c0,0-0.1,0-0.1,0C0.8,16,0,16,0,15.3c0-0.4,0.4-1.1,1-2.1c0.3-0.5,0.8-1.3,0.8-1.5
		c0-4.1,1.9-6.9,5.1-7.5c2-0.4,4.7-0.1,5.1,0c0.4-0.1,3-0.4,5.1,0c3.2,0.6,5.1,3.4,5.1,7.5c0,0.2,0.5,1,0.8,1.5
		C23.6,14.2,24,14.9,24,15.3z M21.8,15.9c0-0.4,0.5-0.5,0.9-0.5c0.2,0,0.6-0.1,0.7-0.1c0-0.2-0.6-1.2-0.9-1.7
		c-0.6-1-0.9-1.5-0.9-1.9c0-5.4-3.2-6.6-4.5-6.9c-0.8-0.2-1.8-0.2-2.7-0.2c2.3,1.1,3,3.7,3,5.1c0,1.8-0.7,3.1-1.4,4.3
		c-0.6,1.1-1.2,2.2-1.2,3.6c0,0.7-0.2,1-0.4,1.2c0.1,0.2,0.3,0.6,0.3,1.1c0,0.7-0.4,1.4-1,2c-0.3,0.2-0.5,0.4-0.8,0.6
		c0.9,0.4,1.9,0.5,2.5,0.4c1.1-0.1,1.8-1.7,2-2.2c0-0.1,0.2-0.2,0.3-0.2c0.1,0,0.3,0,0.5,0c1.1,0,2.8,0,3.3-0.3
		c0.3-0.2,0.2-0.7,0-1.2c-0.1-0.2-0.1-0.3-0.1-0.4c0-0.4,0.4-0.4,0.5-0.5c0.2,0,0.3-0.1,0.3-0.1c0-0.1-0.2-0.3-0.3-0.4
		c-0.1-0.1-0.2-0.2-0.1-0.4c0-0.1,0.1-0.2,0.3-0.2c0.2,0,0.4-0.1,0.4-0.2c0-0.1-0.2-0.2-0.2-0.3C22,16.4,21.8,16.2,21.8,15.9z
		 M8.7,22.9c0.6,0.1,1.6-0.1,2.5-0.4c-0.3-0.2-0.6-0.4-0.8-0.6c-0.7-0.6-1-1.3-1-2c0-0.5,0.2-0.9,0.3-1.1c-0.2-0.2-0.4-0.6-0.4-1.2
		c0-1.5-0.6-2.5-1.2-3.6c-0.7-1.2-1.4-2.4-1.4-4.3c0-1.4,0.8-4,3.1-5.1c-0.9,0-1.8,0-2.7,0.2c-1.4,0.3-4.5,1.5-4.5,6.9
		c0,0.4-0.3,0.9-0.9,1.9c-0.4,0.6-0.9,1.5-0.9,1.7c0.1,0.1,0.5,0.1,0.7,0.1c0.4,0,0.9,0.1,0.9,0.5c0,0.3-0.2,0.5-0.4,0.7
		c-0.1,0.1-0.2,0.2-0.2,0.3C1.6,16.9,1.8,17,2,17c0.1,0,0.2,0.1,0.3,0.2c0,0.1,0,0.3-0.1,0.4C2,17.7,1.8,17.9,1.8,18
		c0,0.1,0.2,0.1,0.3,0.1c0.2,0,0.5,0.1,0.5,0.5c0,0.1,0,0.2-0.1,0.4c-0.1,0.5-0.3,1,0,1.2c0.5,0.4,2.2,0.4,3.3,0.3
		c0.2,0,0.3,0,0.5,0c0.1,0,0.3,0.1,0.3,0.2C6.7,20.7,7.4,22.8,8.7,22.9z M13.8,18.4c0.1,0,0.3-0.1,0.3-0.8c0-1.6,0.7-2.8,1.3-3.9
		c0.7-1.2,1.3-2.3,1.3-3.9c0-1.6-1.1-4.9-4.7-4.9S7.3,8.1,7.3,9.7c0,1.7,0.6,2.8,1.3,3.9c0.6,1.1,1.3,2.3,1.3,3.9
		c0,0.6,0.3,0.8,0.3,0.8H12H13.8z M12,19h-1.7c-0.1,0.1-0.3,0.4-0.3,0.9c0,0.5,0.3,1,0.8,1.5c0.3,0.3,0.7,0.6,1.2,0.8
		c0.4-0.2,0.8-0.5,1.2-0.8c0.5-0.5,0.8-1,0.8-1.5c0-0.4-0.2-0.7-0.3-0.9H12z M11.9,3.2c-0.2,0-0.3-0.1-0.3-0.3V0.7
		c0-0.2,0.1-0.3,0.3-0.3c0.2,0,0.3,0.1,0.3,0.3v2.2C12.2,3,12.1,3.2,11.9,3.2z M8.7,2.9L7.9,1.4C7.8,1.3,7.9,1.1,8,1
		c0.2-0.1,0.4,0,0.4,0.1l0.8,1.5c0.1,0.2,0,0.4-0.1,0.4c0,0-0.1,0-0.2,0C8.8,3.1,8.7,3,8.7,2.9z M14.7,3c-0.2-0.1-0.2-0.3-0.1-0.4
		l0.8-1.5C15.4,1,15.6,0.9,15.8,1c0.2,0.1,0.2,0.3,0.1,0.4l-0.8,1.5C15,3,14.9,3.1,14.8,3.1C14.8,3.1,14.7,3.1,14.7,3z M10.9,6.1
		c0.2-0.1,0.4,0,0.4,0.2c0.1,0.2,0,0.4-0.2,0.4c-0.3,0.1-0.6,0.3-0.9,0.6c-0.1,0.1-0.1,0.1-0.2,0.1c-0.1,0-0.2,0-0.2-0.1
		c-0.1-0.1-0.1-0.3,0-0.5C10.1,6.5,10.5,6.3,10.9,6.1z M9.3,7.9C9.4,8,9.5,8.2,9.4,8.4C9,9.3,9,10.2,9,10.2c0,0.2-0.1,0.3-0.3,0.3h0
		c-0.2,0-0.3-0.1-0.3-0.3c0,0,0-1.1,0.5-2.1C8.9,7.9,9.1,7.9,9.3,7.9z"/>
</g>
</svg>
