<?xml version="1.0" encoding="utf-8"?>
<!-- Generator: Adobe Illustrator 27.0.1, SVG Export Plug-In . SVG Version: 6.00 Build 0)  -->
<svg version="1.1" id="Layer_1" xmlns="http://www.w3.org/2000/svg" xmlns:xlink="http://www.w3.org/1999/xlink" x="0px" y="0px"
	 viewBox="0 0 24 24" style="enable-background:new 0 0 24 24;" xml:space="preserve">
<style type="text/css">
	.st0{fill-rule:evenodd;clip-rule:evenodd;fill:#666666;}
	.st1{fill:#666666;}
</style>
<g>
	<path id="Combined-Shape_00000077302746572081497580000016485164256572141502_" class="st0" d="M15.2,2.6h4.3
		c0.2,0,0.3,0.2,0.3,0.3v19.7c0,0.2-0.2,0.3-0.3,0.3h-15c-0.2,0-0.3-0.2-0.3-0.3V3c0-0.2,0.2-0.3,0.3-0.3h4.3l0.3-1.4
		C9.1,1.1,9.3,1,9.4,1h5.2c0.2,0,0.3,0.1,0.3,0.3L15.2,2.6z M19.1,22.3v-19h-3.8l0.3,1.2c0,0.1,0,0.2-0.1,0.3S15.4,5,15.3,5H8.7
		c-0.1,0-0.2,0-0.3-0.1C8.4,4.8,8.4,4.7,8.4,4.6l0.3-1.2H4.9v19L19.1,22.3L19.1,22.3z M9.3,3.3l0.1-0.7l0.2-1h4.6l0.2,1l0.1,0.7
		l0.2,1H9.1L9.3,3.3z M11.1,8.6c0-0.3,0.2-0.5,0.5-0.5h5.6c0.3,0,0.5,0.2,0.5,0.5c0,0.3-0.2,0.5-0.5,0.5h-5.6
		C11.3,9.1,11.1,8.9,11.1,8.6z M9.4,7.1C9.6,6.9,9.9,6.9,10.1,7c0.2,0.2,0.2,0.5,0.1,0.7l-2.1,2.4c-0.1,0.1-0.2,0.2-0.4,0.2
		c0,0,0,0,0,0c-0.2,0-0.3-0.1-0.4-0.2L6.5,8.9C6.3,8.7,6.4,8.4,6.6,8.2c0.2-0.2,0.5-0.1,0.7,0.1l0,0.1L7.7,9l1-1.1L9.4,7.1z
		 M17.1,13c0.3,0,0.5,0.2,0.5,0.5S17.4,14,17.1,14h-5.6c-0.3,0-0.5-0.2-0.5-0.5s0.2-0.5,0.5-0.5H17.1z M9.4,12
		c0.2-0.2,0.5-0.2,0.7-0.1c0.2,0.2,0.2,0.5,0.1,0.7l-2.1,2.4c-0.1,0.1-0.2,0.2-0.4,0.2c0,0,0,0,0,0c-0.2,0-0.3-0.1-0.4-0.2l-0.8-1.2
		c-0.2-0.2-0.1-0.5,0.1-0.7c0.2-0.2,0.5-0.1,0.7,0.1l0,0.1l0.4,0.6l1-1.1L9.4,12z M17.1,17.9c0.3,0,0.5,0.2,0.5,0.5
		c0,0.3-0.2,0.5-0.5,0.5h-5.6c-0.3,0-0.5-0.2-0.5-0.5c0-0.3,0.2-0.5,0.5-0.5H17.1z M9.9,16.8c0.2,0.2,0.2,0.5,0,0.7L9,18.4l0.9,0.9
		c0.2,0.2,0.2,0.5,0,0.7c-0.1,0.1-0.2,0.1-0.4,0.1c-0.1,0-0.3,0-0.4-0.1l-0.9-0.9L7.4,20c-0.1,0.1-0.2,0.1-0.4,0.1
		c-0.1,0-0.3,0-0.4-0.1c-0.2-0.2-0.2-0.5,0-0.7l0.9-0.9l-0.9-0.9c-0.2-0.2-0.2-0.5,0-0.7c0.2-0.2,0.5-0.2,0.7,0l0.9,0.9l0.9-0.9
		C9.4,16.6,9.7,16.6,9.9,16.8z"/>
</g>
</svg>
