<?xml version="1.0" encoding="utf-8"?>
<!-- Generator: Adobe Illustrator 27.0.1, SVG Export Plug-In . SVG Version: 6.00 Build 0)  -->
<svg version="1.1" id="Layer_1" xmlns="http://www.w3.org/2000/svg" xmlns:xlink="http://www.w3.org/1999/xlink" x="0px" y="0px"
	 viewBox="0 0 24 24" style="enable-background:new 0 0 24 24;" xml:space="preserve">
<style type="text/css">
	.st0{fill-rule:evenodd;clip-rule:evenodd;fill:#666666;}
	.st1{fill:#666666;}
</style>
<g>
	<path id="Combined-Shape_00000110458005779452868380000016961029807130281633_" class="st0" d="M13.5,8.7h9.9v-2h-9.9L13.5,8.7
		L13.5,8.7z M23.7,6.1c0.2,0,0.3,0.2,0.3,0.3v2.6c0,0.2-0.1,0.3-0.3,0.3H13.1c-0.2,0-0.3-0.2-0.3-0.3V6.5c0-0.2,0.1-0.3,0.3-0.3
		H23.7z M23.7,11.1c0.2,0,0.3,0.2,0.3,0.3V14c0,0.2-0.1,0.3-0.3,0.3H13.1c-0.2,0-0.3-0.2-0.3-0.3v-2.6c0-0.2,0.1-0.3,0.3-0.3H23.7z
		 M13.5,13.7h9.9v-2h-9.9L13.5,13.7L13.5,13.7z M23.7,16c0.2,0,0.3,0.2,0.3,0.3v2.6c0,0.2-0.1,0.3-0.3,0.3H13.1
		c-0.2,0-0.3-0.2-0.3-0.3v-2.6c0-0.2,0.1-0.3,0.3-0.3H23.7z M13.5,18.6h9.9v-2h-9.9L13.5,18.6L13.5,18.6z M10.9,16
		c0.2,0,0.3,0.2,0.3,0.3v2.6c0,0.2-0.1,0.3-0.3,0.3H7c-3.6,0-5.3-1.8-6.2-3.3C0,14.4,0,12.9,0,12.7c0-0.2-0.1-2.7,1.6-4.6
		c1.1-1.2,2.7-1.8,4.7-1.9V5.1c0-0.1,0.1-0.2,0.2-0.3c0.1-0.1,0.2-0.1,0.3,0L11,7.6c0.1,0.1,0.2,0.2,0.2,0.3c0,0.1-0.1,0.2-0.1,0.3
		L6.8,11C6.7,11,6.6,11,6.5,11c-0.1-0.1-0.2-0.2-0.2-0.3V9.5c-1.1,0.1-1.9,0.4-2.4,1c-0.8,0.9-0.7,2.1-0.7,2.1c0,0,0,0,0,0
		C3.2,12.8,3.3,16,7,16L10.9,16L10.9,16z M10.6,18.6v-2H7c-4.2,0-4.5-3.6-4.5-3.9c0-0.2-0.1-1.6,0.8-2.6c0.7-0.8,1.8-1.2,3.3-1.2
		C6.8,8.8,7,9,7,9.2V10l3.3-2.2L7,5.7v0.9c0,0.2-0.1,0.3-0.3,0.3c-2,0-3.5,0.6-4.6,1.7c-1.5,1.7-1.4,4.1-1.4,4.1v0
		c0,0.2,0.1,5.9,6.4,5.9H10.6z"/>
</g>
</svg>
