<?xml version="1.0" encoding="utf-8"?>
<!-- Generator: Adobe Illustrator 27.0.1, SVG Export Plug-In . SVG Version: 6.00 Build 0)  -->
<svg version="1.1" id="Layer_1" xmlns="http://www.w3.org/2000/svg" xmlns:xlink="http://www.w3.org/1999/xlink" x="0px" y="0px"
	 viewBox="0 0 24 24" style="enable-background:new 0 0 24 24;" xml:space="preserve">
<style type="text/css">
	.st0{fill-rule:evenodd;clip-rule:evenodd;fill:#666666;}
	.st1{fill:#666666;}
</style>
<g>
	<path id="bulbmap-copy_00000077316202816164450030000013751736219899019664_" class="st0" d="M16.1,5.3l6.6,1.2
		c0.2,0,0.3,0.2,0.3,0.3v15c0,0.1,0,0.2-0.1,0.3c-0.1,0.1-0.2,0.1-0.3,0.1l-6.6-1.2l-1.6,0.5c-0.4,1.2-1.4,2.1-2.5,2.1
		c-0.6,0-1.2-0.3-1.7-0.7l-2.1,0.7c0,0-0.1,0-0.2,0l-6.6-1.2C1.1,22.3,1,22.2,1,22V7c0-0.1,0-0.2,0.1-0.3c0.1-0.1,0.2-0.1,0.3-0.1
		l5.6,1C7.6,6,9.2,4.2,12,4.2c1.5,0,2.6,0.5,3.5,1.2c0,0,0.5-0.1,0.5-0.2C16,5.3,16,5.3,16.1,5.3C16,5.3,16,5.3,16.1,5.3z
		 M13.6,21.7c0.1-0.2,0.2-0.5,0.3-0.8c0-0.2,0-0.3,0-0.5c0-0.5-0.2-0.9-0.3-1.1H12h-1.8c-0.1,0.2-0.3,0.6-0.3,1.1
		c0,0.6,0.2,1.2,0.6,1.6c0.2,0.2,0.4,0.4,0.6,0.5c0.3,0.2,0.6,0.3,0.9,0.3C12.5,22.9,13.2,22.4,13.6,21.7z M7.7,7.8
		C7.6,8.1,7.5,8.3,7.4,8.5C7.3,9,7.2,9.5,7.2,9.9c0,0.9,0.2,1.6,0.5,2.3c0.2,0.5,0.4,0.9,0.7,1.3c0.1,0.1,0.1,0.2,0.2,0.3
		c0.6,1.1,1.3,2.3,1.3,4c0,0.6,0.3,0.8,0.3,0.8h1.9h1.9c0.1,0,0.3-0.2,0.3-0.8c0-1.7,0.7-2.9,1.3-4c0.1-0.1,0.1-0.2,0.2-0.3
		c0.2-0.4,0.5-0.9,0.7-1.3c0.3-0.7,0.5-1.4,0.5-2.3c0-0.6-0.1-1.3-0.5-2.1c-0.2-0.4-0.4-0.8-0.7-1.1c-0.1-0.2-0.3-0.3-0.4-0.5
		c-0.2-0.2-0.4-0.4-0.6-0.5c-0.7-0.5-1.6-0.8-2.7-0.8C9.6,4.9,8.3,6.4,7.7,7.8z M7.7,22.8v-9.1c-0.6-1.1-1.1-2.2-1.1-3.8
		c0-0.4,0.1-1,0.2-1.5L1.7,7.4v14.3L7.7,22.8z M8.3,22.8l1.4-0.5c-0.4-0.5-0.6-1.2-0.6-1.8c0-0.6,0.2-1.1,0.4-1.4
		c-0.2-0.2-0.4-0.6-0.4-1.2c0-1.2-0.4-2.1-0.9-3C8.3,14.9,8.3,22.8,8.3,22.8z M14.6,20.7l1.1-0.4v-5.5c-0.5,0.9-0.9,1.8-0.9,3
		c0,0.8-0.3,1.2-0.6,1.3c0.1,0.3,0.3,0.7,0.3,1.2C14.6,20.5,14.6,20.6,14.6,20.7z M22.4,21.4V7.1l-6-1.1v0.4
		c0.8,1.2,1.1,2.5,1.1,3.4c0,1.6-0.5,2.8-1.1,3.8v6.6L22.4,21.4z M11.9,3.3c-0.2,0-0.3-0.1-0.3-0.3V0.8c0-0.2,0.1-0.3,0.3-0.3
		s0.3,0.1,0.3,0.3V3C12.2,3.1,12.1,3.3,11.9,3.3z M8.6,3L7.8,1.5c-0.1-0.2,0-0.4,0.1-0.4C8.1,1,8.3,1,8.4,1.2l0.8,1.5
		C9.3,2.8,9.2,3,9,3.1c-0.1,0-0.1,0-0.2,0C8.8,3.2,8.7,3.1,8.6,3z M14.8,3.1c-0.2-0.1-0.2-0.3-0.1-0.4l0.8-1.5
		C15.5,1,15.7,1,15.9,1.1C16,1.1,16.1,1.3,16,1.5L15.2,3c-0.1,0.1-0.2,0.2-0.3,0.2C14.9,3.2,14.8,3.1,14.8,3.1z M9.7,7.4
		C9.7,7.4,9.7,7.4,9.7,7.4C9.6,7.2,9.7,7,9.8,6.9c0.3-0.3,0.7-0.5,1.1-0.7c0.2-0.1,0.4,0,0.4,0.2c0.1,0.2,0,0.4-0.2,0.4
		c-0.1,0-0.1,0-0.2,0.1c-0.3,0.1-0.5,0.3-0.8,0.5c-0.1,0.1-0.1,0.1-0.2,0.1C9.9,7.5,9.8,7.5,9.7,7.4z M8.6,10.7
		c-0.1,0-0.2-0.1-0.3-0.2c0-0.1-0.1-0.1-0.1-0.2c0,0,0-0.3,0.1-0.6c0.1-0.4,0.2-0.9,0.4-1.5c0,0,0-0.1,0-0.1C8.9,8.1,9.1,8,9.2,8.1
		c0,0,0.1,0,0.1,0.1c0.1,0.1,0.1,0.2,0.1,0.4c-0.4,0.9-0.5,1.9-0.5,1.9C8.9,10.6,8.8,10.7,8.6,10.7L8.6,10.7z"/>
</g>
</svg>
