<?xml version="1.0" encoding="utf-8"?>
<!-- Generator: Adobe Illustrator 27.0.1, SVG Export Plug-In . SVG Version: 6.00 Build 0)  -->
<svg version="1.1" id="Layer_1" xmlns="http://www.w3.org/2000/svg" xmlns:xlink="http://www.w3.org/1999/xlink" x="0px" y="0px"
	 viewBox="0 0 24 24" style="enable-background:new 0 0 24 24;" xml:space="preserve">
<style type="text/css">
	.st0{fill-rule:evenodd;clip-rule:evenodd;fill:#666666;}
	.st1{fill:#666666;}
</style>
<g>
	<path id="Fill-1_00000000190915216625766950000009931930836668265884_" class="st0" d="M23.7,3.4l-6.2-1.3l0,0c0,0,0,0-0.1,0h-1.1
		H6.6c-0.2,0-0.4,0.2-0.4,0.4v2.2l-5.8-1c-0.1,0-0.2,0-0.3,0.1C0.1,3.8,0,3.9,0,4v16.3c0,0.2,0.1,0.3,0.3,0.4l7.3,1.3c0,0,0,0,0.1,0
		h8.8c0.2,0,0.4-0.2,0.4-0.4v-2.4l6.8,1.2c0.1,0,0.2,0,0.3-0.1c0.1-0.1,0.1-0.2,0.1-0.3V3.7C24,3.6,23.9,3.4,23.7,3.4L23.7,3.4z
		 M23.3,19.6l-6.5-1.2v-5.9c0.3-0.4,0.5-0.9,0.7-1.4c0,0,0.1,0,0.1,0c1.7,0,3.7-1.7,3.7-4.1c0-1-0.3-1.7-0.8-2.1
		c-0.8-0.6-1.8-0.4-2.4-0.2c-0.1,0-0.2,0-0.3,0.1V2.9L23.3,4L23.3,19.6L23.3,19.6z M0.7,4.4l2.8,0.5l0,0C3,5.4,2.7,6.1,2.7,7.1
		c0,2.3,1.9,4.1,3.7,4.1c0,0,0.1,0,0.1,0c0.2,0.5,0.4,0.9,0.7,1.3v6.3v2.4l-6.5-1.2L0.7,4.4L0.7,4.4z M17.8,9.4V5.5
		c0.1,0,0.3,0,0.5-0.1c0.5-0.1,1.3-0.3,1.8,0.1c0.3,0.3,0.5,0.8,0.5,1.6c0,1.9-1.5,3.3-2.9,3.3C17.8,10.1,17.8,9.7,17.8,9.4
		L17.8,9.4z M16,18.3c-0.8-0.1-2.6-0.7-2.6-3.3c1-0.3,1.9-0.9,2.6-1.6V18.3z M10.6,15c-0.1,2.7-1.8,3.2-2.6,3.3v-5
		C8.7,14.1,9.6,14.7,10.6,15L10.6,15z M3.9,5.5c0.5-0.4,1.3-0.2,1.8-0.1c0.2,0,0.3,0.1,0.5,0.1v3.9c0,0.3,0,0.7,0.1,1
		C5,10.4,3.4,8.9,3.4,7.1C3.4,6.3,3.6,5.8,3.9,5.5L3.9,5.5z M9.8,18.4c0.8-0.6,1.5-1.5,1.6-3.3h1.4c0.1,1.8,0.8,2.7,1.6,3.3H9.8z
		 M6.9,4.8v-2h8H16h0.7h0.3v0.1v6.5c0,0.5-0.1,1.1-0.3,1.6c-0.2,0.4-0.4,0.9-0.7,1.3c-0.8,1-1.8,1.8-3,2.1h-2
		c-1.2-0.3-2.3-1.1-3-2.1c-0.3-0.4-0.5-0.8-0.7-1.3C7.1,10.5,7,9.9,7,9.4V5.5L6.9,4.8L6.9,4.8z M16,19.2v2H9.9H8v-0.1v-2h6.1H16
		V19.2z M11.1,10.6h0.7V5.7h-0.7c-0.2,0-0.4-0.2-0.4-0.4S10.9,5,11.1,5h1.1c0.2,0,0.4,0.2,0.4,0.4v5.3h0.7c0.2,0,0.4,0.2,0.4,0.4
		c0,0.2-0.2,0.4-0.4,0.4h-1.1h-1.1c-0.2,0-0.4-0.2-0.4-0.4C10.8,10.7,10.9,10.6,11.1,10.6z"/>
</g>
</svg>
