<svg width="58" height="35" viewBox="0 0 58 35" fill="none" xmlns="http://www.w3.org/2000/svg">
<g clip-path="url(#clip0_5050_16693)">
<path d="M14.9238 3.0835C7.94154 3.0835 2.78846 5.36929 0.557692 9.33709L7.33923 14.4909C8.49923 12.6795 11.2208 11.5582 14.7454 11.5582C17.6008 11.5582 19.1623 12.2698 19.1623 13.4343V13.6715C19.1623 14.189 18.7385 14.4909 17.8238 14.5987L9.63692 15.2888C3.81462 15.7632 0 19.4506 0 24.5182C0 29.8445 4.23846 33.7045 10.1946 33.7045C14.0762 33.7045 17.2885 32.001 19.1623 29.1976V33.0576H28.8662V15.6338C28.8662 7.15911 24.36 3.0835 14.9238 3.0835ZM19.1623 21.1973C19.1623 24.1732 16.7977 26.3512 13.4738 26.3512C11.2877 26.3512 10.0162 25.4239 10.0162 23.8282C10.0162 22.4912 11.1092 21.6071 13.05 21.3699L19.1623 20.6582V21.1973Z" fill="black"/>
<path fill-rule="evenodd" clip-rule="evenodd" d="M46.7571 34.0282H35.8486V22.3404V12.1406H46.4671H58.0002V22.5561H46.7571V34.0282Z" fill="black"/>
<path fill-rule="evenodd" clip-rule="evenodd" d="M35.0234 0H45.9318V11.7093V21.8876H35.291H23.7803V11.4721H35.0234V0Z" fill="#1DD1E2" fill-opacity="0.85"/>
</g>
<defs>
<clipPath id="clip0_5050_16693">
<rect width="58" height="34.0282" fill="white"/>
</clipPath>
</defs>
</svg>
