<svg width="21" height="21" viewBox="0 0 21 21" fill="none" xmlns="http://www.w3.org/2000/svg">
  <path d="M8.92969 1.37109L9.97031 0.330469C10.4109 -0.110156 11.1234 -0.110156 11.5594 0.330469L20.6719 9.43828C21.1125 9.87891 21.1125 10.5914 20.6719 11.0273L11.5594 20.1398C11.1187 20.5805 10.4062 20.5805 9.97031 20.1398L8.92969 19.0992C8.48437 18.6539 8.49375 17.9273 8.94844 17.4914L14.5969 12.1102H1.125C0.501562 12.1102 0 11.6086 0 10.9852V9.48516C0 8.86172 0.501562 8.36016 1.125 8.36016H14.5969L8.94844 2.97891C8.48906 2.54297 8.47969 1.81641 8.92969 1.37109Z" fill="currentColor"/>
</svg>
