<svg xmlns="http://www.w3.org/2000/svg" viewBox="0 0 15 10.875" fill="none" aria-hidden="true">
  <path d="M2.95703 6.87695C2.43041 7.70833 2.125 8.69429 2.125 9.75V10.125C2.125 10.2094 2.12903 10.2929 2.1377 10.375H0.75C0.611299 10.375 0.5 10.2637 0.5 10.125V9.375C0.5 8.00847 1.59598 6.8999 2.95703 6.87695ZM7.5 6.5C9.29573 6.5 10.75 7.95427 10.75 9.75V10.125C10.75 10.2637 10.6387 10.375 10.5 10.375H4.5C4.3613 10.375 4.25 10.2637 4.25 10.125V9.75C4.25 7.95427 5.70427 6.5 7.5 6.5ZM12.042 6.87695C13.4035 6.89938 14.5 8.00814 14.5 9.375V10.125C14.5 10.2637 14.3887 10.375 14.25 10.375H12.8623C12.871 10.2929 12.875 10.2094 12.875 10.125V9.75C12.875 8.6941 12.5688 7.70842 12.042 6.87695ZM2.25 2.1875C2.4059 2.1875 2.56007 2.21868 2.7041 2.27832C2.84818 2.338 2.97957 2.42489 3.08984 2.53516C3.20011 2.64543 3.287 2.77682 3.34668 2.9209C3.40632 3.06493 3.4375 3.2191 3.4375 3.375C3.4375 3.5309 3.40632 3.68507 3.34668 3.8291C3.287 3.97318 3.20011 4.10457 3.08984 4.21484C2.97957 4.32511 2.84818 4.412 2.7041 4.47168C2.56007 4.53132 2.4059 4.5625 2.25 4.5625L2.13379 4.55664C2.01776 4.54523 1.90401 4.51645 1.7959 4.47168C1.65182 4.412 1.52043 4.32511 1.41016 4.21484C1.29989 4.10457 1.213 3.97318 1.15332 3.8291C1.09368 3.68507 1.0625 3.5309 1.0625 3.375C1.0625 3.2191 1.09368 3.06493 1.15332 2.9209C1.213 2.77682 1.29989 2.64543 1.41016 2.53516C1.52043 2.42489 1.65182 2.338 1.7959 2.27832C1.90401 2.23355 2.01776 2.20477 2.13379 2.19336L2.25 2.1875ZM12.75 2.1875C13.0649 2.1875 13.3671 2.31246 13.5898 2.53516C13.8125 2.75786 13.9375 3.06006 13.9375 3.375C13.9375 3.68994 13.8125 3.99214 13.5898 4.21484C13.3671 4.43754 13.0649 4.5625 12.75 4.5625C12.4351 4.5625 12.1329 4.43754 11.9102 4.21484C11.6875 3.99214 11.5625 3.68994 11.5625 3.375C11.5625 3.06006 11.6875 2.75786 11.9102 2.53516C12.1329 2.31246 12.4351 2.1875 12.75 2.1875ZM7.5 0.5C8.01386 0.5 8.50677 0.704031 8.87012 1.06738C9.23347 1.43073 9.4375 1.92364 9.4375 2.4375L9.42773 2.62891C9.38371 3.07247 9.18806 3.48967 8.87012 3.80762C8.50677 4.17097 8.01386 4.375 7.5 4.375C6.98614 4.375 6.49323 4.17097 6.12988 3.80762C5.76653 3.44427 5.5625 2.95136 5.5625 2.4375L5.57227 2.24609C5.61629 1.80253 5.81194 1.38533 6.12988 1.06738C6.44783 0.749435 6.86503 0.553793 7.30859 0.509766L7.5 0.5Z" stroke="currentColor"/>
</svg>
