<svg width="32" height="32" viewBox="0 0 32 32" fill="none" xmlns="http://www.w3.org/2000/svg">
  <path d="M6.95703 9.54068C6.95703 8.82623 7.53424 8.24902 8.24868 8.24902H23.7485C24.463 8.24902 25.0402 8.82623 25.0402 9.54068C25.0402 10.2551 24.463 10.8323 23.7485 10.8323H8.24868C7.53424 10.8323 6.95703 10.2551 6.95703 9.54068ZM6.95703 15.9989C6.95703 15.2845 7.53424 14.7073 8.24868 14.7073H23.7485C24.463 14.7073 25.0402 15.2845 25.0402 15.9989C25.0402 16.7134 24.463 17.2906 23.7485 17.2906H8.24868C7.53424 17.2906 6.95703 16.7134 6.95703 15.9989ZM25.0402 22.4572C25.0402 23.1717 24.463 23.7489 23.7485 23.7489H8.24868C7.53424 23.7489 6.95703 23.1717 6.95703 22.4572C6.95703 21.7428 7.53424 21.1656 8.24868 21.1656H23.7485C24.463 21.1656 25.0402 21.7428 25.0402 22.4572Z" fill="black"/>
</svg>
