<?xml version="1.0" encoding="UTF-8"?>
<svg width="41px" height="33px" viewBox="0 0 41 33" version="1.1" xmlns="http://www.w3.org/2000/svg" xmlns:xlink="http://www.w3.org/1999/xlink">
    <!-- Generator: Sketch 57.1 (83088) - https://sketch.com -->
    <title>Group 6</title>
    <desc>Created with Sketch.</desc>
    <g id="Besucher" stroke="none" stroke-width="1" fill="none" fill-rule="evenodd">
        <g id="presentation---waiting-screen" transform="translate(-394.000000, -426.000000)" fill="#3AA1D1" fill-rule="nonzero">
            <g id="Group-6" transform="translate(393.000000, 426.000000)">
                <path d="M21.2499517,0.750069737 C24.906193,0.750069737 28.281185,1.40631782 31.3749276,2.71881504 C34.4686702,4.03131227 36.9296018,5.80083859 38.7577225,8.02739614 C40.5858431,10.2539537 41.4999034,12.7031662 41.4999034,15.3750349 C41.4999034,18.0469035 40.5975622,20.4961161 38.7928786,22.7226736 C36.9881951,24.9492311 34.5272635,26.7187575 31.4100837,28.0312547 C28.292904,29.3437519 24.906193,30 21.2499517,30 C17.921835,30 14.7812171,29.4375013 11.8280992,28.312504 C8.96873064,30.5624987 5.64061394,31.8749959 1.84374799,32.2499946 C1.65624808,32.2499946 1.48046725,32.2031194 1.3164055,32.10937 C1.15234374,32.0156206 1.04687525,31.8749959 1,31.687496 C0.953124754,31.4999961 1.09374942,31.2421849 1.42187399,30.9140603 L1.98437265,30.421874 C2.82812064,29.6718754 3.43749455,28.9921903 3.81249329,28.3828164 C4.4218672,27.3046943 4.86717828,25.9218847 5.14842761,24.2343887 C3.83593038,22.9687668 2.81640156,21.5859572 2.08984115,20.0859611 C1.36328074,18.5859651 1,17.0156556 1,15.3750349 C1,12.7031662 1.91406032,10.2539537 3.74218096,8.02739614 C5.5703016,5.80083859 8.03123324,4.03131227 11.1249759,2.71881504 C14.2187185,1.40631782 17.5937104,0.750069737 21.2499517,0.750069737 Z M20.9285561,18.5888453 C20.2812364,18.5888453 19.7343623,18.8176392 19.287935,19.2752276 C18.8415077,19.7328159 18.6182938,20.2796895 18.6182938,20.9158487 C18.6182938,21.5520079 18.8415077,22.0988814 19.287935,22.5564697 C19.7343623,23.0140581 20.2812364,23.242852 20.9285561,23.242852 C21.5758758,23.242852 22.1227499,23.0140581 22.5691772,22.5564697 C23.0156045,22.0988814 23.2388185,21.5520079 23.2388185,20.9158487 C23.2388185,20.2796895 23.0156045,19.7328159 22.5691772,19.2752276 C22.1227499,18.8176392 21.5758758,18.5888453 20.9285561,18.5888453 Z M21.2633767,6.10003576 C19.9687368,6.10003576 18.8415077,6.36789227 17.8816884,6.90360528 C17.0111547,7.3946757 16.2187457,8.14244161 15.5044619,9.1469035 C15.3705336,9.32547433 15.3203105,9.52078671 15.3537926,9.7328396 C15.3872747,9.9448925 15.4933014,10.1178833 15.6718722,10.2518116 L15.6718722,10.2518116 L17.1116009,11.3567197 C17.2901717,11.4906479 17.4854841,11.540871 17.697537,11.5073889 C17.9095899,11.4739069 18.0825807,11.3678802 18.216509,11.1893093 C18.7075794,10.6089538 19.1205247,10.207169 19.4553453,9.98395507 C19.8794516,9.69377702 20.3928431,9.54868825 20.9955202,9.54868825 C21.5535548,9.54868825 22.0669462,9.70493805 22.5356951,10.0174371 C23.0490866,10.3299362 23.3057826,10.731721 23.3057826,11.2227914 C23.3057826,11.557612 23.1606938,11.8589506 22.8705158,12.1268071 C22.6696234,12.3276995 22.2678386,12.595556 21.6651615,12.9303766 L21.6651615,12.9303766 L21.5981974,12.9638587 C20.7499853,13.4326076 20.1473081,13.8455528 19.790166,14.202695 C19.2098104,14.8276937 18.9196323,15.5866201 18.9196323,16.4794753 L18.9196323,16.4794753 L18.9196323,16.8142959 C18.9196323,17.0375099 18.997757,17.2272412 19.1540068,17.383491 C19.3102566,17.5397408 19.4999879,17.6178654 19.7232018,17.6178654 L19.7232018,17.6178654 L22.1339104,17.6178654 C22.3571243,17.6178654 22.5468556,17.5397408 22.7031054,17.383491 C22.8593552,17.2272412 22.9374799,17.0375099 22.9374799,16.8142959 L22.9374799,16.8142959 L22.9374799,16.6134036 C22.9374799,16.3678686 23.0714081,16.1334942 23.3392646,15.9102802 C23.4955144,15.776352 23.8080135,15.5754596 24.2767624,15.3076031 C24.857118,14.9727825 25.2923848,14.6937654 25.5825629,14.4705515 C26.0513117,14.0910883 26.4196144,13.666982 26.6874709,13.1982331 C26.99997,12.6401986 27.1562198,11.9928789 27.1562198,11.2562735 C27.1562198,10.3187757 26.8548813,9.43708155 26.2522041,8.61119049 C25.6941696,7.85226356 24.9631447,7.24400642 24.059129,6.78641805 C23.1551133,6.32882969 22.223196,6.10003576 21.2633767,6.10003576 Z" id="Combined-Shape"></path>
            </g>
        </g>
    </g>
</svg>