<?xml version="1.0" encoding="utf-8"?>
<!-- Generator: Adobe Illustrator 24.0.3, SVG Export Plug-In . SVG Version: 6.00 Build 0)  -->
<svg version="1.1" id="Layer_1" xmlns="http://www.w3.org/2000/svg" xmlns:xlink="http://www.w3.org/1999/xlink" x="0px" y="0px"
	 viewBox="0 0 592 145" style="enable-background:new 0 0 592 145;" xml:space="preserve">
<style type="text/css">
	.st0{fill:#FFFFFF;}
	.st1{clip-path:url(#SVGID_2_);fill:#231F20;}
</style>
<rect class="st0" width="592" height="145"/>
<g>
	<g>
		<defs>
			<rect id="SVGID_1_" x="24" y="0" width="166.7" height="145"/>
		</defs>
		<clipPath id="SVGID_2_">
			<use xlink:href="#SVGID_1_"  style="overflow:visible;"/>
		</clipPath>
		<path class="st1" d="M145.7,36.9c0,0,0,1.8,0,1.9c0,1.1-0.1,2.2-0.2,3.3c9.5,7.6,26.3,21.1,27.2,21.8c0.5,0.4,9.1,7,18.1-1.1
			c-0.3-0.3-27.4-21.8-45-35.8C145.7,31.4,145.7,36.9,145.7,36.9L145.7,36.9z M137.6,115.6c-1.2,0-2.2-1.3-2.2-2.9
			c0-0.5,0.1-0.9,0.2-1.3c0.4,0.8,1.1,1.3,2,1.3c0.9,0,1.7-0.5,2-1.3c0.1,0.4,0.2,0.8,0.2,1.3C139.8,114.3,138.8,115.6,137.6,115.6
			L137.6,115.6z M130.1,105.4c-1.2,0-2.2-1.3-2.2-2.9c0-0.5,0.1-0.9,0.2-1.3c0.4,0.7,1.1,1.3,2,1.3c0.9,0,1.7-0.5,2-1.3
			c0.1,0.4,0.2,0.8,0.2,1.3C132.4,104.1,131.4,105.4,130.1,105.4L130.1,105.4z M126.2,115.6c-1.2,0-2.2-1.3-2.2-2.9
			c0-0.5,0.1-0.9,0.2-1.3c0.4,0.8,1.1,1.3,2,1.3c0.9,0,1.7-0.5,2-1.3c0.1,0.4,0.2,0.8,0.2,1.3C128.4,114.3,127.4,115.6,126.2,115.6
			L126.2,115.6z M122.2,92.3c0-0.5,0.1-0.9,0.2-1.3c0.4,0.8,1.1,1.3,2,1.3c0.9,0,1.7-0.5,2-1.3c0.1,0.4,0.2,0.8,0.2,1.3
			c0,1.6-1,2.9-2.3,2.9S122.2,94,122.2,92.3L122.2,92.3z M118.7,44.4c-1.2,0-2.3-1.3-2.3-2.9c0-0.5,0.1-0.9,0.2-1.3
			c0.4,0.8,1.1,1.3,2,1.3c0.9,0,1.7-0.5,2-1.3c0.2,0.4,0.2,0.8,0.2,1.3C121,43.1,120,44.4,118.7,44.4L118.7,44.4z M118.7,64.7
			c-1.2,0-2.2-1.3-2.2-2.9c0-0.5,0.1-0.9,0.2-1.3c0.4,0.7,1.1,1.3,2,1.3c0.9,0,1.7-0.5,2-1.3c0.2,0.4,0.2,0.8,0.2,1.3
			C121,63.4,120,64.7,118.7,64.7L118.7,64.7z M118.7,85.1c-1.2,0-2.3-1.3-2.3-2.9c0-0.5,0.1-0.9,0.2-1.3c0.4,0.8,1.1,1.3,2,1.3
			c0.9,0,1.7-0.5,2-1.3c0.2,0.4,0.2,0.8,0.2,1.3C121,83.8,120,85.1,118.7,85.1L118.7,85.1z M118.7,105.4c-1.2,0-2.2-1.3-2.2-2.9
			c0-0.5,0.1-0.9,0.2-1.3c0.4,0.7,1.1,1.3,2,1.3c0.9,0,1.7-0.5,2-1.3c0.2,0.4,0.2,0.8,0.2,1.3C121,104.1,120,105.4,118.7,105.4
			L118.7,105.4z M113,34.2c-1.2,0-2.2-1.3-2.2-2.9c0-0.5,0.1-0.9,0.2-1.3c0.4,0.8,1.1,1.3,2,1.3c0.9,0,1.7-0.5,2-1.3
			c0.1,0.4,0.2,0.8,0.2,1.3C115.3,32.9,114.3,34.2,113,34.2L113,34.2z M113,54.6c-1.2,0-2.2-1.3-2.2-2.9c0-0.5,0.1-0.9,0.2-1.3
			c0.4,0.7,1.1,1.3,2,1.3c0.9,0,1.7-0.5,2-1.3c0.1,0.4,0.2,0.8,0.2,1.3C115.3,53.2,114.3,54.6,113,54.6L113,54.6z M113,74.9
			c-1.2,0-2.2-1.3-2.2-2.9c0-0.5,0.1-0.9,0.2-1.3c0.4,0.7,1.1,1.3,2,1.3c0.9,0,1.7-0.5,2-1.3c0.1,0.4,0.2,0.8,0.2,1.3
			C115.3,73.6,114.3,74.9,113,74.9L113,74.9z M113,95.3c-1.2,0-2.2-1.3-2.2-2.9c0-0.5,0.1-0.9,0.2-1.3c0.4,0.8,1.1,1.3,2,1.3
			c0.9,0,1.7-0.5,2-1.3c0.1,0.4,0.2,0.8,0.2,1.3C115.3,94,114.3,95.3,113,95.3L113,95.3z M122.4,70.7c0.4,0.7,1.1,1.3,2,1.3
			c0.9,0,1.7-0.5,2-1.3c0.1,0.4,0.2,0.8,0.2,1.3c0,1.6-1,2.9-2.3,2.9s-2.2-1.3-2.2-2.9C122.2,71.5,122.3,71.1,122.4,70.7L122.4,70.7
			z M122.4,50.4c0.4,0.7,1.1,1.3,2,1.3c0.9,0,1.7-0.5,2-1.3c0.1,0.4,0.2,0.8,0.2,1.3c0,1.6-1,2.9-2.3,2.9s-2.2-1.3-2.2-2.9
			C122.2,51.2,122.3,50.7,122.4,50.4L122.4,50.4z M128.1,80.9c0.4,0.7,1.1,1.2,2,1.2c0.9,0,1.6-0.5,2-1.3c0.1,0.4,0.2,0.8,0.2,1.3
			c0,1.6-1,2.9-2.2,2.9c-1.2,0-2.2-1.3-2.2-2.9C127.9,81.7,128,81.3,128.1,80.9L128.1,80.9z M128.1,40.2c0.4,0.7,1.1,1.2,2,1.2
			c0.9,0,1.6-0.5,2-1.3c0.1,0.4,0.2,0.8,0.2,1.3c0,1.6-1,2.9-2.2,2.9c-1.2,0-2.2-1.3-2.2-2.9C127.9,41,128,40.6,128.1,40.2
			L128.1,40.2z M107.3,44.4c-1.2,0-2.2-1.3-2.2-2.9c0-0.5,0.1-0.9,0.2-1.3c0.4,0.8,1.1,1.3,2,1.3c0.9,0,1.7-0.5,2-1.3
			c0.1,0.4,0.2,0.8,0.2,1.3C109.6,43.1,108.6,44.4,107.3,44.4L107.3,44.4z M107.3,64.7c-1.2,0-2.2-1.3-2.2-2.9
			c0-0.5,0.1-0.9,0.2-1.3c0.4,0.7,1.1,1.3,2,1.3c0.9,0,1.7-0.5,2-1.3c0.1,0.4,0.2,0.8,0.2,1.3C109.6,63.4,108.6,64.7,107.3,64.7
			L107.3,64.7z M107.3,85.1c-1.2,0-2.2-1.3-2.2-2.9c0-0.5,0.1-0.9,0.2-1.3c0.4,0.8,1.1,1.3,2,1.3c0.9,0,1.7-0.5,2-1.3
			c0.1,0.4,0.2,0.8,0.2,1.3C109.6,83.8,108.6,85.1,107.3,85.1L107.3,85.1z M101.6,34.2c-1.2,0-2.2-1.3-2.2-2.9
			c0-0.5,0.1-0.9,0.2-1.3c0.4,0.8,1.1,1.3,2,1.3c0.9,0,1.7-0.5,2-1.3c0.1,0.4,0.2,0.8,0.2,1.3C103.9,32.9,102.9,34.2,101.6,34.2
			L101.6,34.2z M101.6,54.6c-1.2,0-2.2-1.3-2.2-2.9c0-0.5,0.1-0.9,0.2-1.3c0.4,0.7,1.1,1.3,2,1.3c0.9,0,1.7-0.5,2-1.3
			c0.1,0.4,0.2,0.8,0.2,1.3C103.9,53.2,102.9,54.6,101.6,54.6L101.6,54.6z M101.6,74.9c-1.2,0-2.2-1.3-2.2-2.9
			c0-0.5,0.1-0.9,0.2-1.3c0.4,0.7,1.1,1.3,2,1.3c0.9,0,1.7-0.5,2-1.3c0.1,0.4,0.2,0.8,0.2,1.3C103.9,73.6,102.9,74.9,101.6,74.9
			L101.6,74.9z M101.6,95.3c-1.2,0-2.2-1.3-2.2-2.9c0-0.5,0.1-0.9,0.2-1.3c0.4,0.8,1.1,1.3,2,1.3c0.9,0,1.7-0.5,2-1.3
			c0.1,0.4,0.2,0.8,0.2,1.3C103.9,94,102.9,95.3,101.6,95.3L101.6,95.3z M96,44.4c-1.2,0-2.3-1.3-2.3-2.9c0-0.5,0.1-0.9,0.2-1.3
			c0.4,0.8,1.1,1.3,2,1.3c0.9,0,1.7-0.5,2-1.3c0.1,0.4,0.2,0.8,0.2,1.3C98.2,43.1,97.2,44.4,96,44.4L96,44.4z M96,64.7
			c-1.2,0-2.3-1.3-2.3-2.9c0-0.5,0.1-0.9,0.2-1.3c0.4,0.7,1.1,1.3,2,1.3c0.9,0,1.7-0.5,2-1.3c0.1,0.4,0.2,0.8,0.2,1.3
			C98.2,63.4,97.2,64.7,96,64.7L96,64.7z M96,85.1c-1.2,0-2.3-1.3-2.3-2.9c0-0.5,0.1-0.9,0.2-1.3c0.4,0.8,1.1,1.3,2,1.3
			c0.9,0,1.7-0.5,2-1.3c0.1,0.4,0.2,0.8,0.2,1.3C98.2,83.8,97.2,85.1,96,85.1L96,85.1z M96,105.4c-1.2,0-2.3-1.3-2.3-2.9
			c0-0.5,0.1-0.9,0.2-1.3c0.4,0.7,1.1,1.3,2,1.3c0.9,0,1.7-0.5,2-1.3c0.1,0.4,0.2,0.8,0.2,1.3C98.2,104.1,97.2,105.4,96,105.4
			L96,105.4z M90.3,54.6c-1.2,0-2.2-1.3-2.2-2.9c0-0.5,0.1-0.9,0.2-1.3c0.4,0.7,1.1,1.3,2,1.3c0.9,0,1.7-0.5,2-1.3
			c0.1,0.4,0.2,0.8,0.2,1.3C92.5,53.2,91.5,54.6,90.3,54.6L90.3,54.6z M90.3,74.9C89,74.9,88,73.6,88,72c0-0.5,0.1-0.9,0.2-1.3
			c0.4,0.7,1.1,1.3,2,1.3c0.9,0,1.7-0.5,2-1.3c0.1,0.4,0.2,0.8,0.2,1.3C92.5,73.6,91.5,74.9,90.3,74.9L90.3,74.9z M90.3,95.3
			C89,95.3,88,94,88,92.3c0-0.5,0.1-0.9,0.2-1.3c0.4,0.8,1.1,1.3,2,1.3c0.9,0,1.7-0.5,2-1.3c0.1,0.4,0.2,0.8,0.2,1.3
			C92.5,94,91.5,95.3,90.3,95.3L90.3,95.3z M88.5,115.6c-1.2,0-2.3-1.3-2.3-2.9c0-0.5,0.1-0.9,0.2-1.3c0.4,0.8,1.1,1.3,2,1.3
			c0.9,0,1.7-0.5,2-1.3c0.1,0.4,0.2,0.8,0.2,1.3C90.8,114.3,89.8,115.6,88.5,115.6L88.5,115.6z M84.6,105.4c-1.2,0-2.2-1.3-2.2-2.9
			c0-0.5,0.1-0.9,0.2-1.3c0.4,0.7,1.1,1.3,2,1.3c0.9,0,1.7-0.5,2-1.3c0.1,0.4,0.2,0.8,0.2,1.3C86.8,104.1,85.8,105.4,84.6,105.4
			L84.6,105.4z M77.1,115.6c-1.2,0-2.2-1.3-2.2-2.9c0-0.5,0.1-0.9,0.2-1.3c0.4,0.8,1.1,1.3,2,1.3c0.9,0,1.7-0.5,2-1.3
			c0.1,0.4,0.2,0.8,0.2,1.3C79.4,114.3,78.4,115.6,77.1,115.6L77.1,115.6z M82.5,80.9c0.4,0.8,1.1,1.3,2,1.3c0.9,0,1.7-0.5,2-1.3
			c0.1,0.4,0.2,0.8,0.2,1.3c0,1.6-1,2.9-2.3,2.9c-1.2,0-2.2-1.3-2.2-2.9C82.3,81.7,82.4,81.3,82.5,80.9L82.5,80.9z M82.3,41.5
			c0-0.5,0.1-0.9,0.2-1.3c0.4,0.8,1.1,1.3,2,1.3c0.9,0,1.7-0.5,2-1.3c0.1,0.4,0.2,0.8,0.2,1.3c0,1.6-1,2.9-2.3,2.9
			C83.3,44.4,82.3,43.1,82.3,41.5L82.3,41.5z M101,5.4c-1,0-1.9-0.8-1.9-1.9c0-1,0.8-1.9,1.9-1.9c1,0,1.9,0.9,1.9,1.9
			C102.8,4.6,102,5.4,101,5.4L101,5.4z M157.9,133.7c-1.2-0.5-9.3-4.7-9.3-4.7c-3.3-19-7.1-34.8-10.2-46.6
			c-1.8-7.4-3.7-15.3-5.8-23.6c2.7-1.8,10.6-8,10.8-20.1c0,0,0-1,0-1.8c0-1.3,0-15.5,0-15.5l45.7,35.5c-0.9-4.1-6.3-22.2-24.9-39.8
			c0,0-15.5-14.8-25.3-14.8c-1.6,0-9,0.6-9,10.9v18.6c0,0,0.1,3.8-3,3.8h-0.7c-1.8-6.3-3.7-12.7-5.7-19c-0.2-0.8-0.5-1.7-0.8-2.5
			c-2.6-8.5-6.6-11.1-9.3-12.4c-1.9-0.9-4.7-1.6-8.6-1.6C91.9,0.2,89.9,4.1,89.8,5.5c-0.2,2.5,0.5,5.3,0.7,6.4
			c0.1-0.8,0.1-1.6,0.8-2.5c0.7-0.9,2.2-1.5,4-1.5h7.4c0,0,0.9,0,0.9,0.7s-0.9,0.7-0.9,0.7h-6.7c-1.5,0-2.6,0.4-3.2,1.1
			c-0.1,0.1-0.1,0.2-0.2,0.2c0.1,0,0.2-0.1,0.3-0.1c0.4-0.1,1-0.1,1.4-0.1c0.9,0.1,3.7,1.1,3.6,3.3c0,0.3-0.1,0.7-0.2,1
			c-2.7,7.1-5.2,14-7.5,20.8h-2.5c-3.1,0-3-3.8-3-3.8V13.1c0-10.3-7.3-10.9-9-10.9C66,2.2,50.4,17,50.4,17
			c-18.5,17.6-24,35.7-24.9,39.8l45.7-35.5c0,0,0,14.3,0,15.5c0,0.8,0,1.8,0,1.8c0.2,13,9.4,19.3,11.4,20.4
			C70.7,99.5,66.1,129,66.1,129s-8.1,4.2-9.3,4.7c-0.1,0-2.5,1.1-1.3,3.7c0,0,0.5,1.3,1.8,1.5c0,0-1.2-1.7,0.2-2.4l7.2-3
			c0,0-3.4,4.4-4.2,5.4c-0.1,0.1-1.8,2.1,0.4,3.9c0,0,1,0.9,2.2,0.6c0,0-1.8-1.1-0.9-2.2l5.7-6.2c0,0-1.6,5-2.1,6.1
			c0,0.1-1.1,2.5,1.5,3.6c0,0,1.2,0.6,2.3-0.1c0,0-2-0.5-1.5-1.9l1.6-3.5c0,0,1.4-3.4,3.4-3.7l1.1-0.2c4.2-0.6,6-0.1,6-0.1
			c1.6,0.6,0.5,2.7,0.5,2.7c1.4-0.4,1.8-1.9,1.8-1.9c0.9-2.8-1.9-4-2-4c-1.4-0.6-2.4-1.1-2.4-1.1s16.7-12.7,29.3-25.7
			c12.6,13,29.3,25.7,29.3,25.7s-1,0.4-2.4,1.1c-0.1,0-2.9,1.3-2,4c0,0,0.4,1.5,1.9,1.9c0,0-1.1-2.1,0.5-2.7c0,0,1.7-0.6,6,0.1
			l1.1,0.2c2,0.3,3.4,3.7,3.4,3.7l1.6,3.5c0.6,1.4-1.5,1.9-1.5,1.9c1.1,0.7,2.3,0.1,2.3,0.1c2.6-1.1,1.5-3.5,1.5-3.6
			c-0.5-1.2-2.1-6.1-2.1-6.1l5.7,6.2c0.9,1.2-0.9,2.2-0.9,2.2c1.2,0.3,2.2-0.6,2.2-0.6c2.2-1.8,0.4-3.8,0.4-3.9
			c-0.8-1-4.2-5.4-4.2-5.4l7.2,3c1.4,0.6,0.2,2.4,0.2,2.4c1.3-0.2,1.8-1.5,1.8-1.5C160.4,134.8,158,133.8,157.9,133.7L157.9,133.7z
			 M149.4,121.7c1.8,1.8,3.3,3.3,3.5,3.4c0.4,0.3,8,8.1,17.4,1.1c-0.2-0.2-24.7-23.9-24.7-23.9C147.3,110.5,148.6,117.2,149.4,121.7
			L149.4,121.7z M41.9,83.6c1.8-1.3,22.6-19.2,33.1-28.3c-2.1-2.5-4-5.9-5.1-10.2c0,0-45.3,37-45.7,37.3
			C33.1,90.1,41.1,84.2,41.9,83.6L41.9,83.6z M139.7,55.4c10.5,9.1,31.3,26.9,33.1,28.3c0.8,0.6,8.8,6.5,17.7-1.1
			c-0.3-0.3-45.7-37.3-45.7-37.3C143.8,49.5,141.8,52.9,139.7,55.4L139.7,55.4z M144.3,97.2c7.9,7.5,16.5,15.7,17.3,16.4
			c0.8,0.7,8.2,7.3,18,0.8c-0.3-0.3-40.3-37.6-40.3-37.6C141.2,84.2,142.9,91.1,144.3,97.2L144.3,97.2z M134.6,60.1
			c1.2,4,2.2,7.9,3.3,11.6c10.9,10,29.4,27,30.1,27.6c0.5,0.5,8.7,7.8,18.1,0.1c-0.4-0.3-48.3-42-48.3-42
			C136.6,58.6,135.5,59.4,134.6,60.1L134.6,60.1z M24,62.7c9,8.1,17.6,1.5,18.1,1.1C43,63.1,59.8,49.6,69.3,42
			c-0.1-1-0.2-2.1-0.2-3.3c0-0.1,0-1.9,0-1.9s0-5.5,0-10C51.4,41,24.3,62.5,24,62.7L24,62.7z M97.4,137.5c0,2.4,2,4.4,4.4,4.4
			c2.4,0,4.4-2,4.4-4.4v-27.9c-2.9,2.8-5.9,5.6-8.8,8.2V137.5L97.4,137.5z M108.4,137.5c0,2.4,2,4.4,4.4,4.4c2.4,0,4.4-2,4.4-4.4
			v-19.7c-2.9-2.6-5.9-5.4-8.8-8.2V137.5L108.4,137.5z M119.4,137.8c0,2.4,2,4.4,4.4,4.4c2.4,0,4.4-2,4.4-4.4v-10.8
			c-2.5-2.1-5.6-4.6-8.8-7.4V137.8L119.4,137.8z M46.7,99.3c0.7-0.7,19.2-17.6,30.1-27.6c1-3.8,2.1-7.6,3.3-11.6
			c-0.9-0.6-2-1.5-3.1-2.7c0,0-48,41.7-48.3,42C38,107.1,46.1,99.8,46.7,99.3L46.7,99.3z M70.4,97.2c1.4-6.1,3-13,5-20.5
			c0,0-40,37.3-40.3,37.6c9.8,6.5,17.2-0.1,18-0.8C53.9,112.9,62.5,104.8,70.4,97.2L70.4,97.2z M86.6,137.8c0,2.4,2,4.4,4.4,4.4
			c2.4,0,4.4-2,4.4-4.4v-18.2c-3.2,2.8-6.2,5.4-8.8,7.4V137.8L86.6,137.8z M65.3,121.7c0.8-4.6,2-11.2,3.8-19.4
			c0,0-24.5,23.7-24.7,23.9c9.4,7,17-0.7,17.4-1.1C62,125,63.5,123.5,65.3,121.7L65.3,121.7z"/>
	</g>
</g>
</svg>
