<?xml version="1.0" encoding="utf-8"?>
<!-- Generator: Adobe Illustrator 24.0.3, SVG Export Plug-In . SVG Version: 6.00 Build 0)  -->
<svg version="1.1" id="Layer_1" xmlns="http://www.w3.org/2000/svg" xmlns:xlink="http://www.w3.org/1999/xlink" x="0px" y="0px"
	 viewBox="0 0 592 145" style="enable-background:new 0 0 592 145;" xml:space="preserve">
<style type="text/css">
	.st0{fill:none;stroke:#000000;stroke-width:2;stroke-miterlimit:10;}
</style>
<g>
	<polygon class="st0" points="110.9,143.7 108.4,114.3 121.6,119.2 138.6,116.4 158.9,104.7 161.3,90.8 172.7,85.9 178.7,68.1 
		172,50.3 148.9,20.9 124,8.8 87.1,1.7 27.1,16.6 2.9,41.1 0.5,61.7 7.6,86.6 27.8,98.3 44.5,94.4 57.3,109.3 81.8,109.3 	"/>
	<polyline class="st0" points="121.6,119.1 147.2,58.9 124,8.8 96,100.8 	"/>
	<polyline class="st0" points="147.1,58.9 161.3,90.8 96,100.8 81.8,109.3 	"/>
	<polyline class="st0" points="108.4,114.3 96,100.8 55.5,52.1 27.1,16.6 	"/>
	<polyline class="st0" points="172,50.3 44.5,94.4 2.9,41.1 	"/>
	<polyline class="st0" points="148.9,20.9 111.6,48.2 71.5,26.9 12.1,31.8 	"/>
	<polyline class="st0" points="87.1,1.7 71.5,26.9 55.5,52.1 7.6,86.6 	"/>
	<circle cx="7.4" cy="86.7" r="2.9"/>
	<circle cx="27.4" cy="72.4" r="2.9"/>
	<circle cx="55.6" cy="52.2" r="2.9"/>
	<circle cx="71.3" cy="26.9" r="2.9"/>
	<circle cx="37.6" cy="29.8" r="2.9"/>
	<circle cx="124.1" cy="9.1" r="2.9"/>
	<circle cx="148.9" cy="20.9" r="2.9"/>
	<circle cx="134.5" cy="31.5" r="2.9"/>
	<circle cx="111.9" cy="48.2" r="2.9"/>
	<circle cx="147.2" cy="58.9" r="2.9"/>
	<circle cx="172" cy="50.3" r="2.9"/>
	<circle cx="178.7" cy="68.1" r="2.9"/>
	<circle cx="161.3" cy="90.7" r="2.9"/>
	<circle cx="121.6" cy="119.1" r="2.9"/>
	<circle cx="131.8" cy="95.2" r="2.9"/>
	<circle cx="104.2" cy="73.7" r="2.9"/>
	<circle cx="80.4" cy="82.1" r="2.9"/>
	<circle cx="96" cy="100.6" r="2.9"/>
	<circle cx="81.8" cy="109.3" r="2.9"/>
	<circle cx="44.5" cy="94.4" r="2.9"/>
	<circle cx="2.9" cy="41.4" r="2.9"/>
	<circle cx="12.4" cy="31.8" r="2.9"/>
	<circle cx="27.1" cy="16.9" r="2.9"/>
	<circle cx="86.9" cy="1.7" r="2.9"/>
	<circle cx="108.4" cy="114.3" r="2.9"/>
</g>
</svg>
